SplineFontDB: 3.2
FontName: Lavi-Italic
FullName: Lavi Italic
FamilyName: Lavi
Weight: Italic
Copyright: A creation by Ruben Holthuijsen aka Rholt (2009).\nMaintainance and modification by David Revoy for the webcomic www.peppercarrot.com.\nCorrection by Solve Svartskogen.\nAdaptation for Cyrillic glyph imported from a derivative done by Gleki "lagleki" Arxokuna ( https://github.com/lagleki ).\nGNU GPL V3 ( https://www.gnu.org/copyleft/gpl.html)\nRepository and sources available here: https://github.com/Deevad/peppercarrot_fonts/\n
Version: 2.0
ItalicAngle: 0
UnderlinePosition: -240
UnderlineWidth: 120
Ascent: 1638
Descent: 410
InvalidEm: 0
LayerCount: 2
Layer: 0 1 "Back" 1
Layer: 1 1 "Fore" 0
XUID: [1021 91 1847977381 2065907]
StyleMap: 0x0001
FSType: 0
OS2Version: 2
OS2_WeightWidthSlopeOnly: 0
OS2_UseTypoMetrics: 1
CreationTime: 1231154524
ModificationTime: 1617255364
PfmFamily: 65
TTFWeight: 400
TTFWidth: 5
LineGap: 122
VLineGap: 0
Panose: 3 0 0 0 0 0 0 0 0 0
OS2TypoAscent: 2220
OS2TypoAOffset: 0
OS2TypoDescent: -630
OS2TypoDOffset: 0
OS2TypoLinegap: 122
OS2WinAscent: 2220
OS2WinAOffset: 0
OS2WinDescent: 630
OS2WinDOffset: 0
HheadAscent: 2220
HheadAOffset: 0
HheadDescent: -630
HheadDOffset: 0
OS2SubXSize: 1434
OS2SubYSize: 1331
OS2SubXOff: 0
OS2SubYOff: 293
OS2SupXSize: 1434
OS2SupYSize: 1331
OS2SupXOff: 0
OS2SupYOff: 928
OS2StrikeYSize: 102
OS2StrikeYPos: 512
OS2CapHeight: 1434
OS2XHeight: 1300
OS2Vendor: 'RL  '
OS2CodePages: 20000007.00000000
OS2UnicodeRanges: 800002af.0000000b.00000000.00000000
MacStyle: 2
Lookup: 258 0 0 "'kern' Horizontal Kerning in Latin lookup 0" { "'kern' Horizontal Kerning in Latin lookup 0 subtable"  } ['kern' ('latn' <'dflt' > ) ]
MarkAttachClasses: 1
DEI: 91125
TtTable: prep
PUSHW_1
 0
CALL
SVTCA[y-axis]
PUSHW_3
 1
 4
 7
CALL
PUSHW_1
 0
DUP
RCVT
RDTG
ROUND[Black]
RTG
WCVTP
EndTTInstrs
TtTable: fpgm
PUSHW_1
 0
FDEF
MPPEM
PUSHW_1
 9
LT
IF
PUSHB_2
 1
 1
INSTCTRL
EIF
PUSHW_1
 511
SCANCTRL
PUSHW_1
 68
SCVTCI
PUSHW_2
 9
 3
SDS
SDB
ENDF

StartChar: .notdef
Encoding: 65536 -1 0
Width: 1556
Flags: W
LayerCount: 2
Fore
SplineSet
50 0 m 1,0,-1
 524 1536 l 1,1,-1
 1530 1536 l 1,2,-1
 1056 0 l 1,3,-1
 50 0 l 1,0,-1
213 128 m 1,4,-1
 963 128 l 1,5,-1
 1367 1408 l 1,6,-1
 617 1408 l 1,7,-1
 213 128 l 1,4,-1
EndSplineSet
Validated: 1
EndChar

StartChar: exclam
Encoding: 33 33 4
Width: 699
GlyphClass: 2
Flags: W
LayerCount: 2
Fore
SplineSet
56 169 m 256,0,1
 65 202 65 202 86 232 c 128,-1,2
 107 262 107 262 135 284 c 128,-1,3
 163 306 163 306 196.5 319 c 128,-1,4
 230 332 230 332 264 332 c 0,5,6
 299 332 299 332 324 319 c 0,7,8
 351 305 351 305 365 284 c 0,9,10
 379 262 379 262 383 232 c 128,-1,11
 387 202 387 202 379 173 c 0,12,13
 378 171 378 171 378 169 c 256,14,15
 370 138 370 138 349 106 c 0,16,17
 332 79 332 79 303 54 c 0,18,19
 276 30 276 30 243 18 c 0,20,21
 209 5 209 5 176 5 c 0,22,23
 142 5 142 5 115.5 18 c 128,-1,24
 89 31 89 31 73 53 c 128,-1,25
 57 75 57 75 52 105 c 0,26,27
 50 116 50 116 50 127 c 0,28,29
 50 147 50 147 56 169 c 256,0,1
799 1468 m 2,30,-1
 790 1434 l 1,31,-1
 629 944 l 2,32,33
 627 937 627 937 619 920 c 0,34,35
 609 899 609 899 600 876 c 0,36,37
 588 848 588 848 573.5 815 c 128,-1,38
 559 782 559 782 545.5 750 c 128,-1,39
 532 718 532 718 519 689 c 128,-1,40
 506 660 506 660 497 639 c 0,41,42
 483 608 483 608 475 590 c 0,43,44
 463 563 463 563 444 536 c 0,45,46
 428 512 428 512 404.5 495 c 128,-1,47
 381 478 381 478 345 478 c 0,48,49
 308 478 308 478 291 502 c 0,50,51
 280 518 280 518 280 539 c 0,52,53
 280 551 280 551 284 565 c 2,54,-1
 290 587 l 1,55,-1
 470 1015 l 1,56,-1
 633 1507 l 2,57,58
 644 1540 644 1540 674.5 1560 c 128,-1,59
 705 1580 705 1580 735 1580 c 0,60,61
 806 1580 806 1580 806 1516 c 0,62,63
 806 1495 806 1495 799 1468 c 2,30,-1
EndSplineSet
Validated: 1
EndChar

StartChar: numbersign
Encoding: 35 35 6
Width: 1421
GlyphClass: 2
Flags: W
LayerCount: 2
Fore
SplineSet
-46 78 m 0,0,1
 -32 129 -32 129 1.5 177.5 c 128,-1,2
 35 226 35 226 72.5 274.5 c 128,-1,3
 110 323 110 323 144.5 372.5 c 128,-1,4
 179 422 179 422 193 475 c 1,5,-1
 28 475 l 2,6,7
 13 475 13 475 3.5 483.5 c 128,-1,8
 -6 492 -6 492 -11 505 c 128,-1,9
 -16 518 -16 518 -16 532 c 128,-1,10
 -16 546 -16 546 -13 558 c 0,11,12
 -10 569 -10 569 -3.5 582.5 c 128,-1,13
 3 596 3 596 12.5 608 c 128,-1,14
 22 620 22 620 36 635.5 c 128,-1,15
 50 651 50 651 64 651 c 2,16,-1
 286 651 l 1,17,-1
 413 953 l 1,18,-1
 208 953 l 2,19,20
 193 953 193 953 184 961.5 c 128,-1,21
 175 970 175 970 170 983 c 128,-1,22
 165 996 165 996 164.5 1010 c 128,-1,23
 164 1024 164 1024 167 1036 c 0,24,25
 170 1047 170 1047 176.5 1060.5 c 128,-1,26
 183 1074 183 1074 192.5 1086 c 128,-1,27
 202 1098 202 1098 216 1113.5 c 128,-1,28
 230 1129 230 1129 244 1129 c 2,29,-1
 483 1129 l 1,30,-1
 565 1433 l 2,31,32
 569 1449 569 1449 581 1463 c 128,-1,33
 593 1477 593 1477 607.5 1486 c 128,-1,34
 622 1495 622 1495 637.5 1499 c 128,-1,35
 653 1503 653 1503 667 1503 c 0,36,37
 695 1503 695 1503 708.5 1492 c 128,-1,38
 722 1481 722 1481 726 1463.5 c 128,-1,39
 730 1446 730 1446 726 1424 c 0,40,41
 722 1394 722 1394 717 1379 c 0,42,43
 698 1320 698 1320 679 1253.5 c 128,-1,44
 660 1187 660 1187 644 1129 c 1,45,-1
 1027 1129 l 1,46,47
 1030 1139 1030 1139 1033 1149 c 1,48,49
 1036 1157 1036 1157 1039 1166 c 128,-1,50
 1042 1175 1042 1175 1044 1180 c 1,51,52
 1051 1194 1051 1194 1062.5 1233 c 128,-1,53
 1074 1272 1074 1272 1087.5 1315.5 c 128,-1,54
 1101 1359 1101 1359 1111.5 1398 c 128,-1,55
 1122 1437 1122 1437 1128 1451 c 0,56,57
 1144 1479 1144 1479 1167.5 1491 c 128,-1,58
 1191 1503 1191 1503 1220 1503 c 0,59,60
 1286 1503 1286 1503 1286 1439 c 1,61,-1
 1263 1353 l 2,62,63
 1255 1323 1255 1323 1247.5 1295.5 c 128,-1,64
 1240 1268 1240 1268 1232 1241 c 128,-1,65
 1224 1214 1224 1214 1216.5 1186 c 128,-1,66
 1209 1158 1209 1158 1196 1126 c 1,67,-1
 1364 1126 l 2,68,69
 1376 1126 1376 1126 1382.5 1116 c 128,-1,70
 1389 1106 1389 1106 1392.5 1092.5 c 128,-1,71
 1396 1079 1396 1079 1395.5 1065 c 128,-1,72
 1395 1051 1395 1051 1393 1042 c 0,73,74
 1390 1029 1390 1029 1381 1014.5 c 128,-1,75
 1372 1000 1372 1000 1359.5 987.5 c 128,-1,76
 1347 975 1347 975 1332 967 c 128,-1,77
 1317 959 1317 959 1302 959 c 2,78,-1
 1141 959 l 1,79,-1
 1014 648 l 1,80,-1
 1184 648 l 2,81,82
 1196 648 1196 648 1203 638 c 128,-1,83
 1210 628 1210 628 1213 614.5 c 128,-1,84
 1216 601 1216 601 1216 587 c 128,-1,85
 1216 573 1216 573 1214 564 c 0,86,87
 1211 551 1211 551 1202 536.5 c 128,-1,88
 1193 522 1193 522 1180 509.5 c 128,-1,89
 1167 497 1167 497 1152 489 c 128,-1,90
 1137 481 1137 481 1122 481 c 2,91,-1
 932 481 l 1,92,93
 874 368 874 368 805.5 254 c 128,-1,94
 737 140 737 140 652 40 c 1,95,96
 632 20 632 20 613 10 c 128,-1,97
 594 0 594 0 570 0 c 0,98,99
 533 0 533 0 515.5 23 c 128,-1,100
 498 46 498 46 508 83 c 0,101,102
 521 133 521 133 555.5 181 c 128,-1,103
 590 229 590 229 629.5 277 c 128,-1,104
 669 325 669 325 703.5 374 c 128,-1,105
 738 423 738 423 752 475 c 1,106,107
 740 476 740 476 709.5 476 c 128,-1,108
 679 476 679 476 645 476.5 c 128,-1,109
 611 477 611 477 581 478 c 1,110,111
 540 478 540 478 539 478 c 0,112,113
 533 477 533 477 492 477 c 1,114,115
 488 475 488 475 439 475 c 1,116,117
 408 472 408 472 376 472 c 1,118,-1
 367 461 l 1,119,120
 356 441 356 441 335.5 399 c 128,-1,121
 315 357 315 357 288.5 305.5 c 128,-1,122
 262 254 262 254 229 200 c 128,-1,123
 196 146 196 146 160.5 101.5 c 128,-1,124
 125 57 125 57 88 28.5 c 128,-1,125
 51 0 51 0 14 0 c 0,126,127
 -21 0 -21 0 -38 22.5 c 128,-1,128
 -55 45 -55 45 -46 78 c 0,0,1
459 651 m 1,129,-1
 839 651 l 1,130,131
 844 661 844 661 849 671 c 0,132,133
 853 679 853 679 857 688 c 128,-1,134
 861 697 861 697 865 702 c 1,135,136
 876 727 876 727 892.5 768 c 128,-1,137
 909 809 909 809 925 849 c 128,-1,138
 941 889 941 889 953 918.5 c 128,-1,139
 965 948 965 948 965 950 c 2,140,-1
 968 959 l 1,141,142
 954 958 954 958 918.5 958 c 128,-1,143
 883 958 883 958 843.5 957.5 c 128,-1,144
 804 957 804 957 768.5 956.5 c 128,-1,145
 733 956 733 956 719 956 c 0,146,147
 704 955 704 955 681 954 c 128,-1,148
 658 953 658 953 637 953 c 0,149,150
 619 953 619 953 585 950 c 1,151,-1
 573 927 l 1,152,-1
 459 651 l 1,129,-1
EndSplineSet
Validated: 1
EndChar

StartChar: dollar
Encoding: 36 36 7
Width: 1280
GlyphClass: 2
Flags: W
LayerCount: 2
Fore
SplineSet
310 0 m 1,0,1
 271 0 271 0 224.5 9.5 c 128,-1,2
 178 19 178 19 130.5 34 c 128,-1,3
 83 49 83 49 40 71 c 128,-1,4
 -3 93 -3 93 -33.5 123 c 0,5,6
 -64 154 -64 154 -77 192 c 0,7,8
 -84 212 -84 212 -84 234 c 0,9,10
 -84 255 -84 255 -78 278 c 0,11,12
 -69 313 -69 313 -40 338 c 128,-1,13
 -11 363 -11 363 27 363 c 0,14,15
 47 363 47 363 65.5 350.5 c 128,-1,16
 84 338 84 338 104 318.5 c 128,-1,17
 124 299 124 299 147.5 276 c 128,-1,18
 171 253 171 253 201 232.5 c 128,-1,19
 231 212 231 212 268.5 194.5 c 128,-1,20
 306 177 306 177 357 177 c 1,21,-1
 513 757 l 1,22,-1
 415 785 l 2,23,24
 370 798 370 798 327.5 819 c 128,-1,25
 285 840 285 840 252.5 871 c 128,-1,26
 220 902 220 902 201 943 c 0,27,28
 185 978 185 978 185 1023 c 0,29,30
 185 1030 185 1030 185 1037 c 1,31,-1
 201 1098 l 2,32,33
 224 1184 224 1184 270 1255.5 c 128,-1,34
 316 1327 316 1327 379.5 1380.5 c 128,-1,35
 443 1434 443 1434 521 1467.5 c 128,-1,36
 599 1501 599 1501 687 1511 c 1,37,-1
 715 1511 l 1,38,-1
 756 1664 l 1,39,-1
 930 1664 l 1,40,-1
 889 1513 l 1,41,42
 928 1509 928 1509 975 1509 c 128,-1,43
 1022 1509 1022 1509 1066.5 1500 c 128,-1,44
 1111 1491 1111 1491 1152.5 1480 c 128,-1,45
 1194 1469 1194 1469 1223 1453 c 128,-1,46
 1252 1437 1252 1437 1266.5 1414.5 c 128,-1,47
 1281 1392 1281 1392 1273 1362 c 0,48,49
 1264 1327 1264 1327 1235 1302 c 128,-1,50
 1206 1277 1206 1277 1168 1277 c 2,51,-1
 1156 1277 l 1,52,53
 1078 1295 1078 1295 1002 1315.5 c 128,-1,54
 926 1336 926 1336 842 1336 c 1,55,-1
 723 892 l 1,56,-1
 872 849 l 2,57,58
 936 831 936 831 994.5 799.5 c 128,-1,59
 1053 768 1053 768 1092 722 c 0,60,61
 1130 676 1130 676 1146 614 c 0,62,63
 1153 588 1153 588 1153 559 c 0,64,65
 1153 520 1153 520 1141 475 c 0,66,67
 1123 407 1123 407 1085.5 349.5 c 128,-1,68
 1048 292 1048 292 997 244 c 128,-1,69
 946 196 946 196 884.5 158 c 128,-1,70
 823 120 823 120 756 91 c 128,-1,71
 689 62 689 62 620.5 42.5 c 128,-1,72
 552 23 552 23 487 13 c 1,73,-1
 448 -133 l 1,74,-1
 274 -133 l 1,75,-1
 310 0 l 1,0,1
674 711 m 1,76,-1
 535 191 l 1,77,78
 600 203 600 203 670 225.5 c 128,-1,79
 740 248 740 248 801.5 282.5 c 128,-1,80
 863 317 863 317 908.5 364.5 c 128,-1,81
 954 412 954 412 971 475 c 0,82,83
 976 494 976 494 976 511.5 c 0,84,85
 976 528 976 528 971 544 c 0,86,87
 961 576 961 576 938.5 600.5 c 128,-1,88
 916 625 916 625 885.5 642 c 128,-1,89
 855 659 855 659 824 668 c 2,90,-1
 674 711 l 1,76,-1
370 1095 m 0,91,92
 362 1066 362 1066 370.5 1044 c 128,-1,93
 379 1022 379 1022 395.5 1005.5 c 128,-1,94
 412 989 412 989 435 978 c 128,-1,95
 458 967 458 967 480 961 c 2,96,-1
 562 940 l 1,97,-1
 668 1337 l 1,98,99
 616 1331 616 1331 569.5 1315 c 128,-1,100
 523 1299 523 1299 484 1270.5 c 128,-1,101
 445 1242 445 1242 415.5 1199 c 128,-1,102
 386 1156 386 1156 370 1095 c 0,91,92
EndSplineSet
Validated: 1
EndChar

StartChar: percent
Encoding: 37 37 8
Width: 1659
GlyphClass: 2
Flags: W
LayerCount: 2
Fore
SplineSet
-21 50 m 0,0,1
 -16 68 -16 68 -10 83.5 c 128,-1,2
 -4 99 -4 99 14 112 c 1,3,-1
 792 765 l 1,4,-1
 1177 1114 l 2,5,6
 1194 1129 1194 1129 1223.5 1164.5 c 128,-1,7
 1253 1200 1253 1200 1289 1243.5 c 128,-1,8
 1325 1287 1325 1287 1364.5 1334.5 c 128,-1,9
 1404 1382 1404 1382 1440 1421 c 128,-1,10
 1476 1460 1476 1460 1505 1486 c 0,11,12
 1534 1511 1534 1511 1553 1514 c 0,13,14
 1559 1515 1559 1515 1564 1515 c 0,15,16
 1592 1514 1592 1514 1608 1494 c 0,17,18
 1620 1479 1620 1479 1620 1457 c 0,19,20
 1620 1445 1620 1445 1617 1432 c 0,21,22
 1608 1397 1608 1397 1585 1357 c 128,-1,23
 1562 1317 1562 1317 1531.5 1275 c 128,-1,24
 1501 1233 1501 1233 1465.5 1191.5 c 128,-1,25
 1430 1150 1430 1150 1395 1113 c 128,-1,26
 1360 1076 1360 1076 1329 1046 c 0,27,28
 1299 1017 1299 1017 1276 996 c 2,29,-1
 594 383 l 1,30,-1
 99 -12 l 2,31,32
 85 -23 85 -23 70 -26 c 0,33,34
 54 -29 54 -29 41 -29 c 0,35,36
 6 -29 6 -29 -12 -6 c 128,-1,37
 -30 17 -30 17 -21 50 c 0,0,1
871 357 m 0,38,39
 889 424 889 424 929 488 c 128,-1,40
 969 552 969 552 1024 602 c 128,-1,41
 1079 652 1079 652 1145.5 682.5 c 128,-1,42
 1212 713 1212 713 1284 713 c 0,43,44
 1357 713 1357 713 1407.5 683 c 128,-1,45
 1458 653 1458 653 1486 603.5 c 128,-1,46
 1514 554 1514 554 1520 490 c 0,47,48
 1521 475 1521 475 1521 459 c 0,49,50
 1521 409 1521 409 1507 357 c 0,51,52
 1489 288 1489 288 1449 224 c 128,-1,53
 1409 160 1409 160 1354 110 c 128,-1,54
 1299 60 1299 60 1232.5 30 c 128,-1,55
 1166 0 1166 0 1093 0 c 0,56,57
 1021 0 1021 0 970.5 30.5 c 128,-1,58
 920 61 920 61 892 111 c 128,-1,59
 864 161 864 161 858 225 c 0,60,61
 857 240 857 240 857 255 c 0,62,63
 857 305 857 305 871 357 c 0,38,39
1042 357 m 256,64,65
 1034 326 1034 326 1034.5 294 c 128,-1,66
 1035 262 1035 262 1046.5 236 c 128,-1,67
 1058 210 1058 210 1080.5 193.5 c 128,-1,68
 1103 177 1103 177 1137 177 c 0,69,70
 1173 177 1173 177 1205.5 192.5 c 128,-1,71
 1238 208 1238 208 1263.5 233.5 c 128,-1,72
 1289 259 1289 259 1308 291.5 c 128,-1,73
 1327 324 1327 324 1336 357 c 256,74,75
 1344 385 1344 385 1344 413 c 0,76,77
 1344 418 1344 418 1344 422 c 0,78,79
 1342 454 1342 454 1329.5 479.5 c 128,-1,80
 1317 505 1317 505 1293.5 520.5 c 128,-1,81
 1270 536 1270 536 1234 536 c 0,82,83
 1200 536 1200 536 1168.5 519.5 c 128,-1,84
 1137 503 1137 503 1111.5 477 c 128,-1,85
 1086 451 1086 451 1068 419.5 c 128,-1,86
 1050 388 1050 388 1042 357 c 256,64,65
208 1119 m 0,87,88
 227 1189 227 1189 268 1252.5 c 128,-1,89
 309 1316 309 1316 365 1365 c 128,-1,90
 421 1414 421 1414 488.5 1443 c 128,-1,91
 556 1472 556 1472 629 1472 c 0,92,93
 703 1472 703 1472 756.5 1444 c 128,-1,94
 810 1416 810 1416 841.5 1368.5 c 0,95,96
 872 1322 872 1322 880 1258 c 0,97,98
 882 1240 882 1240 883 1221 c 0,99,100
 883 1174 883 1174 869 1122 c 0,101,102
 850 1052 850 1052 809 988 c 128,-1,103
 768 924 768 924 712.5 874.5 c 128,-1,104
 657 825 657 825 589.5 795.5 c 128,-1,105
 522 766 522 766 449 766 c 256,106,107
 376 766 376 766 322 794.5 c 128,-1,108
 268 823 268 823 236 871.5 c 128,-1,109
 204 920 204 920 196 984 c 0,110,111
 194 1002 194 1002 194 1021 c 0,112,113
 194 1068 194 1068 208 1119 c 0,87,88
380 1122 m 0,114,115
 373 1097 373 1097 373 1071 c 0,116,117
 374 1064 374 1064 374 1057 c 0,118,119
 376 1024 376 1024 390 997 c 128,-1,120
 404 970 404 970 429 953 c 128,-1,121
 454 936 454 936 489 936 c 0,122,123
 526 936 526 936 560.5 952.5 c 128,-1,124
 595 969 595 969 621.5 995 c 128,-1,125
 648 1021 648 1021 668 1054.5 c 128,-1,126
 688 1088 688 1088 698 1122 c 0,127,128
 705 1149 705 1149 705 1175 c 0,129,130
 705 1181 705 1181 705 1187 c 0,131,132
 703 1219 703 1219 689 1244.5 c 128,-1,133
 675 1270 675 1270 650.5 1286 c 128,-1,134
 626 1302 626 1302 590 1302 c 0,135,136
 555 1302 555 1302 520.5 1286.5 c 128,-1,137
 486 1271 486 1271 458 1246 c 128,-1,138
 430 1221 430 1221 409.5 1188.5 c 128,-1,139
 389 1156 389 1156 380 1122 c 0,114,115
EndSplineSet
Validated: 1
EndChar

StartChar: ampersand
Encoding: 38 38 9
Width: 1247
GlyphClass: 2
Flags: W
LayerCount: 2
Fore
SplineSet
739 234 m 1,0,1
 689 197 689 197 635.5 157.5 c 128,-1,2
 582 118 582 118 525 85 c 128,-1,3
 468 52 468 52 409.5 31 c 128,-1,4
 351 10 351 10 293 10 c 0,5,6
 209 10 209 10 136 35.5 c 128,-1,7
 63 61 63 61 14 109.5 c 0,8,9
 -34 158 -34 158 -54 228 c 0,10,11
 -63 259 -63 259 -63 294 c 0,12,13
 -63 338 -63 338 -49 389 c 0,14,15
 -28 466 -28 466 16.5 522.5 c 128,-1,16
 61 579 61 579 118 626 c 128,-1,17
 175 673 175 673 237.5 716.5 c 128,-1,18
 300 760 300 760 358 812 c 1,19,20
 332 848 332 848 306.5 884 c 128,-1,21
 281 920 281 920 264.5 959.5 c 0,22,23
 248 998 248 998 244 1044 c 0,24,25
 243 1054 243 1054 243 1064 c 0,26,27
 243 1101 243 1101 255 1144 c 0,28,29
 275 1220 275 1220 327 1284 c 128,-1,30
 379 1348 379 1348 448.5 1394 c 128,-1,31
 518 1440 518 1440 597 1465.5 c 128,-1,32
 676 1491 676 1491 746 1491 c 0,33,34
 812 1491 812 1491 870.5 1463.5 c 128,-1,35
 929 1436 929 1436 968.5 1389.5 c 0,36,37
 1008 1344 1008 1344 1024 1282 c 0,38,39
 1031 1254 1031 1254 1031 1223 c 0,40,41
 1031 1188 1031 1188 1021 1152 c 0,42,43
 1006 1095 1006 1095 972.5 1046 c 128,-1,44
 939 997 939 997 895 955 c 128,-1,45
 851 913 851 913 800 876.5 c 128,-1,46
 749 840 749 840 699 807 c 1,47,-1
 693 803 l 2,48,49
 693 802 693 802 693 801 c 2,50,-1
 827 502 l 1,51,-1
 1038 716 l 2,52,53
 1054 732 1054 732 1070.5 737.5 c 128,-1,54
 1087 743 1087 743 1105 743 c 0,55,56
 1139 743 1139 743 1157 724 c 128,-1,57
 1175 705 1175 705 1166 670 c 0,58,59
 1162 654 1162 654 1151.5 637.5 c 128,-1,60
 1141 621 1141 621 1127 609 c 1,61,-1
 892 373 l 1,62,63
 891 371 891 371 888.5 368 c 128,-1,64
 886 365 886 365 886 363 c 2,65,-1
 885 360 l 1,66,-1
 884 357 l 2,67,68
 883 355 883 355 884 351 c 0,69,70
 883 349 883 349 885 347 c 2,71,-1
 1022 58 l 2,72,73
 1027 47 1027 47 1026 35.5 c 128,-1,74
 1025 24 1025 24 1021 12 c 0,75,76
 1013 -18 1013 -18 986.5 -39 c 128,-1,77
 960 -60 960 -60 930 -60 c 256,78,79
 900 -60 900 -60 884 -45 c 128,-1,80
 868 -30 868 -30 855 -6 c 1,81,-1
 742 229 l 1,82,-1
 739 234 l 1,0,1
111 392 m 128,-1,84
 103 362 103 362 103 336 c 0,85,86
 103 312 103 312 110 291 c 0,87,88
 125 248 125 248 158.5 220 c 128,-1,89
 192 192 192 192 240 178.5 c 128,-1,90
 288 165 288 165 340 165 c 0,91,92
 364 165 364 165 393 176 c 128,-1,93
 422 187 422 187 451.5 203.5 c 128,-1,94
 481 220 481 220 508 238.5 c 128,-1,95
 535 257 535 257 555 272 c 0,96,97
 570 283 570 283 591.5 299.5 c 128,-1,98
 613 316 613 316 636 333 c 1,99,100
 659 352 659 352 684 373 c 1,101,-1
 559 668 l 1,102,103
 558 673 558 673 554 682.5 c 128,-1,104
 550 692 550 692 543.5 702 c 128,-1,105
 537 712 537 712 529 719 c 128,-1,106
 521 726 521 726 511 726 c 0,107,108
 483 726 483 726 444.5 709.5 c 128,-1,109
 406 693 406 693 364 666 c 128,-1,110
 322 639 322 639 280.5 604 c 128,-1,111
 239 569 239 569 204 532 c 128,-1,112
 169 495 169 495 144 458.5 c 128,-1,83
 119 422 119 422 111 392 c 128,-1,84
409 1144 m 0,113,114
 405 1128 405 1128 405 1110 c 0,115,116
 406 1091 406 1091 410 1069 c 0,117,118
 420 1027 420 1027 441 990 c 128,-1,119
 462 953 462 953 493 928 c 128,-1,120
 524 903 524 903 558 903 c 0,121,122
 582 903 582 903 612.5 915 c 128,-1,123
 643 927 643 927 675 946.5 c 128,-1,124
 707 966 707 966 738 992 c 128,-1,125
 769 1018 769 1018 795.5 1045.5 c 128,-1,126
 822 1073 822 1073 841.5 1100.5 c 128,-1,127
 861 1128 861 1128 867 1152 c 0,128,129
 871 1167 871 1167 871 1181 c 0,130,131
 871 1200 871 1200 864 1219 c 0,132,133
 852 1252 852 1252 828 1278 c 128,-1,134
 804 1304 804 1304 771 1320 c 128,-1,135
 738 1336 738 1336 706 1336 c 0,136,137
 668 1336 668 1336 621 1321.5 c 128,-1,138
 574 1307 574 1307 530.5 1281.5 c 128,-1,139
 487 1256 487 1256 453.5 1221 c 128,-1,140
 420 1186 420 1186 409 1144 c 0,113,114
EndSplineSet
Validated: 1
EndChar

StartChar: quotesingle
Encoding: 39 39 10
Width: 694
GlyphClass: 2
Flags: W
LayerCount: 2
Fore
SplineSet
637.8359375 1497 m 1,0,-1
 621.8359375 1438 l 2,1,2
 587.8359375 1312 587.8359375 1312 495.8359375 1181 c 128,-1,3
 403.8359375 1050 403.8359375 1050 324.8359375 1002 c 0,4,5
 281.8359375 977 281.8359375 977 251.8359375 977 c 0,6,7
 201.8359375 977 201.8359375 977 176.8359375 1011 c 0,8,9
 159.8359375 1033 159.8359375 1033 163.8359375 1049 c 0,10,11
 166.8359375 1058 166.8359375 1058 175.8359375 1066 c 0,12,13
 331.8359375 1204 331.8359375 1204 411.8359375 1374 c 0,14,15
 437.8359375 1428 437.8359375 1428 456.8359375 1473 c 0,16,17
 489.8359375 1553 489.8359375 1553 560.3359375 1553 c 128,-1,18
 630.8359375 1553 630.8359375 1553 637.8359375 1497 c 1,0,-1
EndSplineSet
Validated: 1
EndChar

StartChar: parenleft
Encoding: 40 40 11
Width: 720
GlyphClass: 2
Flags: W
LayerCount: 2
Fore
SplineSet
351 -341 m 0,0,1
 277 -251 277 -251 223.5 -147.5 c 128,-1,2
 170 -44 170 -44 142 71 c 0,3,4
 116.962962963 174.037037037 116.962962963 174.037037037 116.962962963 286.347050754 c 0,5,6
 116.962962963 290.666666667 116.962962963 290.666666667 117 295 c 0,7,8
 117 303 117 303 117 312 c 0,9,10
 119 438 119 438 155 573 c 0,11,12
 168 622 168 622 199 691.5 c 128,-1,13
 230 761 230 761 274.5 842 c 128,-1,14
 319 923 319 923 373.5 1009.5 c 128,-1,15
 428 1096 428 1096 490 1179 c 128,-1,16
 552 1262 552 1262 617.5 1337 c 128,-1,17
 683 1412 683 1412 748 1468 c 128,-1,18
 813 1524 813 1524 875.5 1557 c 128,-1,19
 938 1590 938 1590 993 1590 c 0,20,21
 1037 1590 1037 1590 1056 1566 c 0,22,23
 1068 1552 1068 1552 1068 1527 c 0,24,25
 1068 1513 1068 1513 1064 1497 c 0,26,27
 1062 1484 1062 1484 1058 1470 c 128,-1,28
 1054 1456 1054 1456 1043 1446 c 1,29,30
 930 1357 930 1357 822 1259.5 c 128,-1,31
 714 1162 714 1162 622 1055 c 128,-1,32
 530 948 530 948 460.5 829.5 c 128,-1,33
 391 711 391 711 356 580 c 0,34,35
 332 492 332 492 332 409 c 0,36,37
 332 397 332 397 333 385 c 0,38,39
 337 291 337 291 359 207 c 128,-1,40
 381 123 381 123 413.5 50 c 128,-1,41
 446 -23 446 -23 474.5 -83.5 c 128,-1,42
 503 -144 503 -144 520 -190 c 0,43,44
 532 -221 532 -221 532 -245 c 0,45,46
 532 -256 532 -256 529 -266 c 0,47,48
 518 -308 518 -308 484.5 -335 c 128,-1,49
 451 -362 451 -362 407 -362 c 0,50,51
 389 -362 389 -362 375.5 -358.5 c 128,-1,52
 362 -355 362 -355 351 -341 c 0,0,1
EndSplineSet
Validated: 1
EndChar

StartChar: parenright
Encoding: 41 41 12
Width: 871
GlyphClass: 2
Flags: W
LayerCount: 2
Fore
SplineSet
42 -339 m 0,0,1
 23 -353 23 -353 7.5 -356.5 c 128,-1,2
 -8 -360 -8 -360 -26 -360 c 0,3,4
 -70 -360 -70 -360 -88 -333 c 0,5,6
 -100 -316 -100 -316 -100 -293 c 0,7,8
 -100 -279 -100 -279 -96 -264 c 0,9,10
 -88 -234 -88 -234 -46 -188 c 128,-1,11
 -4 -142 -4 -142 56.5 -81.5 c 128,-1,12
 117 -21 117 -21 188.5 52 c 128,-1,13
 260 125 260 125 327 209 c 128,-1,14
 394 293 394 293 449 387 c 128,-1,15
 504 481 504 481 531 582 c 0,16,17
 561 692 561 692 561 794 c 0,18,19
 562 814 562 814 560 832 c 0,20,21
 554 950 554 950 519.5 1057 c 128,-1,22
 485 1164 485 1164 429 1261.5 c 128,-1,23
 373 1359 373 1359 308 1448 c 1,24,25
 304 1458 304 1458 307.5 1472 c 128,-1,26
 311 1486 311 1486 315 1499 c 0,27,28
 330 1546 330 1546 359 1568 c 0,29,30
 391 1592 391 1592 436 1592 c 0,31,32
 491 1592 491 1592 535.5 1559 c 128,-1,33
 580 1526 580 1526 615 1470 c 128,-1,34
 650 1414 650 1414 675.5 1339 c 128,-1,35
 701 1264 701 1264 718 1181 c 128,-1,36
 735 1098 735 1098 743.5 1011.5 c 128,-1,37
 752 925 752 925 752 844 c 0,38,39
 752 838 752 838 753 832 c 0,40,41
 753 758 753 758 747 694 c 0,42,43
 741 624 741 624 728 575 c 0,44,45
 692 440 692 440 626 314 c 128,-1,46
 560 188 560 188 471.5 73 c 128,-1,47
 383 -42 383 -42 273.5 -145.5 c 128,-1,48
 164 -249 164 -249 42 -339 c 0,0,1
EndSplineSet
Validated: 1
EndChar

StartChar: asterisk
Encoding: 42 42 13
Width: 894
GlyphClass: 2
Flags: W
LayerCount: 2
Fore
SplineSet
187 899 m 2,0,1
 166 884 166 884 153 884 c 2,2,-1
 129 884 l 2,3,4
 92 884 92 884 71 906 c 0,5,6
 57 921 57 921 57 944 c 0,7,8
 57 956 57 956 61 969 c 0,9,10
 76 1024 76 1024 116 1042 c 2,11,-1
 358 1155 l 1,12,-1
 184 1269 l 1,13,14
 158 1291 158 1291 158 1321 c 0,15,16
 158 1331 158 1331 161 1342 c 0,17,18
 173 1386 173 1386 197 1405 c 0,19,20
 236 1436 236 1436 271 1436 c 0,21,22
 310 1436 310 1436 321 1421 c 2,23,-1
 436 1273 l 1,24,-1
 464 1450 l 2,25,26
 465 1454 465 1454 466 1459 c 0,27,28
 474 1488 474 1488 510 1509 c 0,29,30
 543 1529 543 1529 567 1529 c 0,31,32
 606 1529 606 1529 614 1511 c 0,33,34
 631 1476 631 1476 631 1439 c 0,35,36
 631 1421 631 1421 627 1403 c 0,37,38
 614 1348 614 1348 605 1318 c 2,39,-1
 598 1291 l 1,40,-1
 616 1310 l 1,41,42
 627 1318 627 1318 669 1350 c 128,-1,43
 711 1382 711 1382 724 1392 c 128,-1,44
 737 1402 737 1402 743 1406 c 0,45,46
 784 1436 784 1436 806 1436 c 2,47,-1
 819 1436 l 2,48,49
 882 1436 882 1436 887 1381 c 0,50,51
 889 1365 889 1365 885 1350 c 0,52,53
 874 1308 874 1308 859 1295 c 0,54,55
 843 1280 843 1280 832 1273 c 2,56,-1
 605 1149 l 1,57,-1
 761 1051 l 2,58,59
 789 1033 789 1033 789 1002 c 0,60,61
 789 991 789 991 786 979 c 0,62,63
 761 884 761 884 673 884 c 0,64,65
 622 884 622 884 542 1016 c 0,66,67
 533 1031 533 1031 524 1045 c 1,68,-1
 465 822 l 2,69,70
 463 814 463 814 464 805 c 0,71,72
 465 800 465 800 464 796 c 0,73,74
 460 779 460 779 426 768 c 0,75,76
 403 760 403 760 390 760 c 0,77,78
 355 760 355 760 339 771 c 0,79,80
 318 787 318 787 322 805 c 0,81,82
 323 808 323 808 325 811 c 0,83,84
 329 820 329 820 334 833 c 2,85,-1
 391 1047 l 1,86,-1
 187 899 l 2,0,1
EndSplineSet
Validated: 1
EndChar

StartChar: plus
Encoding: 43 43 14
Width: 1650
GlyphClass: 2
Flags: W
LayerCount: 2
Fore
SplineSet
498 149 m 1,0,1
 505 164 505 164 520.5 200 c 128,-1,2
 536 236 536 236 556 282 c 128,-1,3
 576 328 576 328 597.5 379 c 128,-1,4
 619 430 619 430 638 476 c 0,5,6
 668 548 668 548 673 558 c 0,7,8
 693 600 693 600 696 609 c 0,9,10
 697 612 697 612 700.5 621.5 c 128,-1,11
 704 631 704 631 708.5 642 c 128,-1,12
 713 653 713 653 717 662.5 c 128,-1,13
 721 672 721 672 722 675 c 1,14,15
 705 680 705 680 666.5 680 c 128,-1,16
 628 680 628 680 579 680.5 c 128,-1,17
 530 681 530 681 475.5 681 c 128,-1,18
 421 681 421 681 371.5 681.5 c 128,-1,19
 322 682 322 682 283.5 682 c 128,-1,20
 245 682 245 682 229 686 c 0,21,22
 216 689 216 689 176 696 c 1,23,24
 147 700 147 700 125.5 710.5 c 128,-1,25
 104 721 104 721 93 740 c 128,-1,26
 82 759 82 759 91 793 c 0,27,28
 99 821 99 821 113 838 c 128,-1,29
 127 855 127 855 146.5 864.5 c 128,-1,30
 166 874 166 874 189 877 c 0,31,32
 233 883 233 883 239 880 c 2,33,-1
 277 867 l 1,34,-1
 823 867 l 1,35,-1
 969 1410 l 2,36,37
 981 1454 981 1454 1004.5 1482 c 128,-1,38
 1028 1510 1028 1510 1066 1510 c 0,39,40
 1102 1510 1102 1510 1123.5 1499 c 128,-1,41
 1145 1488 1145 1488 1155.5 1468 c 128,-1,42
 1166 1448 1166 1448 1164 1420 c 1,43,44
 1164 1385 1164 1385 1155 1360 c 0,45,46
 1114 1239 1114 1239 1083 1141 c 128,-1,47
 1052 1043 1052 1043 1019 921 c 2,48,-1
 999 845 l 1,49,-1
 1500 821 l 1,50,51
 1522 821 1522 821 1536.5 818 c 128,-1,52
 1551 815 1551 815 1559.5 809 c 128,-1,53
 1568 803 1568 803 1570 792 c 128,-1,54
 1572 781 1572 781 1567 762 c 0,55,56
 1554 712 1554 712 1527.5 686.5 c 128,-1,57
 1501 661 1501 661 1452 642 c 1,58,-1
 1307 642 l 1,59,60
 1217 646 1217 646 1128 648 c 128,-1,61
 1039 650 1039 650 948 650 c 2,62,-1
 923 650 l 1,63,-1
 908 625 l 1,64,65
 902 611 902 611 889.5 580 c 128,-1,66
 877 549 877 549 860 509 c 128,-1,67
 843 469 843 469 825.5 424.5 c 128,-1,68
 808 380 808 380 791 340 c 128,-1,69
 774 300 774 300 761 268.5 c 128,-1,70
 748 237 748 237 743 224 c 0,71,72
 729 193 729 193 717.5 154 c 128,-1,73
 706 115 706 115 689.5 81 c 128,-1,74
 673 47 673 47 647.5 23.5 c 128,-1,75
 622 0 622 0 579 0 c 0,76,77
 524 0 524 0 500 34 c 0,78,79
 484 55 484 55 485 84 c 0,80,81
 485 101 485 101 490 120 c 2,82,-1
 498 149 l 1,0,1
EndSplineSet
Validated: 1
EndChar

StartChar: comma
Encoding: 44 44 15
Width: 720
GlyphClass: 2
Flags: W
LayerCount: 2
Fore
SplineSet
23 -185 m 0,0,1
 82 -133 82 -133 125 -83 c 128,-1,2
 168 -33 168 -33 201 18 c 128,-1,3
 234 69 234 69 259 122.5 c 128,-1,4
 284 176 284 176 308 234 c 0,5,6
 322 266 322 266 352.5 284 c 128,-1,7
 383 302 383 302 413 302 c 0,8,9
 445 302 445 302 463 289 c 128,-1,10
 481 276 481 276 485 246 c 1,11,-1
 469 187 l 2,12,13
 460 155 460 155 440.5 108 c 128,-1,14
 421 61 421 61 392 9.5 c 128,-1,15
 363 -42 363 -42 327.5 -92.5 c 128,-1,16
 292 -143 292 -143 252.5 -183.5 c 128,-1,17
 213 -224 213 -224 171.5 -249 c 128,-1,18
 130 -274 130 -274 89 -274 c 0,19,20
 69 -274 69 -274 51.5 -264 c 128,-1,21
 34 -254 34 -254 23.5 -240 c 128,-1,22
 13 -226 13 -226 11.5 -211 c 128,-1,23
 10 -196 10 -196 23 -185 c 0,0,1
EndSplineSet
Validated: 1
EndChar

StartChar: hyphen
Encoding: 45 45 16
AltUni2: 0000ad.ffffffff.0
Width: 740
GlyphClass: 2
Flags: W
LayerCount: 2
Fore
SplineSet
600.134765625 522 m 0,0,1
 421.134765625 497 421.134765625 497 266.134765625 497 c 0,2,3
 66.134765625 497 66.134765625 497 66.134765625 559 c 0,4,5
 66.134765625 565 66.134765625 565 68.134765625 571 c 0,6,7
 69.134765625 575 69.134765625 575 70.134765625 578 c 0,8,9
 117.134765625 697 117.134765625 697 189.134765625 705 c 0,10,11
 409.134765625 731 409.134765625 731 542.134765625 731 c 0,12,13
 745.134765625 731 745.134765625 731 745.134765625 673 c 0,14,15
 745.134765625 668 745.134765625 668 743.134765625 662 c 0,16,17
 743.134765625 661 743.134765625 661 743.134765625 660 c 0,18,19
 739.134765625 648 739.134765625 648 731.134765625 636 c 8,20,21
 657.134765625 530 657.134765625 530 600.134765625 522 c 0,0,1
EndSplineSet
Validated: 1
EndChar

StartChar: period
Encoding: 46 46 17
Width: 720
GlyphClass: 2
Flags: W
LayerCount: 2
Fore
SplineSet
106 151 m 256,0,1
 114 181 114 181 132.5 208 c 128,-1,2
 151 235 151 235 176 255 c 128,-1,3
 201 275 201 275 231 286.5 c 128,-1,4
 261 298 261 298 291 298 c 256,5,6
 321 298 321 298 345 286.5 c 128,-1,7
 369 275 369 275 383.5 255 c 128,-1,8
 398 235 398 235 402.5 208 c 128,-1,9
 407 181 407 181 399 151 c 256,10,11
 391 121 391 121 372 94 c 128,-1,12
 353 67 353 67 328 47.5 c 128,-1,13
 303 28 303 28 273 16.5 c 128,-1,14
 243 5 243 5 213 5 c 256,15,16
 183 5 183 5 159 16.5 c 128,-1,17
 135 28 135 28 120.5 47.5 c 128,-1,18
 106 67 106 67 102 94 c 128,-1,19
 98 121 98 121 106 151 c 256,0,1
EndSplineSet
Validated: 1
EndChar

StartChar: slash
Encoding: 47 47 18
Width: 944
GlyphClass: 2
Flags: W
LayerCount: 2
Fore
SplineSet
-71 0 m 4,0,1
 -65 22 -65 22 -53 47 c 132,-1,2
 -41 72 -41 72 -25.5 96 c 132,-1,3
 -10 120 -10 120 6.5 143 c 132,-1,4
 23 166 23 166 39 186 c 5,5,-1
 540 895 l 5,6,7
 582 950 582 950 630 1024.5 c 132,-1,8
 678 1099 678 1099 725 1177 c 132,-1,9
 772 1255 772 1255 812.5 1327.5 c 132,-1,10
 853 1400 853 1400 881 1451 c 5,11,12
 918 1511 918 1511 980 1511 c 4,13,14
 1000 1511 1000 1511 1016.5 1504.5 c 132,-1,15
 1033 1498 1033 1498 1044.5 1486 c 132,-1,16
 1056 1474 1056 1474 1060.5 1459 c 132,-1,17
 1065 1444 1065 1444 1059 1422 c 4,18,19
 1046 1372 1046 1372 1018.5 1312.5 c 132,-1,20
 991 1253 991 1253 954.5 1189.5 c 132,-1,21
 918 1126 918 1126 875.5 1062 c 132,-1,22
 833 998 833 998 790.5 937.5 c 132,-1,23
 748 877 748 877 707.5 823.5 c 132,-1,24
 667 770 667 770 634 729 c 5,25,-1
 186 94 l 5,26,27
 165 68 165 68 147.5 35.5 c 132,-1,28
 130 3 130 3 108.5 -25.5 c 132,-1,29
 87 -54 87 -54 60.5 -73 c 132,-1,30
 34 -92 34 -92 -3 -92 c 4,31,32
 -42 -92 -42 -92 -62 -66 c 4,33,34
 -74 -49 -74 -49 -75 -27 c 0,35,36
 -75 -14 -75 -14 -71 0 c 4,0,1
EndSplineSet
Validated: 1
EndChar

StartChar: zero
Encoding: 48 48 19
Width: 1366
GlyphClass: 2
Flags: W
LayerCount: 2
Fore
SplineSet
118 767 m 0,0,1
 136 833 136 833 184 952 c 0,2,3
 216 1030 216 1030 280 1128 c 0,4,5
 335 1213 335 1213 403 1286.5 c 128,-1,6
 471 1360 471 1360 550.5 1413.5 c 128,-1,7
 630 1467 630 1467 719.5 1498 c 128,-1,8
 809 1529 809 1529 907 1529 c 0,9,10
 1004 1529 1004 1529 1069.5 1491.5 c 128,-1,11
 1135 1454 1135 1454 1175.5 1391 c 128,-1,12
 1216 1328 1216 1328 1233.5 1245 c 128,-1,13
 1251 1162 1251 1162 1252 1072 c 0,14,15
 1252 1066 1252 1066 1252 1059 c 0,16,17
 1252 974 1252 974 1239 888 c 0,18,19
 1225 796 1225 796 1203 713 c 0,20,21
 1183 637 1183 637 1149 557 c 128,-1,22
 1115 477 1115 477 1068.5 400.5 c 128,-1,23
 1022 324 1022 324 963 254 c 128,-1,24
 904 184 904 184 835 128 c 128,-1,25
 766 72 766 72 686.5 33.5 c 128,-1,26
 607 -5 607 -5 520 -19 c 1,27,-1
 432 -19 l 2,28,29
 319 -19 319 -19 243.5 9 c 128,-1,30
 168 37 168 37 123.5 88 c 128,-1,31
 79 139 79 139 62 211 c 0,32,33
 46 283 46 283 44 370 c 0,34,35
 44 375 44 375 43 380 c 0,36,37
 44 464 44 464 66 558 c 0,38,39
 90 658 90 658 118 767 c 0,0,1
288 761 m 0,40,41
 265 677 265 677 246 600 c 0,42,43
 228 529 228 529 219 454 c 0,44,45
 215.8 427.6 215.8 427.6 215.8 402.48 c 0,46,47
 215.8 396.2 215.8 396.2 216 390 c 0,48,49
 216 359 216 359 219 332 c 0,50,51
 225 278 225 278 254 236 c 0,52,53
 283 196 283 196 336.5 174 c 128,-1,54
 390 152 390 152 477 152 c 0,55,56
 547 152 547 152 611 176.5 c 128,-1,57
 675 201 675 201 731 243 c 128,-1,58
 787 285 787 285 835 340.5 c 128,-1,59
 883 396 883 396 921 458 c 128,-1,60
 959 520 959 520 986 584 c 1,61,62
 1016 653 1016 653 1027 691 c 0,63,64
 1030 702 1030 702 1031 710 c 0,65,66
 1037 750 1037 750 1060 838 c 0,67,68
 1078 908 1078 908 1080 979 c 0,69,70
 1080 992 1080 992 1081 1004 c 0,71,72
 1081 1062 1081 1062 1075 1118 c 0,73,74
 1068 1186 1068 1186 1043.5 1237.5 c 128,-1,75
 1019 1289 1019 1289 974 1320.5 c 128,-1,76
 929 1352 929 1352 857 1352 c 0,77,78
 783 1352 783 1352 717 1327.5 c 128,-1,79
 651 1303 651 1303 593.5 1260 c 128,-1,80
 536 1217 536 1217 488 1159.5 c 128,-1,81
 440 1102 440 1102 401 1036 c 1,82,83
 359 963 359 963 335 900 c 0,84,85
 304 818 304 818 288 761 c 0,40,41
EndSplineSet
Validated: 1
EndChar

StartChar: one
Encoding: 49 49 20
Width: 1013
GlyphClass: 2
Flags: W
LayerCount: 2
Fore
SplineSet
583 204 m 1,0,-1
 697 181 l 2,1,2
 718 177 718 177 725 172 c 0,3,4
 736 162 736 162 742.5 148 c 128,-1,5
 749 134 749 134 750 117.5 c 128,-1,6
 751 101 751 101 747 87 c 0,7,8
 744 75 744 75 735.5 60.5 c 128,-1,9
 727 46 727 46 715.5 33.5 c 128,-1,10
 704 21 704 21 690.5 12 c 128,-1,11
 677 3 677 3 663 3 c 2,12,-1
 19 3 l 2,13,14
 -5 3 -5 3 -28 6 c 128,-1,15
 -51 9 -51 9 -67 18.5 c 128,-1,16
 -83 28 -83 28 -89.5 45.5 c 128,-1,17
 -96 63 -96 63 -89 91 c 0,18,19
 -85 106 -85 106 -77 123 c 128,-1,20
 -69 140 -69 140 -56.5 154 c 128,-1,21
 -44 168 -44 168 -28.5 177.5 c 128,-1,22
 -13 187 -13 187 6 187 c 2,23,-1
 381 187 l 1,24,-1
 643 1164 l 1,25,-1
 648 1183 l 1,26,27
 607 1157 607 1157 562.5 1132.5 c 128,-1,28
 518 1108 518 1108 472 1088.5 c 128,-1,29
 426 1069 426 1069 380 1057.5 c 128,-1,30
 334 1046 334 1046 289 1046 c 2,31,-1
 255 1046 l 1,32,33
 227 1057 227 1057 220 1078.5 c 128,-1,34
 213 1100 213 1100 221 1133 c 0,35,36
 228 1160 228 1160 248.5 1180 c 128,-1,37
 269 1200 269 1200 297 1215 c 128,-1,38
 325 1230 325 1230 358 1241.5 c 128,-1,39
 391 1253 391 1253 423.5 1263.5 c 128,-1,40
 456 1274 456 1274 486 1284.5 c 128,-1,41
 516 1295 516 1295 537 1308 c 0,42,43
 605 1350 605 1350 670 1401 c 128,-1,44
 735 1452 735 1452 795 1501 c 1,45,46
 807 1509 807 1509 820 1512 c 0,47,48
 833 1514 833 1514 845 1514 c 0,49,50
 884 1514 884 1514 902 1486 c 0,51,52
 913 1469 913 1469 913 1447 c 0,53,54
 913 1433 913 1433 909 1417 c 2,55,-1
 907 1408 l 1,56,-1
 583 204 l 1,0,-1
EndSplineSet
Validated: 1
EndChar

StartChar: two
Encoding: 50 50 21
Width: 1315
GlyphClass: 2
Flags: W
LayerCount: 2
Fore
SplineSet
-65 88 m 0,0,1
 -57 117 -57 117 -10 161 c 128,-1,2
 37 205 37 205 109 260.5 c 128,-1,3
 181 316 181 316 272 381.5 c 128,-1,4
 363 447 363 447 459 520 c 128,-1,5
 555 593 555 593 649.5 672 c 128,-1,6
 744 751 744 751 823.5 833 c 128,-1,7
 903 915 903 915 960.5 998.5 c 128,-1,8
 1018 1082 1018 1082 1040 1164 c 0,9,10
 1045 1184 1045 1184 1045 1202 c 0,11,12
 1045 1226 1045 1226 1035 1246 c 0,13,14
 1017 1280 1017 1280 982.5 1300.5 c 128,-1,15
 948 1321 948 1321 903.5 1330 c 128,-1,16
 859 1339 859 1339 818 1339 c 0,17,18
 755 1339 755 1339 693.5 1308.5 c 128,-1,19
 632 1278 632 1278 576 1232 c 128,-1,20
 520 1186 520 1186 469.5 1133.5 c 128,-1,21
 419 1081 419 1081 377 1037 c 0,22,23
 358 1018 358 1018 338.5 1012 c 128,-1,24
 319 1006 319 1006 296 1006 c 0,25,26
 262 1006 262 1006 242 1029 c 0,27,28
 223 1051 223 1051 232 1083 c 0,29,30
 233 1086 233 1086 233 1088 c 0,31,32
 237 1099 237 1099 239.5 1107.5 c 128,-1,33
 242 1116 242 1116 250 1127 c 1,34,35
 318 1196 318 1196 387.5 1265.5 c 128,-1,36
 457 1335 457 1335 532 1390 c 128,-1,37
 607 1445 607 1445 689 1479.5 c 128,-1,38
 771 1514 771 1514 864 1514 c 0,39,40
 944 1514 944 1514 1019 1492.5 c 128,-1,41
 1094 1471 1094 1471 1147 1427.5 c 128,-1,42
 1200 1384 1200 1384 1222 1318 c 0,43,44
 1233 1286 1233 1286 1233 1248 c 0,45,46
 1233 1207 1233 1207 1220 1160 c 0,47,48
 1196 1070 1196 1070 1143 980.5 c 128,-1,49
 1090 891 1090 891 1018 805 c 128,-1,50
 946 719 946 719 861.5 638 c 128,-1,51
 777 557 777 557 689.5 483.5 c 128,-1,52
 602 410 602 410 517 345 c 128,-1,53
 432 280 432 280 360 227 c 1,54,-1
 369 227 l 1,55,56
 437 233 437 233 501.5 236 c 128,-1,57
 566 239 566 239 632 239 c 1,58,59
 633 242 633 242 650 242 c 128,-1,60
 667 242 667 242 701 239 c 0,61,62
 743 236 743 236 793 236 c 128,-1,63
 843 236 843 236 892 226 c 128,-1,64
 941 216 941 216 977.5 199.5 c 128,-1,65
 1014 183 1014 183 1033 156 c 0,66,67
 1045 139 1045 139 1045 116 c 0,68,69
 1045 103 1045 103 1041 88 c 0,70,71
 1031 50 1031 50 1003 30 c 1,72,73
 974 8 974 8 945 8 c 0,74,75
 940 8 940 8 935 9 c 0,76,77
 893 14 893 14 848 14 c 128,-1,78
 803 14 803 14 758.5 23 c 128,-1,79
 714 32 714 32 668 35 c 1,80,81
 612 37 612 37 589 37 c 0,82,83
 583 37 583 37 578 37 c 0,84,85
 573 36 573 36 440 36 c 1,86,87
 378 33 378 33 307 33 c 0,88,89
 237 33 237 33 172 23 c 1,90,91
 104 16 104 16 34 3 c 1,92,-1
 4 3 l 2,93,94
 -35 2 -35 2 -55 26 c 0,95,96
 -68 42 -68 42 -68 64 c 0,97,98
 -68 75 -68 75 -65 88 c 0,0,1
EndSplineSet
Validated: 1
EndChar

StartChar: three
Encoding: 51 51 22
Width: 1306
GlyphClass: 2
Flags: W
LayerCount: 2
Fore
SplineSet
-47 290 m 0,0,1
 -42 308 -42 308 -30.5 324.5 c 128,-1,2
 -19 341 -19 341 -4.5 353.5 c 128,-1,3
 10 366 10 366 28 373 c 128,-1,4
 46 380 46 380 64 380 c 0,5,6
 106 380 106 380 145.5 365.5 c 128,-1,7
 185 351 185 351 225.5 330 c 128,-1,8
 266 309 266 309 307 283.5 c 128,-1,9
 348 258 348 258 393 237 c 128,-1,10
 438 216 438 216 487 201.5 c 128,-1,11
 536 187 536 187 592 187 c 0,12,13
 619 187 619 187 654 190.5 c 128,-1,14
 689 194 689 194 725.5 202 c 128,-1,15
 762 210 762 210 799 223.5 c 128,-1,16
 836 237 836 237 867 257.5 c 128,-1,17
 898 278 898 278 921 306 c 128,-1,18
 944 334 944 334 954 371 c 0,19,20
 961 397 961 397 961 421 c 0,21,22
 962 438 962 438 958 454 c 0,23,24
 950 492 950 492 928 526 c 128,-1,25
 906 560 906 560 874.5 587.5 c 128,-1,26
 843 615 843 615 700 650.5 c 128,-1,27
 557 686 557 686 521 705 c 128,-1,28
 485 724 485 724 456 739 c 1,29,30
 446 749 446 749 440.5 757.5 c 128,-1,31
 435 766 435 766 433 775 c 128,-1,32
 431 784 431 784 433.5 795.5 c 128,-1,33
 436 807 436 807 441 823 c 2,34,-1
 445 838 l 0,35,36
 447 844 447 844 448.5 849 c 128,-1,37
 450 854 450 854 455 860 c 0,38,39
 462 871 462 871 468 875 c 2,40,-1
 1100 1302 l 1,41,-1
 1102 1308 l 1,42,43
 1005 1308 1005 1308 906.5 1301.5 c 128,-1,44
 808 1295 808 1295 708 1295 c 0,45,46
 686 1295 686 1295 645.5 1293 c 128,-1,47
 605 1291 605 1291 557.5 1291 c 128,-1,48
 510 1291 510 1291 462 1296.5 c 128,-1,49
 414 1302 414 1302 377.5 1316 c 128,-1,50
 341 1330 341 1330 322 1356 c 0,51,52
 310 1372 310 1372 310 1394 c 0,53,54
 310 1408 310 1408 315 1424 c 0,55,56
 325 1460 325 1460 355 1486 c 0,57,58
 389 1514 389 1514 429 1514 c 0,59,60
 434 1514 434 1514 439 1514 c 0,61,62
 443 1514 443 1514 447 1514 c 0,63,64
 470 1514 470 1514 514 1510 c 0,65,66
 554 1506 554 1506 599 1501 c 0,67,68
 641 1496 641 1496 683 1491 c 128,-1,69
 725 1486 725 1486 769 1486 c 0,70,71
 903 1486 903 1486 1037.5 1497 c 128,-1,72
 1172 1508 1172 1508 1306 1508 c 0,73,74
 1331 1508 1331 1508 1355 1504 c 0,75,76
 1370 1503 1370 1503 1397 1491 c 0,77,78
 1434 1474 1434 1474 1435 1467 c 0,79,80
 1436 1462 1436 1462 1436 1457 c 0,81,82
 1436 1432 1436 1432 1422 1382 c 0,83,84
 1419 1372 1419 1372 1405 1356 c 0,85,86
 1398 1348 1398 1348 1390 1340 c 24,87,-1
 744 863 l 1,88,-1
 742 851 l 1,89,90
 870 813 870 813 940 784 c 0,91,92
 1052 737 1052 737 1102 653 c 0,93,94
 1138 592 1138 592 1154 524 c 0,95,96
 1160 496 1160 496 1160 465 c 0,97,98
 1160 422 1160 422 1147 374 c 0,99,100
 1129 308 1129 308 1093.5 254.5 c 128,-1,101
 1058 201 1058 201 1010 159.5 c 128,-1,102
 962 118 962 118 904.5 88 c 128,-1,103
 847 58 847 58 785.5 38.5 c 128,-1,104
 724 19 724 19 662.5 9.5 c 128,-1,105
 601 0 601 0 545 0 c 0,106,107
 518 0 518 0 477 5 c 128,-1,108
 436 10 436 10 386 20 c 128,-1,109
 336 30 336 30 282.5 45 c 128,-1,110
 229 60 229 60 178 79 c 128,-1,111
 127 98 127 98 82 120.5 c 128,-1,112
 37 143 37 143 5.5 170 c 128,-1,113
 -26 197 -26 197 -41 227 c 0,114,115
 -50 246 -50 246 -50 266 c 0,116,117
 -50 278 -50 278 -47 290 c 0,0,1
EndSplineSet
Validated: 1
EndChar

StartChar: four
Encoding: 52 52 23
Width: 1045
GlyphClass: 2
Flags: W
LayerCount: 2
Fore
SplineSet
495 79 m 0,0,1
 510 136 510 136 545.5 202 c 128,-1,2
 581 268 581 268 621.5 339 c 128,-1,3
 662 410 662 410 699.5 484 c 128,-1,4
 737 558 737 558 757 632 c 2,5,-1
 764 660 l 1,6,7
 740 678 740 678 695.5 689.5 c 128,-1,8
 651 701 651 701 596.5 710 c 128,-1,9
 542 719 542 719 480.5 726 c 128,-1,10
 419 733 419 733 359 741 c 128,-1,11
 299 749 299 749 245.5 759.5 c 128,-1,12
 192 770 192 770 154 786 c 128,-1,13
 116 802 116 802 96.5 824.5 c 128,-1,14
 77 847 77 847 86 879 c 2,15,-1
 92 904 l 1,16,-1
 235 1142 l 2,17,18
 251 1167 251 1167 268 1209 c 128,-1,19
 285 1251 285 1251 301.5 1295.5 c 128,-1,20
 318 1340 318 1340 331 1380 c 128,-1,21
 344 1420 344 1420 350 1443 c 1,22,23
 355 1458 355 1458 365.5 1470.5 c 128,-1,24
 376 1483 376 1483 388.5 1492 c 128,-1,25
 401 1501 401 1501 416 1506 c 128,-1,26
 431 1511 431 1511 445 1511 c 0,27,28
 485 1512 485 1512 502 1488 c 0,29,30
 512 1474 512 1474 512 1453 c 0,31,32
 512 1440 512 1440 508 1423 c 0,33,34
 476 1303 476 1303 426.5 1188.5 c 128,-1,35
 377 1074 377 1074 306 961 c 1,36,-1
 304 955 l 2,37,38
 302 949 302 949 306 945.5 c 128,-1,39
 310 942 310 942 318 944 c 1,40,41
 373 935 373 935 441.5 925 c 128,-1,42
 510 915 510 915 580 902.5 c 128,-1,43
 650 890 650 890 715 873.5 c 128,-1,44
 780 857 780 857 828 836 c 1,45,-1
 1011 1454 l 2,46,47
 1014 1466 1014 1466 1025.5 1475 c 128,-1,48
 1037 1484 1037 1484 1051.5 1491 c 128,-1,49
 1066 1498 1066 1498 1080 1501.5 c 128,-1,50
 1094 1505 1094 1505 1104 1505 c 0,51,52
 1136 1505 1136 1505 1151 1486 c 128,-1,53
 1166 1467 1166 1467 1165 1437 c 1,54,55
 1162 1426 1162 1426 1155.5 1400 c 128,-1,56
 1149 1374 1149 1374 1142 1345 c 128,-1,57
 1135 1316 1135 1316 1128.5 1289.5 c 128,-1,58
 1122 1263 1122 1263 1119 1253 c 0,59,60
 1114 1236 1114 1236 1105.5 1206 c 128,-1,61
 1097 1176 1097 1176 1088.5 1146.5 c 128,-1,62
 1080 1117 1080 1117 1073.5 1094 c 128,-1,63
 1067 1071 1067 1071 1066 1068 c 0,64,65
 1060 1048 1060 1048 1046.5 1005 c 128,-1,66
 1033 962 1033 962 1015.5 907.5 c 128,-1,67
 998 853 998 853 978 793.5 c 128,-1,68
 958 734 958 734 940 679.5 c 128,-1,69
 922 625 922 625 907.5 582 c 128,-1,70
 893 539 893 539 885 519 c 0,71,72
 879 504 879 504 863.5 467.5 c 128,-1,73
 848 431 848 431 831 390 c 128,-1,74
 814 349 814 349 798 313 c 128,-1,75
 782 277 782 277 777 263 c 0,76,77
 764 234 764 234 742 190 c 128,-1,78
 720 146 720 146 691.5 104.5 c 128,-1,79
 663 63 663 63 628 33 c 128,-1,80
 593 3 593 3 554 3 c 0,81,82
 518 3 518 3 501.5 23 c 128,-1,83
 485 43 485 43 495 79 c 0,0,1
EndSplineSet
Validated: 1
EndChar

StartChar: five
Encoding: 53 53 24
Width: 1380
GlyphClass: 2
Flags: W
LayerCount: 2
Fore
SplineSet
-29 255 m 0,0,1
 -17 300 -17 300 17.5 324.5 c 128,-1,2
 52 349 52 349 97 349 c 0,3,4
 151 349 151 349 203 326 c 128,-1,5
 255 303 255 303 310.5 275 c 128,-1,6
 366 247 366 247 428.5 224 c 128,-1,7
 491 201 491 201 565 201 c 0,8,9
 598 201 598 201 642.5 205.5 c 128,-1,10
 687 210 687 210 736.5 220 c 128,-1,11
 786 230 786 230 836 247.5 c 128,-1,12
 886 265 886 265 928.5 290.5 c 128,-1,13
 971 316 971 316 1002.5 351.5 c 128,-1,14
 1034 387 1034 387 1047 433 c 0,15,16
 1055 462 1055 462 1055 488 c 0,17,18
 1054 525 1054 525 1038 553 c 0,19,20
 1010 601 1010 601 953 632.5 c 128,-1,21
 896 664 896 664 816.5 682.5 c 128,-1,22
 737 701 737 701 652.5 714.5 c 128,-1,23
 568 728 568 728 486.5 740 c 128,-1,24
 405 752 405 752 344 770.5 c 0,25,26
 283 790 283 790 250 818 c 0,27,28
 226 838 226 838 226 868 c 0,29,30
 226 880 226 880 230 893 c 2,31,-1
 239 926 l 1,32,33
 250 944 250 944 267.5 970.5 c 128,-1,34
 285 997 285 997 304 1027 c 128,-1,35
 323 1057 323 1057 339 1087 c 128,-1,36
 355 1117 355 1117 363 1141 c 2,37,-1
 454 1430 l 1,38,39
 462 1458 462 1458 488.5 1480 c 128,-1,40
 515 1502 515 1502 542 1510 c 1,41,-1
 619 1510 l 1,42,-1
 697 1510 l 1,43,44
 724 1509 724 1509 780 1507 c 128,-1,45
 836 1505 836 1505 907 1502.5 c 128,-1,46
 978 1500 978 1500 1056 1497 c 128,-1,47
 1134 1494 1134 1494 1204.5 1491 c 128,-1,48
 1275 1488 1275 1488 1331.5 1486 c 128,-1,49
 1388 1484 1388 1484 1415 1483 c 1,50,51
 1444 1473 1444 1473 1455 1447.5 c 128,-1,52
 1466 1422 1466 1422 1457 1389 c 0,53,54
 1447 1351 1447 1351 1417.5 1327 c 128,-1,55
 1388 1303 1388 1303 1351 1295 c 1,56,-1
 1180 1295 l 2,57,58
 1053 1295 1053 1295 928 1302 c 128,-1,59
 803 1309 803 1309 676 1309 c 2,60,-1
 616 1309 l 1,61,62
 604 1271 604 1271 587 1229.5 c 128,-1,63
 570 1188 570 1188 551.5 1146.5 c 128,-1,64
 533 1105 533 1105 516.5 1064 c 128,-1,65
 500 1023 500 1023 490 987 c 2,66,-1
 488 980 l 1,67,68
 536 963 536 963 599 948.5 c 128,-1,69
 662 934 662 934 731 917.5 c 128,-1,70
 800 901 800 901 870.5 881.5 c 128,-1,71
 941 862 941 862 1004.5 835.5 c 128,-1,72
 1068 809 1068 809 1121 773.5 c 128,-1,73
 1174 738 1174 738 1208 689.5 c 128,-1,74
 1242 641 1242 641 1252 578 c 0,75,76
 1255 558 1255 558 1256 535 c 0,77,78
 1256 488 1256 488 1241 433 c 0,79,80
 1221 357 1221 357 1176 295 c 128,-1,81
 1131 233 1131 233 1071.5 185 c 128,-1,82
 1012 137 1012 137 941 102 c 128,-1,83
 870 67 870 67 795.5 44.5 c 128,-1,84
 721 22 721 22 648 11 c 128,-1,85
 575 0 575 0 511 0 c 0,86,87
 480 0 480 0 424.5 7 c 128,-1,88
 369 14 369 14 305.5 28 c 128,-1,89
 242 42 242 42 177 63.5 c 128,-1,90
 112 85 112 85 62.5 113 c 0,91,92
 13 140 13 140 -14 176 c 0,93,94
 -33 201 -33 201 -33 229 c 0,95,96
 -33 242 -33 242 -29 255 c 0,0,1
EndSplineSet
Validated: 1
EndChar

StartChar: six
Encoding: 54 54 25
Width: 1205
GlyphClass: 2
Flags: W
LayerCount: 2
Fore
SplineSet
132 880 m 1,0,1
 185 1010 185 1010 270.5 1126.5 c 128,-1,2
 356 1243 356 1243 465.5 1331.5 c 128,-1,3
 575 1420 575 1420 704 1472 c 128,-1,4
 833 1524 833 1524 972 1524 c 0,5,6
 992 1524 992 1524 1022 1526.5 c 128,-1,7
 1052 1529 1052 1529 1083.5 1530 c 128,-1,8
 1115 1531 1115 1531 1146.5 1528.5 c 128,-1,9
 1178 1526 1178 1526 1200.5 1517 c 128,-1,10
 1223 1508 1223 1508 1233.5 1489.5 c 128,-1,11
 1244 1471 1244 1471 1236 1441 c 0,12,13
 1226 1403 1226 1403 1192.5 1380 c 128,-1,14
 1159 1357 1159 1357 1123 1357 c 0,15,16
 1074 1357 1074 1357 1024.5 1351 c 128,-1,17
 975 1345 975 1345 924 1345 c 0,18,19
 832 1345 832 1345 734.5 1308.5 c 128,-1,20
 637 1272 637 1272 551.5 1208.5 c 128,-1,21
 466 1145 466 1145 401 1059.5 c 128,-1,22
 336 974 336 974 310 877 c 2,23,-1
 306 862 l 1,24,25
 354 892 354 892 405.5 919.5 c 128,-1,26
 457 947 457 947 509 967 c 128,-1,27
 561 987 561 987 614.5 999 c 128,-1,28
 668 1011 668 1011 721 1011 c 0,29,30
 832 1011 832 1011 908.5 968 c 128,-1,31
 985 925 985 925 1027.5 853 c 128,-1,32
 1070 781 1070 781 1078 686 c 0,33,34
 1080 666 1080 666 1079 645 c 0,35,36
 1079 569 1079 569 1057 487 c 0,37,38
 1040 424 1040 424 1000.5 362 c 128,-1,39
 961 300 961 300 906 244.5 c 128,-1,40
 851 189 851 189 785 141.5 c 128,-1,41
 719 94 719 94 648.5 59.5 c 128,-1,42
 578 25 578 25 506 5.5 c 128,-1,43
 434 -14 434 -14 369 -14 c 0,44,45
 262 -14 262 -14 193.5 17.5 c 128,-1,46
 125 49 125 49 86.5 103.5 c 128,-1,47
 48 158 48 158 36 232 c 0,48,49
 28 283 28 283 28 339 c 0,50,51
 28 366 28 366 30 392 c 0,52,53
 36 478 36 478 54.5 570 c 128,-1,54
 73 662 73 662 98 755 c 2,55,-1
 132 880 l 1,0,1
236 603 m 0,56,57
 212 519 212 519 204 440 c 0,58,59
 201 413 201 413 202 387 c 0,60,61
 202 339 202 339 212 300 c 0,62,63
 228 239 228 239 274 202 c 128,-1,64
 320 165 320 165 408 165 c 2,65,-1
 465 165 l 1,66,67
 501 173 501 173 543.5 190 c 128,-1,68
 586 207 586 207 629.5 230 c 128,-1,69
 673 253 673 253 714.5 282 c 128,-1,70
 756 311 756 311 790.5 343.5 c 128,-1,71
 825 376 825 376 849.5 411.5 c 128,-1,72
 874 447 874 447 884 484 c 0,73,74
 900 544 900 544 900 600 c 0,75,76
 900 610 900 610 900 618 c 0,77,78
 897 682 897 682 872 729 c 128,-1,79
 847 776 847 776 797.5 804 c 128,-1,80
 748 832 748 832 673 832 c 0,81,82
 647 832 647 832 606.5 823.5 c 128,-1,83
 566 815 566 815 520.5 799.5 c 128,-1,84
 475 784 475 784 427.5 762.5 c 128,-1,85
 380 741 380 741 340.5 715.5 c 128,-1,86
 301 690 301 690 272.5 661.5 c 128,-1,87
 244 633 244 633 236 603 c 0,56,57
EndSplineSet
Validated: 1
EndChar

StartChar: seven
Encoding: 55 55 26
Width: 1338
GlyphClass: 2
Flags: W
LayerCount: 2
Fore
SplineSet
291 134 m 2,0,1
 319 238 319 238 369 342 c 128,-1,2
 419 446 419 446 484 548.5 c 128,-1,3
 549 651 549 651 625 750.5 c 128,-1,4
 701 850 701 850 782.5 945 c 128,-1,5
 864 1040 864 1040 947 1129 c 128,-1,6
 1030 1218 1030 1218 1107 1299 c 1,7,-1
 1108 1305 l 1,8,9
 1026 1305 1026 1305 942.5 1302 c 128,-1,10
 859 1299 859 1299 777 1299 c 0,11,12
 750 1299 750 1299 696 1296 c 128,-1,13
 642 1293 642 1293 578 1292 c 0,14,15
 561 1291 561 1291 542 1291 c 0,16,17
 488 1291 488 1291 447 1294 c 0,18,19
 378 1299 378 1299 331 1312 c 0,20,21
 280 1326 280 1326 252 1353 c 0,22,23
 233 1371 233 1371 233 1399 c 0,24,25
 233 1412 233 1412 237 1426 c 0,26,27
 240 1436 240 1436 246.5 1449.5 c 128,-1,28
 253 1463 253 1463 262.5 1475.5 c 128,-1,29
 272 1488 272 1488 285 1496.5 c 128,-1,30
 298 1505 298 1505 313 1505 c 2,31,-1
 386 1505 l 1,32,33
 464 1495 464 1495 520.5 1489 c 128,-1,34
 577 1483 577 1483 627.5 1479.5 c 128,-1,35
 678 1476 678 1476 729.5 1475 c 128,-1,36
 781 1474 781 1474 848 1474 c 0,37,38
 912 1474 912 1474 976.5 1480 c 128,-1,39
 1041 1486 1041 1486 1106 1492.5 c 128,-1,40
 1171 1499 1171 1499 1235.5 1505 c 128,-1,41
 1300 1511 1300 1511 1364 1511 c 0,42,43
 1400 1511 1400 1511 1422 1491 c 0,44,45
 1437 1478 1437 1478 1437 1456 c 0,46,47
 1437 1444 1437 1444 1433 1429 c 0,48,49
 1425 1399 1425 1399 1400 1371 c 1,50,51
 1289 1260 1289 1260 1180.5 1145.5 c 128,-1,52
 1072 1031 1072 1031 969.5 911.5 c 128,-1,53
 867 792 867 792 772.5 668 c 128,-1,54
 678 544 678 544 596 413 c 0,55,56
 582 390 582 390 567 350.5 c 128,-1,57
 552 311 552 311 535 265.5 c 128,-1,58
 518 220 518 220 498 172.5 c 128,-1,59
 478 125 478 125 454 87 c 128,-1,60
 430 49 430 49 401.5 24.5 c 128,-1,61
 373 0 373 0 338 0 c 0,62,63
 310 0 310 0 292 17 c 128,-1,64
 274 34 274 34 272 61 c 1,65,-1
 291 134 l 2,0,1
EndSplineSet
Validated: 1
EndChar

StartChar: eight
Encoding: 56 56 27
Width: 1059
GlyphClass: 2
Flags: W
LayerCount: 2
Fore
SplineSet
919 399 m 4,0,1
 904 343 904 343 870 292.5 c 132,-1,2
 836 242 836 242 789 198 c 132,-1,3
 742 154 742 154 685.5 118.5 c 132,-1,4
 629 83 629 83 570 58 c 132,-1,5
 511 33 511 33 451 19.5 c 132,-1,6
 391 6 391 6 338 6 c 4,7,8
 247 6 247 6 163 38 c 132,-1,9
 79 70 79 70 20 128.5 c 4,10,11
 -39 188 -39 188 -64 270 c 4,12,13
 -76 310 -76 310 -76 353 c 0,14,15
 -76 400 -76 400 -62 452 c 4,16,17
 -43 524 -43 524 -14 573 c 132,-1,18
 15 622 15 622 50 656 c 132,-1,19
 85 690 85 690 124 714 c 132,-1,20
 163 738 163 738 203 761 c 132,-1,21
 243 784 243 784 281 809.5 c 132,-1,22
 319 835 319 835 353 873 c 5,23,24
 333 907 333 907 309 934.5 c 132,-1,25
 285 962 285 962 262 988 c 132,-1,26
 239 1014 239 1014 219.5 1040.5 c 132,-1,27
 200 1067 200 1067 187 1098 c 132,-1,28
 174 1129 174 1129 172 1167 c 4,29,30
 172 1171 172 1171 172 1175 c 0,31,32
 172 1210 172 1210 184 1254 c 4,33,34
 206 1336 206 1336 258 1403 c 132,-1,35
 310 1470 310 1470 378.5 1517 c 132,-1,36
 447 1564 447 1564 526 1590 c 132,-1,37
 605 1616 605 1616 681 1616 c 4,38,39
 741 1616 741 1616 800.5 1598.5 c 132,-1,40
 860 1581 860 1581 913.5 1549.5 c 132,-1,41
 967 1518 967 1518 1011 1474 c 132,-1,42
 1055 1430 1055 1430 1083 1377.5 c 4,43,44
 1112 1326 1112 1326 1120 1266 c 4,45,46
 1123 1246 1123 1246 1122 1225 c 0,47,48
 1122 1185 1122 1185 1111 1143 c 4,49,50
 1095 1082 1095 1082 1059.5 1032.5 c 132,-1,51
 1024 983 1024 983 976.5 942.5 c 132,-1,52
 929 902 929 902 874 869.5 c 132,-1,53
 819 837 819 837 764 811 c 5,54,-1
 763 808 l 6,55,56
 758 791 758 791 771.5 767.5 c 132,-1,57
 785 744 785 744 806.5 714.5 c 132,-1,58
 828 685 828 685 853 650 c 132,-1,59
 878 615 878 615 897 575.5 c 132,-1,60
 916 536 916 536 924 492 c 4,61,62
 927 475 927 475 927 457 c 0,63,64
 927 429 927 429 919 399 c 4,0,1
741 403 m 4,65,66
 747 426 747 426 744 445 c 132,-1,67
 741 464 741 464 732 483 c 5,68,69
 726 491 726 491 710 513.5 c 132,-1,70
 694 536 694 536 672 564.5 c 132,-1,71
 650 593 650 593 623 623.5 c 132,-1,72
 596 654 596 654 571 679.5 c 132,-1,73
 546 705 546 705 523 721.5 c 132,-1,74
 500 738 500 738 485 738 c 4,75,76
 455 738 455 738 418.5 725.5 c 132,-1,77
 382 713 382 713 344 692 c 132,-1,78
 306 671 306 671 268.5 642.5 c 132,-1,79
 231 614 231 614 201 583 c 132,-1,80
 171 552 171 552 148.5 519 c 132,-1,81
 126 486 126 486 118 455 c 4,82,83
 110 426 110 426 110 400 c 0,84,85
 110 370 110 370 120 342 c 4,86,87
 140 292 140 292 180.5 256.5 c 132,-1,88
 221 221 221 221 276.5 202 c 132,-1,89
 332 183 332 183 386 183 c 4,90,91
 414 183 414 183 448.5 191 c 132,-1,92
 483 199 483 199 520 213 c 132,-1,93
 557 227 557 227 592.5 247 c 132,-1,94
 628 267 628 267 658.5 291.5 c 132,-1,95
 689 316 689 316 711 344 c 132,-1,96
 733 372 733 372 741 403 c 4,65,66
929 1146 m 4,97,98
 934 1166 934 1166 934 1186 c 0,99,100
 934 1203 934 1203 930 1219 c 4,101,102
 922 1255 922 1255 900.5 1287.5 c 132,-1,103
 879 1320 879 1320 847.5 1347.5 c 132,-1,104
 816 1375 816 1375 780 1395 c 132,-1,105
 744 1415 744 1415 706 1426.5 c 132,-1,106
 668 1438 668 1438 633 1438 c 4,107,108
 593 1438 593 1438 551 1425.5 c 132,-1,109
 509 1413 509 1413 472 1389 c 132,-1,110
 435 1365 435 1365 407.5 1331 c 132,-1,111
 380 1297 380 1297 369 1254 c 4,112,113
 363 1231 363 1231 363 1212 c 0,114,115
 364 1196 364 1196 368 1182 c 4,116,117
 378 1152 378 1152 402 1125 c 6,118,-1
 571 953 l 5,119,120
 574 948 574 948 578 947 c 132,-1,121
 582 946 582 946 587 946 c 4,122,123
 610 946 610 946 642.5 954 c 132,-1,124
 675 962 675 962 711 976 c 132,-1,125
 747 990 747 990 782.5 1009 c 132,-1,126
 818 1028 818 1028 848.5 1050.5 c 132,-1,127
 879 1073 879 1073 900.5 1097 c 132,-1,128
 922 1121 922 1121 929 1146 c 4,97,98
EndSplineSet
Validated: 1
EndChar

StartChar: nine
Encoding: 57 57 28
Width: 1205
GlyphClass: 2
Flags: W
LayerCount: 2
Fore
SplineSet
1098 655 m 1,0,1
 1045 525 1045 525 955.5 407.5 c 128,-1,2
 866 290 866 290 752 201 c 128,-1,3
 638 112 638 112 505.5 59.5 c 128,-1,4
 373 7 373 7 234 7 c 0,5,6
 214 7 214 7 184.5 4.5 c 128,-1,7
 155 2 155 2 123 1 c 128,-1,8
 91 0 91 0 60 2.5 c 128,-1,9
 29 5 29 5 6.5 14 c 128,-1,10
 -16 23 -16 23 -27 41 c 128,-1,11
 -38 59 -38 59 -30 90 c 0,12,13
 -20 128 -20 128 13.5 151 c 128,-1,14
 47 174 47 174 83 174 c 0,15,16
 132 174 132 174 181.5 180 c 128,-1,17
 231 186 231 186 282 186 c 0,18,19
 343 186 343 186 409.5 203 c 128,-1,20
 476 220 476 220 541 251 c 128,-1,21
 606 282 606 282 667 325 c 128,-1,22
 728 368 728 368 778 420.5 c 128,-1,23
 828 473 828 473 865 533 c 128,-1,24
 902 593 902 593 920 658 c 2,25,-1
 924 673 l 1,26,27
 876 643 876 643 818.5 615.5 c 128,-1,28
 761 588 761 588 701 568 c 128,-1,29
 641 548 641 548 581.5 536 c 128,-1,30
 522 524 522 524 470 524 c 0,31,32
 359 524 359 524 288.5 567 c 128,-1,33
 218 610 218 610 182 682 c 0,34,35
 148 754 148 754 146 849 c 0,36,37
 146 855 146 855 145 859 c 0,38,39
 145 950 145 950 172 1048 c 0,40,41
 189 1112 189 1112 228 1173.5 c 128,-1,42
 267 1235 267 1235 321.5 1290.5 c 128,-1,43
 376 1346 376 1346 441.5 1393.5 c 128,-1,44
 507 1441 507 1441 577.5 1475.5 c 128,-1,45
 648 1510 648 1510 719 1529.5 c 128,-1,46
 790 1549 790 1549 855 1549 c 0,47,48
 962 1549 962 1549 1031.5 1517.5 c 128,-1,49
 1101 1486 1101 1486 1139.5 1431.5 c 128,-1,50
 1178 1377 1178 1377 1192 1303 c 0,51,52
 1201.09090909 1254.81818182 1201.09090909 1254.81818182 1201.09090909 1202.50413223 c 0,53,54
 1201.09090909 1197.27272727 1201.09090909 1197.27272727 1201 1192 c 0,55,56
 1202 1168 1202 1168 1200 1144 c 0,57,58
 1194 1058 1194 1058 1175 965 c 128,-1,59
 1156 872 1156 872 1131 780 c 2,60,-1
 1098 655 l 1,0,1
993 932 m 0,61,62
 1016 1016 1016 1016 1024 1095 c 0,63,64
 1027 1121 1027 1121 1027 1145 c 0,65,66
 1027.07692308 1148.76923077 1027.07692308 1148.76923077 1027.07692308 1152.49112426 c 0,67,68
 1027.07692308 1197.15384615 1027.07692308 1197.15384615 1016 1235 c 0,69,70
 1000 1296 1000 1296 952 1333 c 128,-1,71
 904 1370 904 1370 816 1370 c 2,72,-1
 759 1370 l 1,73,74
 705 1358 705 1358 639 1327 c 128,-1,75
 573 1296 573 1296 513 1253 c 128,-1,76
 453 1210 453 1210 407 1158 c 128,-1,77
 361 1106 361 1106 346 1051 c 0,78,79
 328 980 328 980 324 917 c 0,80,81
 323 907 323 907 323 897 c 0,82,83
 323 846 323 846 338 806 c 0,84,85
 356 758 356 758 399.5 730.5 c 128,-1,86
 443 703 443 703 518 703 c 0,87,88
 544 703 544 703 587 711.5 c 128,-1,89
 630 720 630 720 680.5 735.5 c 128,-1,90
 731 751 731 751 782.5 772.5 c 128,-1,91
 834 794 834 794 878.5 819.5 c 128,-1,92
 923 845 923 845 954 873.5 c 128,-1,93
 985 902 985 902 993 932 c 0,61,62
EndSplineSet
Validated: 1
EndChar

StartChar: colon
Encoding: 58 58 29
Width: 613
GlyphClass: 2
Flags: W
LayerCount: 2
Fore
SplineSet
127 151 m 256,0,1
 135 181 135 181 154 208 c 128,-1,2
 173 235 173 235 197.5 255 c 128,-1,3
 222 275 222 275 252 286.5 c 128,-1,4
 282 298 282 298 312 298 c 256,5,6
 342 298 342 298 366 286.5 c 128,-1,7
 390 275 390 275 405 255 c 128,-1,8
 420 235 420 235 424 208 c 128,-1,9
 428 181 428 181 420 151 c 256,10,11
 412 121 412 121 393.5 94 c 128,-1,12
 375 67 375 67 349.5 47.5 c 128,-1,13
 324 28 324 28 294 16.5 c 128,-1,14
 264 5 264 5 234 5 c 256,15,16
 204 5 204 5 180 16.5 c 128,-1,17
 156 28 156 28 142 47.5 c 128,-1,18
 128 67 128 67 123.5 94 c 128,-1,19
 119 121 119 121 127 151 c 256,0,1
341 979 m 256,20,21
 349 1009 349 1009 367.5 1036 c 128,-1,22
 386 1063 386 1063 411 1083 c 128,-1,23
 436 1103 436 1103 466 1114.5 c 128,-1,24
 496 1126 496 1126 526 1126 c 256,25,26
 556 1126 556 1126 580 1114.5 c 128,-1,27
 604 1103 604 1103 618.5 1083 c 128,-1,28
 633 1063 633 1063 637.5 1036 c 128,-1,29
 642 1009 642 1009 634 979 c 256,30,31
 626 949 626 949 607 922 c 128,-1,32
 588 895 588 895 563 875.5 c 128,-1,33
 538 856 538 856 508 844.5 c 128,-1,34
 478 833 478 833 448 833 c 256,35,36
 418 833 418 833 394 844.5 c 128,-1,37
 370 856 370 856 355.5 875.5 c 128,-1,38
 341 895 341 895 337 922 c 128,-1,39
 333 949 333 949 341 979 c 256,20,21
EndSplineSet
Validated: 1
EndChar

StartChar: semicolon
Encoding: 59 59 30
Width: 513
GlyphClass: 2
Flags: W
LayerCount: 2
Fore
SplineSet
-88 -185 m 0,0,1
 -29 -133 -29 -133 14.5 -83 c 128,-1,2
 58 -33 58 -33 90.5 18 c 128,-1,3
 123 69 123 69 148.5 122.5 c 128,-1,4
 174 176 174 176 198 234 c 0,5,6
 212 266 212 266 242.5 284 c 128,-1,7
 273 302 273 302 303 302 c 0,8,9
 335 302 335 302 353 289 c 128,-1,10
 371 276 371 276 375 246 c 1,11,-1
 359 187 l 2,12,13
 350 155 350 155 330 108 c 128,-1,14
 310 61 310 61 281.5 9.5 c 128,-1,15
 253 -42 253 -42 217.5 -92.5 c 128,-1,16
 182 -143 182 -143 142.5 -183.5 c 128,-1,17
 103 -224 103 -224 61.5 -249 c 128,-1,18
 20 -274 20 -274 -21 -274 c 0,19,20
 -41 -274 -41 -274 -58.5 -264 c 128,-1,21
 -76 -254 -76 -254 -87 -240 c 128,-1,22
 -98 -226 -98 -226 -99.5 -211 c 128,-1,23
 -101 -196 -101 -196 -88 -185 c 0,0,1
317 978 m 256,24,25
 325 1008 325 1008 344 1035 c 128,-1,26
 363 1062 363 1062 387.5 1082 c 128,-1,27
 412 1102 412 1102 442 1113.5 c 128,-1,28
 472 1125 472 1125 502 1125 c 256,29,30
 532 1125 532 1125 556 1113.5 c 128,-1,31
 580 1102 580 1102 595 1082 c 128,-1,32
 610 1062 610 1062 614 1035 c 128,-1,33
 618 1008 618 1008 610 978 c 256,34,35
 602 948 602 948 583.5 921 c 128,-1,36
 565 894 565 894 539.5 874.5 c 128,-1,37
 514 855 514 855 484 843.5 c 128,-1,38
 454 832 454 832 424 832 c 256,39,40
 394 832 394 832 370 843.5 c 128,-1,41
 346 855 346 855 332 874.5 c 128,-1,42
 318 894 318 894 313.5 921 c 128,-1,43
 309 948 309 948 317 978 c 256,24,25
EndSplineSet
Validated: 1
EndChar

StartChar: less
Encoding: 60 60 31
Width: 1038
GlyphClass: 2
Flags: W
LayerCount: 2
Fore
SplineSet
1039 1228 m 128,-1,1
 1069 1228 1069 1228 1085 1204 c 128,-1,2
 1101 1180 1101 1180 1091.5 1145 c 128,-1,3
 1082 1110 1082 1110 1038 1065.5 c 128,-1,4
 994 1021 994 1021 931 974 c 128,-1,5
 868 927 868 927 792.5 880 c 128,-1,6
 717 833 717 833 642.5 790.5 c 128,-1,7
 568 748 568 748 502.5 713 c 128,-1,8
 437 678 437 678 395 655 c 1,9,10
 447 605 447 605 506.5 553 c 128,-1,11
 566 501 566 501 664.5 409 c 128,-1,12
 763 317 763 317 800 255 c 0,13,14
 834.225 198.575 834.225 198.575 834.225 184.075625 c 0,15,16
 834.225 182.9 834.225 182.9 834 182 c 0,17,-1
 834 182 l 0,18,19
 831 171 831 171 824.5 148.5 c 128,-1,20
 818 126 818 126 791 103.5 c 128,-1,21
 764 81 764 81 732.5 81 c 128,-1,22
 701 81 701 81 666 114 c 128,-1,23
 631 147 631 147 586.5 197.5 c 128,-1,24
 542 248 542 248 488.5 308 c 128,-1,25
 435 368 435 368 333 459.5 c 128,-1,26
 231 551 231 551 151.5 565 c 128,-1,27
 72 579 72 579 62.5 603 c 128,-1,28
 53 627 53 627 62.5 650.5 c 128,-1,29
 72 674 72 674 103.5 696 c 128,-1,30
 135 718 135 718 179.5 741 c 128,-1,31
 224 764 224 764 276 787 c 128,-1,32
 328 810 328 810 412.5 847.5 c 128,-1,33
 497 885 497 885 516 897 c 2,34,-1
 980 1212 l 1,35,0
 1009 1228 1009 1228 1039 1228 c 128,-1,1
EndSplineSet
Validated: 1
EndChar

StartChar: equal
Encoding: 61 61 32
Width: 1187
GlyphClass: 2
Flags: W
LayerCount: 2
Fore
SplineSet
951 366 m 1,0,-1
 54 366 l 1,1,-1
 140 552 l 1,2,-1
 1037 552 l 1,3,-1
 951 366 l 1,0,-1
1069 808 m 1,4,-1
 172 808 l 1,5,-1
 254 978 l 1,6,-1
 1151 978 l 1,7,-1
 1069 808 l 1,4,-1
EndSplineSet
Validated: 1
EndChar

StartChar: greater
Encoding: 62 62 33
Width: 1032
GlyphClass: 2
Flags: W
LayerCount: 2
Fore
SplineSet
403 1200 m 128,-1,1
 433 1200 433 1200 452 1184 c 1,2,-1
 748 869 l 2,3,4
 761 857 761 857 825.5 819.5 c 128,-1,5
 890 782 890 782 929 759 c 128,-1,6
 968 736 968 736 1000.5 713 c 128,-1,7
 1033 690 1033 690 1052.5 668 c 128,-1,8
 1072 646 1072 646 1069.5 622.5 c 128,-1,9
 1067 599 1067 599 1044.5 575 c 128,-1,10
 1022 551 1022 551 934.5 537 c 128,-1,11
 847 523 847 523 696 431.5 c 128,-1,12
 545 340 545 340 459.5 280 c 128,-1,13
 374 220 374 220 302.5 169.5 c 128,-1,14
 231 119 231 119 178 86 c 128,-1,15
 125 53 125 53 93.5 53 c 128,-1,16
 62 53 62 53 47 75.5 c 128,-1,17
 32 98 32 98 38 120.5 c 128,-1,18
 44 143 44 143 47 154 c 0,19,20
 47 154 l 0,21,22
 50 165 50 165 120 227 c 0,23,24
 191 289 191 289 338.5 381 c 128,-1,25
 486 473 486 473 573.5 525 c 128,-1,26
 661 577 661 577 739 627 c 1,27,28
 709 650 709 650 662.5 685 c 128,-1,29
 616 720 616 720 564.5 762.5 c 128,-1,30
 513 805 513 805 462.5 852 c 128,-1,31
 412 899 412 899 374 946 c 0,32,33
 336 994 336 994 316 1038 c 0,34,35
 302 1068 302 1068 302 1093 c 0,36,37
 302 1105 302 1105 306 1117 c 0,38,39
 316 1152 316 1152 344.5 1176 c 128,-1,0
 373 1200 373 1200 403 1200 c 128,-1,1
EndSplineSet
Validated: 1
EndChar

StartChar: question
Encoding: 63 63 34
Width: 971
GlyphClass: 2
Flags: W
LayerCount: 2
Fore
SplineSet
65 176 m 256,0,1
 83 243 83 243 144 290.5 c 128,-1,2
 205 338 205 338 273 338 c 0,3,4
 342 338 342 338 374 290 c 0,5,6
 394 261 394 261 394 224 c 0,7,8
 394 202 394 202 387 176 c 256,9,10
 369 108 369 108 312 60 c 0,11,12
 254 12 254 12 185 12 c 0,13,14
 117 12 117 12 82 60 c 0,15,16
 59 92 59 92 59 132 c 0,17,18
 59 153 59 153 65 176 c 256,0,1
353 437 m 1,19,-1
 288 437 l 2,20,21
 272 437 272 437 263.5 450 c 128,-1,22
 255 463 255 463 248 475 c 1,23,-1
 244 539 l 1,24,25
 248 557 248 557 253 574 c 0,26,27
 305 766 305 766 471 809 c 0,28,29
 534 825 534 825 585 825 c 0,30,31
 596 825 596 825 606 824 c 0,32,33
 615 823 615 823 623 823 c 0,34,35
 670 823 670 823 701 843 c 0,36,37
 806 908 806 908 863 1120 c 0,38,39
 870 1148 870 1148 877 1178 c 0,40,41
 891 1246 891 1246 891 1296 c 0,42,43
 891 1432 891 1432 783 1432 c 0,44,45
 782 1432 782 1432 781 1432 c 0,46,47
 714 1430 714 1430 676 1414 c 0,48,49
 593 1380 593 1380 447 1279 c 0,50,51
 372 1228 372 1228 343 1188 c 0,52,53
 270 1088 270 1088 220 1086 c 0,54,55
 186 1084 186 1084 168 1110 c 0,56,57
 157 1126 157 1126 157 1150 c 0,58,59
 157 1166 157 1166 162 1185 c 0,60,61
 162 1187 162 1187 163 1188 c 0,62,63
 176 1236 176 1236 218 1291 c 0,64,65
 300 1400 300 1400 441 1482 c 0,66,67
 657 1606 657 1606 828 1608 c 0,68,69
 960 1608 960 1608 1015 1532 c 0,70,71
 1031 1510 1031 1510 1055 1452 c 128,-1,72
 1079 1394 1079 1394 1085 1366 c 1,73,-1
 1079 1226 l 1,74,-1
 1050 1106 l 2,75,76
 1023 1006 1023 1006 992.5 932 c 128,-1,77
 962 858 962 858 876.5 770.5 c 128,-1,78
 791 683 791 683 696 661 c 128,-1,79
 601 639 601 639 548 639 c 128,-1,80
 495 639 495 639 470 619 c 1,81,-1
 444 583 l 1,82,83
 443 574 443 574 440 562 c 0,84,85
 433 536 433 536 416 499 c 0,86,87
 390 444 390 444 353 437 c 1,19,-1
EndSplineSet
Validated: 1
EndChar

StartChar: at
Encoding: 64 64 35
Width: 1945
GlyphClass: 2
Flags: W
LayerCount: 2
Fore
SplineSet
120 586 m 0,0,1
 154 713 154 713 214 827 c 128,-1,2
 274 941 274 941 354.5 1037.5 c 128,-1,3
 435 1134 435 1134 533.5 1211 c 128,-1,4
 632 1288 632 1288 743.5 1342.5 c 128,-1,5
 855 1397 855 1397 977 1426 c 128,-1,6
 1099 1455 1099 1455 1226 1455 c 0,7,8
 1361 1455 1361 1455 1464 1421 c 128,-1,9
 1567 1387 1567 1387 1641.5 1326 c 128,-1,10
 1716 1265 1716 1265 1761 1179 c 128,-1,11
 1806 1093 1806 1093 1823 990 c 0,12,13
 1834 921 1834 921 1834 846 c 0,14,15
 1834 808 1834 808 1832 769 c 0,16,17
 1824 651 1824 651 1789 525 c 0,18,19
 1776 476 1776 476 1755 416.5 c 128,-1,20
 1734 357 1734 357 1705.5 296.5 c 128,-1,21
 1677 236 1677 236 1639.5 178.5 c 128,-1,22
 1602 121 1602 121 1555 76.5 c 128,-1,23
 1508 32 1508 32 1452 5 c 128,-1,24
 1396 -22 1396 -22 1330 -22 c 0,25,26
 1271 -22 1271 -22 1234 -5.5 c 128,-1,27
 1197 11 1197 11 1174.5 38 c 128,-1,28
 1152 65 1152 65 1141 100 c 128,-1,29
 1130 135 1130 135 1124 172.5 c 128,-1,30
 1118 210 1118 210 1113 247.5 c 128,-1,31
 1108 285 1108 285 1099 317 c 1,32,33
 1071 299 1071 299 1035.5 275 c 128,-1,34
 1000 251 1000 251 962.5 229.5 c 128,-1,35
 925 208 925 208 887.5 193 c 128,-1,36
 850 178 850 178 819 178 c 2,37,-1
 654 178 l 2,38,39
 607 178 607 178 576.5 198 c 128,-1,40
 546 218 546 218 529 251.5 c 128,-1,41
 512 285 512 285 506 327 c 0,42,43
 501.833333333 357 501.833333333 357 501.833333333 387.694444444 c 0,44,45
 501.833333333 393.833333333 501.833333333 393.833333333 502 400 c 0,46,47
 502 407 502 407 502 413 c 0,48,49
 503 457 503 457 510 498.5 c 128,-1,50
 517 540 517 540 525 573 c 2,51,-1
 552 673 l 1,52,53
 599 777 599 777 672.5 844.5 c 128,-1,54
 746 912 746 912 833.5 951 c 128,-1,55
 921 990 921 990 1017.5 1005.5 c 128,-1,56
 1114 1021 1114 1021 1209 1021 c 0,57,58
 1228 1021 1228 1021 1260 1020.5 c 128,-1,59
 1292 1020 1292 1020 1323 1014 c 128,-1,60
 1354 1008 1354 1008 1376.5 993.5 c 128,-1,61
 1399 979 1399 979 1400 951 c 1,62,63
 1396 936 1396 936 1388.5 904.5 c 128,-1,64
 1381 873 1381 873 1372 833.5 c 128,-1,65
 1363 794 1363 794 1353.5 751 c 128,-1,66
 1344 708 1344 708 1335 668.5 c 128,-1,67
 1326 629 1326 629 1319 597.5 c 128,-1,68
 1312 566 1312 566 1309 551 c 0,69,70
 1305 533 1305 533 1301 497.5 c 128,-1,71
 1297 462 1297 462 1295 420 c 0,72,73
 1294 401 1294 401 1294 381 c 0,74,75
 1294 356 1294 356 1296 332 c 0,76,77
 1298 288 1298 288 1307 251.5 c 128,-1,78
 1316 215 1316 215 1334 192 c 128,-1,79
 1352 169 1352 169 1381 169 c 256,80,81
 1410 169 1410 169 1437 190.5 c 128,-1,82
 1464 212 1464 212 1487.5 245.5 c 128,-1,83
 1511 279 1511 279 1531 320 c 128,-1,84
 1551 361 1551 361 1565.5 399.5 c 128,-1,85
 1580 438 1580 438 1590 470 c 128,-1,86
 1600 502 1600 502 1604 517 c 0,87,88
 1643 663 1643 663 1643 793 c 0,89,90
 1643 799 1643 799 1643 806 c 0,91,92
 1641 942 1641 942 1589.5 1043.5 c 128,-1,93
 1538 1145 1538 1145 1433.5 1204.5 c 128,-1,94
 1329 1264 1329 1264 1166 1264 c 0,95,96
 1019 1264 1019 1264 881.5 1215 c 128,-1,97
 744 1166 744 1166 629 1077 c 128,-1,98
 514 988 514 988 429 864.5 c 128,-1,99
 344 741 344 741 304 591 c 0,100,101
 279 497 279 497 279 411 c 0,102,103
 279 381 279 381 282 351 c 0,104,105
 294 238 294 238 348 153.5 c 128,-1,106
 402 69 402 69 497 19.5 c 128,-1,107
 592 -30 592 -30 724 -30 c 2,108,-1
 807 -30 l 1,109,110
 832 -17 832 -17 849 -15 c 128,-1,111
 866 -13 866 -13 889 -13 c 0,112,113
 931 -13 931 -13 948 -35 c 128,-1,114
 965 -57 965 -57 954 -96 c 0,115,116
 941 -143 941 -143 908 -168.5 c 128,-1,117
 875 -194 875 -194 832.5 -206 c 128,-1,118
 790 -218 790 -218 746 -220 c 128,-1,119
 702 -222 702 -222 668 -222 c 0,120,121
 554 -222 554 -222 461 -192.5 c 128,-1,122
 368 -163 368 -163 297.5 -110 c 128,-1,123
 227 -57 227 -57 179 18 c 0,124,125
 130 92 130 92 108 182 c 0,126,127
 88 264 88 264 88 354 c 0,128,129
 88 364 88 364 88 374 c 0,130,131
 90 476 90 476 120 586 c 0,0,1
690 573 m 0,132,133
 680 534 680 534 675 494 c 0,134,135
 673 478 673 478 673 464 c 0,136,137
 673 440 673 440 678 420 c 0,138,139
 686 386 686 386 710 364.5 c 128,-1,140
 734 343 734 343 781 343 c 0,141,142
 845 343 845 343 897 365 c 128,-1,143
 949 387 949 387 989.5 424 c 128,-1,144
 1030 461 1030 461 1062 509.5 c 128,-1,145
 1094 558 1094 558 1118 610.5 c 128,-1,146
 1142 663 1142 663 1159.5 716 c 128,-1,147
 1177 769 1177 769 1189 816 c 0,148,149
 1190 819 1190 819 1192 824.5 c 128,-1,150
 1194 830 1194 830 1195 835 c 128,-1,151
 1196 840 1196 840 1195 843.5 c 128,-1,152
 1194 847 1194 847 1189 847 c 2,153,-1
 1116 847 l 2,154,155
 1046 847 1046 847 978.5 834.5 c 128,-1,156
 911 822 911 822 854 791 c 128,-1,157
 797 760 797 760 754.5 707 c 128,-1,158
 712 654 712 654 690 573 c 0,132,133
EndSplineSet
Validated: 1
EndChar

StartChar: A
Encoding: 65 65 36
Width: 1276
GlyphClass: 2
Flags: W
LayerCount: 2
Fore
SplineSet
1180 998 m 0,0,1
 1178 878 1178 878 1152 762 c 1,2,3
 1133 649 1133 649 1108 557 c 0,4,5
 1104 543 1104 543 1100 529 c 0,6,7
 1074 438 1074 438 1072 430 c 0,8,9
 1049 355 1049 355 1027 285 c 0,10,11
 1017 251 1017 251 1000 202 c 0,12,13
 991 176 l 0,14,15
 987 164 987 164 983 153 c 0,16,17
 980 142 980 142 976 132 c 0,18,19
 972 116 972 116 971 112 c 0,20,21
 969 105 969 105 967 98 c 0,22,23
 966 93 966 93 964 88 c 0,24,25
 961 78 961 78 962 78 c 0,26,27
 960 75 960 75 959 73 c 2,28,-1
 958 68 l 1,29,30
 935 20 935 20 885 -1 c 0,31,32
 857 -13 857 -13 836 -13 c 0,33,34
 817 -13 817 -13 802 -4 c 0,35,36
 760 20 760 20 760 59 c 0,37,38
 760 69 760 69 763 81 c 0,39,40
 765 89 765 89 766 89 c 0,41,42
 766 92 766 92 769 97 c 0,43,-1
 786 160 l 0,44,45
 789 174 789 174 795 198 c 0,46,47
 808 246 808 246 834 336 c 0,48,49
 848 390 848 390 869 459 c 0,50,-1
 888 530 l 1,51,52
 866 526 866 526 831 519 c 0,53,54
 824 518 824 518 723 499 c 0,55,56
 527 462 527 462 478 456 c 0,57,58
 434 450 434 450 431 450 c 0,59,60
 408 446 408 446 387 442 c 0,61,62
 345 434 l 0,63,64
 325 430 325 430 306 426 c 0,65,66
 301 425 301 425 287 422 c 0,67,68
 270 418 l 0,69,70
 254 414 254 414 239 411 c 1,71,72
 227 391 227 391 220 382 c 0,73,74
 210 368 210 368 199 352 c 0,75,76
 189 336 189 336 178 319 c 0,77,78
 133 250 133 250 100 199 c 2,79,-1
 11 58 l 2,80,81
 4 49 4 49 1 45 c 0,82,83
 -15 28 -15 28 -41 9 c 0,84,85
 -74 -15 -74 -15 -106 -15 c 0,86,87
 -126 -15 -126 -15 -145 -4 c 0,88,89
 -182 18 -182 18 -182 52 c 0,90,91
 -179 63 l 0,92,93
 -177 72 l 0,94,95
 -175 76 -175 76 -174 81 c 0,96,97
 -173 85 l 0,98,99
 -175 88 -175 88 -171 90 c 0,100,101
 -168 92 -168 92 -169 94 c 128,-1,102
 -170 96 -170 96 -167 100 c 0,103,104
 -163 106 -163 106 -164 107 c 128,-1,105
 -165 108 -165 108 -163 111 c 2,106,-1
 -147 153 l 1,107,-1
 -147 154 l 1,108,-1
 -146 155 l 2,109,110
 -34 304 -34 304 21 404 c 0,111,112
 142 625 142 625 182 704 c 0,113,114
 227 792 227 792 242 820 c 0,115,116
 252 840 252 840 257 850 c 0,117,118
 263 860 263 860 265 862 c 0,119,120
 270 872 270 872 317 954 c 0,121,122
 342 997 342 997 345 1003 c 0,123,124
 424 1157 424 1157 655 1362 c 0,125,126
 735 1434 735 1434 809 1473 c 0,127,128
 845 1492 845 1492 879.5 1501 c 128,-1,129
 914 1510 914 1510 946 1510 c 0,130,131
 1115 1510 1115 1510 1160 1242 c 0,132,133
 1180 1121 1180 1121 1180 1009 c 0,134,135
 1180 1003 1180 1003 1180 998 c 0,0,1
492 893 m 0,136,137
 450 831 450 831 412 764 c 0,138,139
 403 748 403 748 394.5 731 c 128,-1,140
 386 714 386 714 376.5 697 c 128,-1,141
 367 680 367 680 359 663 c 128,-1,142
 351 646 351 646 343 629 c 1,143,144
 355 630 355 630 365 631 c 128,-1,145
 375 632 375 632 385 633 c 0,146,147
 408 635 408 635 427.5 638 c 128,-1,148
 447 641 447 641 465 645 c 0,149,150
 481 648 481 648 494 650.5 c 128,-1,151
 507 653 507 653 518 655 c 128,-1,152
 529 657 529 657 538 658 c 0,153,154
 541 659 541 659 543.5 659.5 c 128,-1,155
 546 660 546 660 548.5 660.5 c 128,-1,156
 551 661 551 661 553 661 c 0,157,158
 559 662 559 662 563.5 662 c 128,-1,159
 568 662 568 662 571 663 c 0,160,161
 577 664 577 664 652 677 c 0,162,163
 758 695 758 695 829 712.5 c 128,-1,164
 900 730 900 730 934 747 c 2,165,-1
 940 750 l 2,166,167
 941 751 941 751 943 756 c 0,168,169
 962 826 962 826 967 910 c 0,170,171
 969 940 969 940 969 972 c 0,172,173
 969 1029 969 1029 963 1091 c 0,174,175
 953 1184 953 1184 928 1236 c 0,176,177
 923 1247 923 1247 917 1256 c 128,-1,178
 911 1265 911 1265 905 1272 c 128,-1,179
 899 1279 899 1279 892.5 1283.5 c 128,-1,180
 886 1288 886 1288 879 1290 c 0,181,182
 873 1292 873 1292 866 1294 c 0,183,184
 821 1279 821 1279 765 1230 c 128,-1,185
 709 1181 709 1181 640.5 1096.5 c 128,-1,186
 572 1012 572 1012 492 893 c 0,136,137
EndSplineSet
Validated: 1
EndChar

StartChar: B
Encoding: 66 66 37
Width: 1288
GlyphClass: 2
Flags: W
LayerCount: 2
Fore
SplineSet
-63 19 m 0,0,-1
 -64 19 l 1,1,-1
 -65 19 l 1,2,-1
 -66 19 l 2,3,4
 -78 19 -78 19 -99 55 c 0,5,6
 -106 67 -106 67 -95 107 c 0,7,8
 -91 122 -91 122 -83.5 138 c 128,-1,9
 -76 154 -76 154 -65 173 c 0,10,11
 -43 209 -43 209 -18 246 c 0,12,13
 -15 251 -15 251 -11 256 c 128,-1,14
 -7 261 -7 261 -4 266 c 128,-1,15
 -1 271 -1 271 3 276 c 128,-1,16
 7 281 7 281 10.5 286 c 128,-1,17
 14 291 14 291 17 296 c 128,-1,18
 20 301 20 301 24 305.5 c 128,-1,19
 28 310 28 310 31 315 c 0,20,21
 39 326 39 326 45.5 335 c 128,-1,22
 52 344 52 344 57 352 c 0,23,24
 59 356 59 356 61 360 c 128,-1,25
 63 364 63 364 65 367 c 0,26,27
 130 479 130 479 188 598 c 128,-1,28
 246 717 246 717 294 838.5 c 128,-1,29
 342 960 342 960 383 1082 c 0,30,31
 421 1198 421 1198 451 1310 c 1,32,33
 421 1309 421 1309 391 1304 c 0,34,35
 373 1301 373 1301 355 1297.5 c 128,-1,36
 337 1294 337 1294 319 1290 c 0,37,38
 283 1282 283 1282 248 1276 c 0,39,40
 212 1269 212 1269 178 1269 c 0,41,42
 158 1269 158 1269 142.5 1275 c 128,-1,43
 127 1281 127 1281 117 1293 c 128,-1,44
 107 1305 107 1305 105 1321 c 128,-1,45
 103 1337 103 1337 108 1357 c 0,46,47
 120 1400 120 1400 168 1428 c 0,48,49
 213 1454 213 1454 276.5 1470 c 128,-1,50
 340 1486 340 1486 412 1494 c 0,51,52
 486 1502 486 1502 555 1505 c 0,53,54
 623 1508 623 1508 678 1508 c 2,55,-1
 759 1508 l 2,56,57
 956 1508 956 1508 1078 1483 c 0,58,59
 1093 1480 1093 1480 1107 1477 c 0,60,61
 1114 1475 1114 1475 1121 1473 c 128,-1,62
 1128 1471 1128 1471 1135 1469 c 0,63,64
 1140 1468 1140 1468 1144 1467 c 128,-1,65
 1148 1466 1148 1466 1152.5 1464.5 c 128,-1,66
 1157 1463 1157 1463 1161 1461.5 c 128,-1,67
 1165 1460 1165 1460 1169 1459 c 128,-1,68
 1173 1458 1173 1458 1176.5 1456.5 c 128,-1,69
 1180 1455 1180 1455 1184 1453 c 0,70,71
 1195 1449 1195 1449 1206 1444 c 0,72,73
 1211 1442 1211 1442 1216.5 1439.5 c 128,-1,74
 1222 1437 1222 1437 1226 1435 c 0,75,76
 1236 1430 1236 1430 1244.5 1424.5 c 128,-1,77
 1253 1419 1253 1419 1260 1414 c 0,78,79
 1276 1403 1276 1403 1288.5 1390.5 c 128,-1,80
 1301 1378 1301 1378 1311 1364.5 c 128,-1,81
 1321 1351 1321 1351 1327 1336.5 c 128,-1,82
 1333 1322 1333 1322 1337 1306 c 0,83,84
 1342 1282 1342 1282 1342 1257 c 0,85,86
 1342 1250 1342 1250 1342 1242 c 0,87,88
 1340 1209 1340 1209 1330 1172 c 0,89,90
 1322 1141 1322 1141 1306.5 1115 c 128,-1,91
 1291 1089 1291 1089 1269.5 1068 c 128,-1,92
 1248 1047 1248 1047 1223.5 1030 c 128,-1,93
 1199 1013 1199 1013 1170 999 c 0,94,95
 1114 971 1114 971 1049 952 c 0,96,97
 983 934 983 934 918 919 c 0,98,99
 897 914 897 914 876 909 c 128,-1,100
 855 904 855 904 834.5 899 c 128,-1,101
 814 894 814 894 795 889 c 0,102,103
 753 878 753 878 719 863 c 1,104,105
 762 846 762 846 808 825 c 0,106,107
 864 800 864 800 916.5 770 c 128,-1,108
 969 740 969 740 1013 703 c 0,109,110
 1035 684 1035 684 1053.5 663 c 128,-1,111
 1072 642 1072 642 1086 619 c 0,112,113
 1096 603 1096 603 1103.5 586.5 c 128,-1,114
 1111 570 1111 570 1116 552 c 0,115,116
 1117 546 1117 546 1119.5 540 c 128,-1,117
 1122 534 1122 534 1122.5 527.5 c 128,-1,118
 1123 521 1123 521 1125 515 c 0,119,120
 1128 496 1128 496 1128 476 c 0,121,122
 1128 466 1128 466 1127.5 455.5 c 128,-1,123
 1127 445 1127 445 1125 434 c 0,124,125
 1124 427 1124 427 1122.5 419.5 c 128,-1,126
 1121 412 1121 412 1119.5 404.5 c 128,-1,127
 1118 397 1118 397 1116 390 c 0,128,129
 1104 345 1104 345 1084 306 c 128,-1,130
 1064 267 1064 267 1037 235 c 0,131,132
 982 171 982 171 908 128 c 0,133,134
 871 107 871 107 831.5 89.5 c 128,-1,135
 792 72 792 72 749 60 c 0,136,137
 671 37 671 37 573 22 c 0,138,139
 485 8 485 8 403 5 c 0,140,141
 319 2 319 2 253 2 c 0,142,143
 214 2 214 2 176 3 c 0,144,145
 119 3 119 3 107 4 c 0,146,147
 75 8 75 8 31 10 c 0,148,149
 -21 13 -21 13 -63 19 c 0,0,-1
648.5 744.5 m 128,-1,151
 630 752 630 752 614 758 c 0,152,153
 608 760 608 760 600.5 762 c 128,-1,154
 593 764 593 764 584.5 766 c 128,-1,155
 576 768 576 768 567 771 c 0,156,157
 539 779 539 779 514 785 c 0,158,159
 511 786 511 786 508 786.5 c 128,-1,160
 505 787 505 787 503 788 c 128,-1,161
 501 789 501 789 498.5 789.5 c 128,-1,162
 496 790 496 790 494 790.5 c 128,-1,163
 492 791 492 791 490 792 c 0,164,165
 479 795 479 795 469 796 c 0,166,167
 462 797 462 797 458 798 c 1,168,-1
 456 795 l 1,169,170
 425 724 425 724 389 647 c 0,171,172
 353 568 353 568 313 488 c 128,-1,173
 273 408 273 408 229 330 c 0,174,175
 210 295 210 295 188.5 260 c 128,-1,176
 167 225 167 225 147 195 c 1,177,-1
 157 192 l 2,178,179
 162 192 162 192 176 191 c 0,180,181
 184 191 184 191 193 191 c 128,-1,182
 202 191 202 191 212 190 c 0,183,184
 232 190 232 190 249 189 c 0,185,186
 258 189 258 189 265 189 c 0,187,188
 269 189 269 189 272 189 c 128,-1,189
 275 189 275 189 277 189 c 0,190,191
 306 190 306 190 364 190 c 0,192,193
 392 190 392 190 423 191.5 c 128,-1,194
 454 193 454 193 489 195 c 0,195,196
 557 200 557 200 632 213 c 0,197,198
 656 217 656 217 679 222 c 128,-1,199
 702 227 702 227 725 234 c 0,200,201
 731 236 731 236 736.5 237.5 c 128,-1,202
 742 239 742 239 747 240.5 c 128,-1,203
 752 242 752 242 757.5 244 c 128,-1,204
 763 246 763 246 768 248 c 0,205,206
 784 254 784 254 798.5 260.5 c 128,-1,207
 813 267 813 267 826 275 c 0,208,209
 831 277 831 277 835 279.5 c 128,-1,210
 839 282 839 282 843.5 285 c 128,-1,211
 848 288 848 288 853 291 c 0,212,213
 859 295 859 295 864.5 299 c 128,-1,214
 870 303 870 303 875 308 c 0,215,216
 918 343 918 343 932 395 c 0,217,218
 935 406 935 406 937.5 417.5 c 128,-1,219
 940 429 940 429 939 440 c 0,220,221
 940 462 940 462 936 482 c 0,222,223
 927 524 927 524 904 561 c 0,224,225
 880 598 880 598 844 628 c 0,226,227
 807 659 807 659 767 685 c 0,228,229
 747 698 747 698 727 708.5 c 128,-1,230
 707 719 707 719 687 728 c 128,-1,150
 667 737 667 737 648.5 744.5 c 128,-1,151
717 1328 m 0,231,232
 715 1328 715 1328 713 1328 c 2,233,-1
 650 1328 l 1,234,235
 648 1321 648 1321 645.5 1313 c 128,-1,236
 643 1305 643 1305 639 1294 c 0,237,238
 629 1263 629 1263 616 1224.5 c 128,-1,239
 603 1186 603 1186 589.5 1143.5 c 128,-1,240
 576 1101 576 1101 563 1062.5 c 128,-1,241
 550 1024 550 1024 541 994 c 0,242,243
 536 979 536 979 532.5 968.5 c 128,-1,244
 529 958 529 958 526 951 c 1,245,246
 528 951 528 951 529.5 951.5 c 128,-1,247
 531 952 531 952 533 952 c 0,248,249
 536 953 536 953 540 953.5 c 128,-1,250
 544 954 544 954 548 954 c 0,251,252
 550 954 550 954 553 955 c 128,-1,253
 556 956 556 956 558 956 c 0,254,255
 575 959 575 959 595.5 963.5 c 128,-1,256
 616 968 616 968 640 974 c 0,257,258
 687 985 687 985 744.5 1001 c 128,-1,259
 802 1017 802 1017 861.5 1035.5 c 128,-1,260
 921 1054 921 1054 978 1076 c 0,261,262
 1006 1087 1006 1087 1031 1097.5 c 128,-1,263
 1056 1108 1056 1108 1078 1119 c 0,264,265
 1099 1130 1099 1130 1117 1141 c 128,-1,266
 1135 1152 1135 1152 1150 1163 c 0,267,268
 1164 1174 1164 1174 1172.5 1184.5 c 128,-1,269
 1181 1195 1181 1195 1183 1205 c 0,270,271
 1188 1222 1188 1222 1187 1235.5 c 128,-1,272
 1186 1249 1186 1249 1181 1260 c 0,273,274
 1168 1284 1168 1284 1141 1300 c 0,275,276
 1128 1308 1128 1308 1111 1314 c 128,-1,277
 1094 1320 1094 1320 1073 1324 c 0,278,279
 1030 1332 1030 1332 986 1336 c 0,280,281
 974 1337 974 1337 961.5 1337.5 c 128,-1,282
 949 1338 949 1338 937 1338.5 c 128,-1,283
 925 1339 925 1339 914 1339 c 2,284,-1
 893 1339 l 2,285,286
 889 1339 889 1339 884.5 1339 c 128,-1,287
 880 1339 880 1339 875 1339 c 0,288,289
 866 1339 866 1339 857.5 1338.5 c 128,-1,290
 849 1338 849 1338 841 1337.5 c 128,-1,291
 833 1337 833 1337 825 1336 c 0,292,293
 823 1336 823 1336 821 1336 c 128,-1,294
 819 1336 819 1336 817 1336 c 128,-1,295
 815 1336 815 1336 813 1336 c 128,-1,296
 811 1336 811 1336 809 1336 c 0,297,298
 790 1335 790 1335 773.5 1333.5 c 128,-1,299
 757 1332 757 1332 745 1331 c 0,300,301
 739 1330 739 1330 734 1329.5 c 128,-1,302
 729 1329 729 1329 724.5 1328.5 c 128,-1,303
 720 1328 720 1328 717 1328 c 0,231,232
EndSplineSet
Validated: 1025
EndChar

StartChar: C
Encoding: 67 67 38
Width: 1484
GlyphClass: 2
Flags: W
LayerCount: 2
Fore
SplineSet
1278 288 m 2,0,1
 1276 278 l 1,2,-1
 1275 274 l 2,3,4
 1241 146 1241 146 928 54 c 0,5,6
 758 4 758 4 668 -6 c 0,7,8
 536 -22 536 -22 493 -22 c 0,9,10
 151 -22 151 -22 58 266 c 0,11,12
 31 352 31 352 31 457 c 0,13,14
 31 589 31 589 74 752 c 0,15,16
 165 1093 165 1093 397 1296 c 0,17,18
 505 1393 505 1393 664 1453 c 0,19,20
 813 1509 813 1509 992 1509 c 0,21,22
 1000 1509 1000 1509 1008 1509 c 2,23,-1
 1028 1508 l 2,24,25
 1034 1508 1034 1508 1053.5 1506.5 c 128,-1,26
 1073 1505 1073 1505 1115.5 1502 c 128,-1,27
 1158 1499 1158 1499 1208 1493 c 0,28,29
 1258 1488 1258 1488 1306 1478 c 0,30,31
 1457 1448 1457 1448 1497 1406 c 0,32,33
 1501 1402 1501 1402 1505 1397 c 0,34,35
 1530 1375 1530 1375 1530 1344 c 0,36,37
 1530 1333 1530 1333 1527 1322 c 0,38,39
 1511 1261 1511 1261 1447 1240 c 0,40,41
 1429 1234 1429 1234 1410 1234 c 2,42,-1
 1382 1234 l 1,43,-1
 1382 1235 l 1,44,45
 1164 1321 1164 1321 942 1321 c 0,46,47
 807 1321 807 1321 724 1291 c 0,48,49
 477 1200 477 1200 358 992 c 0,50,51
 299 889 299 889 279 816 c 0,52,53
 278 814 278 814 278 811 c 0,54,55
 277 808 277 808 277 806 c 0,56,57
 226 614 226 614 226 517 c 0,58,59
 226 512 226 512 226 507 c 0,60,61
 229 411 229 411 240 377 c 128,-1,62
 251 343 251 343 254.5 334.5 c 128,-1,63
 258 326 258 326 262 317 c 128,-1,64
 266 308 266 308 271 300 c 128,-1,65
 276 292 276 292 281 284 c 0,66,67
 361 165 361 165 555 165 c 0,68,69
 568 165 568 165 581 165.5 c 128,-1,70
 594 166 594 166 607.5 166.5 c 128,-1,71
 621 167 621 167 634 168.5 c 128,-1,72
 647 170 647 170 660.5 171.5 c 128,-1,73
 674 173 674 173 687.5 175 c 128,-1,74
 701 177 701 177 711 178.5 c 128,-1,75
 721 180 721 180 728 181.5 c 128,-1,76
 735 183 735 183 745 185 c 0,77,78
 886 212 886 212 1038 285 c 0,79,80
 1053 293 1053 293 1074 306 c 0,81,82
 1140 347 1140 347 1164.5 357 c 128,-1,83
 1189 367 1189 367 1209 367 c 0,84,85
 1279 367 1279 367 1279 298 c 0,86,87
 1279 295 1279 295 1279 292 c 0,88,89
 1279 290 1279 290 1278 288 c 2,0,1
EndSplineSet
Validated: 1
EndChar

StartChar: D
Encoding: 68 68 39
Width: 1452
GlyphClass: 2
Flags: W
LayerCount: 2
Fore
SplineSet
-44 112 m 1,0,-1
 -43 113 l 1,1,-1
 -42 114 l 1,2,3
 64 250 64 250 149 400 c 0,4,5
 235 551 235 551 305.5 707.5 c 128,-1,6
 376 864 376 864 430 1023 c 0,7,8
 482 1176 482 1176 521 1323 c 1,9,10
 518 1323 518 1323 515.5 1322.5 c 128,-1,11
 513 1322 513 1322 510 1322 c 128,-1,12
 507 1322 507 1322 505 1322 c 0,13,14
 494 1321 494 1321 483 1319.5 c 128,-1,15
 472 1318 472 1318 461 1315 c 0,16,17
 449 1312 449 1312 437.5 1309.5 c 128,-1,18
 426 1307 426 1307 414.5 1304 c 128,-1,19
 403 1301 403 1301 390 1297 c 0,20,21
 354 1287 354 1287 318.5 1279 c 128,-1,22
 283 1271 283 1271 248 1271 c 0,23,24
 227 1271 227 1271 212 1276 c 0,25,26
 197 1282 197 1282 187 1293 c 0,27,28
 176 1306 176 1306 176 1327 c 0,29,30
 176 1341 176 1341 181 1359 c 0,31,32
 193 1403 193 1403 230 1433 c 0,33,34
 248 1447 248 1447 270 1458 c 0,35,36
 281 1464 281 1464 292 1468.5 c 128,-1,37
 303 1473 303 1473 315 1477 c 0,38,39
 339 1485 339 1485 364.5 1491 c 128,-1,40
 390 1497 390 1497 418 1500 c 0,41,42
 426 1501 426 1501 434 1502 c 128,-1,43
 442 1503 442 1503 449.5 1504 c 128,-1,44
 457 1505 457 1505 465 1506 c 128,-1,45
 473 1507 473 1507 480.5 1507.5 c 128,-1,46
 488 1508 488 1508 496 1508 c 0,47,48
 500 1508 500 1508 504 1508.5 c 128,-1,49
 508 1509 508 1509 512 1509 c 2,50,-1
 528 1510 l 2,51,52
 538 1510 538 1510 548.5 1510.5 c 128,-1,53
 559 1511 559 1511 569 1511 c 0,54,55
 589 1512 589 1512 608 1512 c 2,56,-1
 626 1512 l 2,57,58
 642 1512 642 1512 656 1512 c 128,-1,59
 670 1512 670 1512 681.5 1511.5 c 128,-1,60
 693 1511 693 1511 702 1511 c 0,61,62
 811 1511 811 1511 916 1487 c 0,63,64
 968 1475 968 1475 1017 1457.5 c 128,-1,65
 1066 1440 1066 1440 1111 1416.5 c 128,-1,66
 1156 1393 1156 1393 1196.5 1364.5 c 128,-1,67
 1237 1336 1237 1336 1273 1303 c 0,68,69
 1282 1295 1282 1295 1290.5 1286 c 128,-1,70
 1299 1277 1299 1277 1308 1268 c 0,71,72
 1324 1250 1324 1250 1338 1231 c 128,-1,73
 1352 1212 1352 1212 1363 1192 c 0,74,75
 1367 1185 1367 1185 1371.5 1178 c 128,-1,76
 1376 1171 1376 1171 1379.5 1164 c 128,-1,77
 1383 1157 1383 1157 1386 1150 c 0,78,79
 1407 1107 1407 1107 1420.5 1059.5 c 128,-1,80
 1434 1012 1434 1012 1439 960 c 0,81,82
 1441 935 1441 935 1441 911 c 0,83,84
 1440 884 1440 884 1438 854 c 0,85,86
 1432 798 1432 798 1417 739 c 0,87,88
 1404 692 1404 692 1387.5 648.5 c 128,-1,89
 1371 605 1371 605 1349.5 564.5 c 128,-1,90
 1328 524 1328 524 1303 487 c 0,91,92
 1227 376 1227 376 1125 294 c 0,93,94
 1074 252 1074 252 1015 217 c 0,95,96
 958 182 958 182 894 154 c 0,97,98
 768 97 768 97 630 62 c 0,99,100
 491 27 491 27 346 13 c 0,101,102
 228 1 228 1 112 1 c 0,103,104
 104 1 104 1 95.5 1 c 128,-1,105
 87 1 87 1 79 1 c 0,106,107
 76 1 76 1 72 1.5 c 128,-1,108
 68 2 68 2 66 2 c 0,109,110
 57 -1 57 -1 50.5 -2 c 128,-1,111
 44 -3 44 -3 39 -3 c 0,112,113
 37 -3 37 -3 34 -3.5 c 128,-1,114
 31 -4 31 -4 28 -4 c 128,-1,115
 25 -4 25 -4 22 -4 c 128,-1,116
 19 -4 19 -4 16 -4 c 0,117,118
 6 -4 6 -4 -3 -2.5 c 128,-1,119
 -12 -1 -12 -1 -19 2 c 0,120,121
 -34 8 -34 8 -43 21 c 0,122,123
 -46 25 -46 25 -48.5 29.5 c 128,-1,124
 -51 34 -51 34 -52.5 39 c 128,-1,125
 -54 44 -54 44 -55 50 c 0,126,127
 -57 66 -57 66 -51 86 c 2,128,-1
 -45 109 l 1,129,-1
 -45 110 l 1,130,-1
 -44 112 l 1,0,-1
721 1323 m 1,131,132
 649 1055 649 1055 476 649 c 1,133,134
 374 424 374 424 231 200 c 1,135,-1
 235 200 l 1,136,137
 273 198 273 198 326.5 198 c 128,-1,138
 380 198 380 198 433.5 203.5 c 128,-1,139
 487 209 487 209 523 214 c 0,140,141
 705 242 705 242 827 302.5 c 128,-1,142
 949 363 949 363 1024 426 c 0,143,144
 1181 557 1181 557 1231 742 c 0,145,146
 1248 803 1248 803 1248 861 c 0,147,148
 1248 964 1248 964 1195 1056 c 0,149,150
 1188 1068 1188 1068 1181 1080.5 c 128,-1,151
 1174 1093 1174 1093 1166 1104 c 0,152,153
 1090 1208 1090 1208 987 1260 c 0,154,155
 979 1264 979 1264 970 1268 c 0,156,157
 855 1323 855 1323 737 1323 c 2,158,-1
 721 1323 l 1,131,132
EndSplineSet
Validated: 1
EndChar

StartChar: E
Encoding: 69 69 40
Width: 1154
GlyphClass: 2
Flags: W
LayerCount: 2
Fore
SplineSet
148 187 m 1,0,1
 176 180 176 180 270 180 c 0,2,3
 363 180 363 180 431 184 c 0,4,5
 554 191 554 191 565 192 c 0,6,7
 778 207 778 207 830 207 c 0,8,9
 842 207 842 207 846 206 c 0,10,11
 887 198 887 198 896 181 c 0,12,13
 907 161 907 161 907 139 c 0,14,15
 907 126 907 126 903 112 c 0,16,17
 893 76 893 76 865 51 c 0,18,19
 838 27 838 27 797 24 c 2,20,-1
 498 3 l 1,21,-1
 489 2 l 1,22,-1
 -8 2 l 2,23,24
 -89 2 -89 2 -105 61 c 0,25,26
 -110 80 -110 80 -103 105 c 2,27,-1
 -96 130 l 1,28,29
 27 284 27 284 155 585 c 0,30,31
 209 711 209 711 211 718 c 0,32,33
 236 773 236 773 246 798 c 0,34,35
 401 1195 401 1195 464 1431 c 2,36,-1
 465 1432 l 1,37,38
 504 1502 504 1502 586 1502 c 1,39,-1
 906 1496 l 1,40,-1
 1266 1506 l 1,41,42
 1342 1506 1342 1506 1342 1450 c 0,43,44
 1342 1438 1342 1438 1339 1429 c 0,45,46
 1327 1383 1327 1383 1299 1364 c 0,47,48
 1253 1332 1253 1332 1222 1323 c 0,49,50
 1185 1312 1185 1312 1174 1311 c 0,51,52
 1108 1302 1108 1302 1062 1302 c 2,53,-1
 1047 1302 l 1,54,-1
 1040 1302 l 2,55,56
 1012 1302 1012 1302 1001 1303 c 2,57,-1
 844 1310 l 1,58,-1
 619 1316 l 1,59,-1
 464 863 l 1,60,-1
 463 857 l 1,61,62
 528 857 528 857 598 865 c 0,63,64
 655 871 655 871 708 875 c 0,65,66
 784 880 784 880 791 880 c 0,67,68
 815 880 815 880 823 879 c 0,69,70
 903 870 903 870 903 815 c 0,71,72
 903 803 903 803 899 789 c 0,73,74
 882 726 882 726 813 706 c 0,75,76
 792 700 792 700 774 699 c 2,77,-1
 398 671 l 1,78,-1
 381 668 l 1,79,80
 354 610 354 610 329 549 c 0,81,82
 277 421 277 421 223 316 c 0,83,84
 183 239 183 239 148 187 c 1,0,1
EndSplineSet
Validated: 1
EndChar

StartChar: F
Encoding: 70 70 41
Width: 1138
GlyphClass: 2
Flags: W
LayerCount: 2
Fore
SplineSet
921 1300 m 1,0,1
 814 1305 l 1,2,3
 792 1305 792 1305 628 1310 c 1,4,-1
 587 1311 l 1,5,-1
 568 1311 l 1,6,-1
 413 858 l 1,7,8
 461 858 461 858 509 858 c 1,9,-1
 522 859 l 1,10,11
 535 859 535 859 548 859 c 2,12,-1
 726 869 l 1,13,-1
 744 869 l 2,14,15
 822 869 822 869 822 811 c 0,16,17
 822 797 822 797 817 779 c 0,18,19
 800 714 800 714 716 691 c 0,20,21
 684 682 684 682 642 680 c 0,22,23
 603 679 603 679 594.5 678.5 c 128,-1,24
 586 678 586 678 579 678 c 2,25,-1
 539 677 l 1,26,-1
 516 677 l 1,27,-1
 406 674 l 1,28,-1
 359 673 l 2,29,30
 347 673 347 673 338 672 c 1,31,32
 333 660 333 660 315.5 626 c 128,-1,33
 298 592 298 592 277 550.5 c 128,-1,34
 256 509 256 509 247.5 493.5 c 128,-1,35
 239 478 239 478 233.5 467 c 128,-1,36
 228 456 228 456 225 450.5 c 128,-1,37
 222 445 222 445 220.5 441.5 c 128,-1,38
 219 438 219 438 213 429 c 0,39,40
 209 420 209 420 203 409 c 0,41,42
 194 389 194 389 188 380 c 0,43,44
 177 362 177 362 148 278 c 0,45,46
 118 193 118 193 106 169 c 2,47,-1
 90 137 l 2,48,49
 26 2 26 2 -58 2 c 0,50,51
 -96 2 -96 2 -114 25 c 0,52,53
 -125 39 -125 39 -126 60 c 0,54,55
 -126 74 -126 74 -121 90 c 2,56,-1
 -115 114 l 1,57,-1
 -114 115 l 1,58,-1
 -113 116 l 1,59,60
 -6 252 -6 252 100 548 c 0,61,62
 128 626 128 626 160 702 c 0,63,64
 197 792 197 792 204 810 c 0,65,66
 339 1147 339 1147 415 1428 c 2,67,-1
 416 1430 l 1,68,69
 455 1499 455 1499 537 1499 c 1,70,-1
 889 1493 l 1,71,-1
 904 1493 l 1,72,-1
 938 1494 l 2,73,74
 964 1495 964 1495 1007.5 1496.5 c 128,-1,75
 1051 1498 1051 1498 1111.5 1501.5 c 128,-1,76
 1172 1505 1172 1505 1214.5 1506.5 c 128,-1,77
 1257 1508 1257 1508 1283 1509 c 128,-1,78
 1309 1510 1309 1510 1323 1510 c 0,79,80
 1365 1510 1365 1510 1389 1488 c 0,81,82
 1405 1473 1405 1473 1405 1449 c 0,83,84
 1405 1438 1405 1438 1402 1425 c 0,85,86
 1367 1296 1367 1296 1061 1296 c 2,87,-1
 1035 1296 l 1,88,-1
 921 1300 l 1,0,1
EndSplineSet
Validated: 1
EndChar

StartChar: G
Encoding: 71 71 42
Width: 1369
GlyphClass: 2
Flags: W
LayerCount: 2
Fore
SplineSet
955 111 m 1,0,1
 695 -26 695 -26 378.5 -26 c 128,-1,2
 62 -26 62 -26 7 228 c 0,3,4
 -6 288 -6 288 -6 365 c 0,5,6
 -6 546 -6 546 67 819 c 0,7,8
 218 1381 218 1381 827 1497 c 0,9,10
 917 1514 917 1514 958.5 1514 c 128,-1,11
 1000 1514 1000 1514 1029 1512 c 0,12,13
 1339 1490 1339 1490 1414 1374 c 0,14,15
 1429 1350 1429 1350 1429 1323 c 0,16,17
 1429 1310 1429 1310 1425 1294 c 0,18,19
 1413 1250 1413 1250 1381.5 1225.5 c 128,-1,20
 1350 1201 1350 1201 1313 1201 c 2,21,-1
 1286 1201 l 1,22,23
 1226 1227 1226 1227 1194 1245 c 0,24,25
 1057 1322 1057 1322 959 1322 c 2,26,-1
 946 1322 l 2,27,28
 821 1322 821 1322 701 1284 c 0,29,30
 335 1168 335 1168 241 819 c 0,31,32
 184 605 184 605 174 510 c 0,33,34
 170 468 170 468 170 432 c 0,35,36
 170 276 170 276 246 217 c 0,37,38
 312 166 312 166 414 166 c 128,-1,39
 516 166 516 166 758 231 c 128,-1,40
 1000 296 1000 296 1017 358 c 2,41,-1
 1094 646 l 1,42,43
 883 668 883 668 839.5 677 c 128,-1,44
 796 686 796 686 773 703 c 0,45,46
 741 725 741 725 741 766 c 0,47,48
 741 774 741 774 742 783 c 0,49,50
 744 794 744 794 747 801 c 0,51,52
 776 863 776 863 831 881 c 0,53,54
 843 885 843 885 856 885 c 2,55,-1
 863 885 l 1,56,-1
 972 861 l 1,57,-1
 1110 849 l 2,58,59
 1256 836 1256 836 1265 830 c 0,60,61
 1278 823 1278 823 1280 821 c 0,62,63
 1306 786 1306 786 1300 768 c 2,64,-1
 1124 108 l 2,65,66
 1111 58 1111 58 1040 41 c 0,67,68
 1030 39 1030 39 1023 39 c 0,69,70
 967 39 967 39 955 111 c 1,0,1
EndSplineSet
Validated: 1
EndChar

StartChar: H
Encoding: 72 72 43
Width: 1405
GlyphClass: 2
Flags: W
LayerCount: 2
Fore
SplineSet
381 666 m 1,0,-1
 377 654 l 1,1,-1
 373 644 l 2,2,3
 371 636 371 636 363 611 c 128,-1,4
 355 586 355 586 339 534 c 0,5,6
 234 192 234 192 149 101 c 0,7,8
 146 98 146 98 143 94 c 0,9,10
 141 90 141 90 138 87 c 2,11,-1
 117 65 l 2,12,13
 114 63 114 63 114 62 c 0,14,15
 52 3 52 3 -13 3 c 0,16,17
 -48 3 -48 3 -55 11 c 0,18,19
 -70 29 -70 29 -70 58 c 0,20,21
 -70 75 -70 75 -65 95 c 2,22,-1
 -63 102 l 1,23,-1
 -58 117 l 1,24,25
 -50 147 -50 147 -12 204 c 0,26,27
 25 260 25 260 30 269.5 c 128,-1,28
 35 279 35 279 37.5 282.5 c 128,-1,29
 40 286 40 286 42 289.5 c 128,-1,30
 44 293 44 293 45.5 296 c 128,-1,31
 47 299 47 299 49 302.5 c 128,-1,32
 51 306 51 306 51 309 c 0,33,34
 147 512 147 512 231 792 c 1,35,-1
 250 856 l 1,36,-1
 263 895 l 2,37,38
 271 922 271 922 280 949 c 2,39,-1
 438 1433 l 1,40,41
 447 1465 447 1465 482 1485 c 0,42,43
 484 1486 484 1486 485 1487 c 128,-1,44
 486 1488 486 1488 488 1488 c 0,45,46
 488 1489 488 1489 495 1492 c 0,47,48
 529 1507 529 1507 558 1507 c 0,49,50
 590 1507 590 1507 601.5 1499 c 128,-1,51
 613 1491 613 1491 615.5 1489.5 c 128,-1,52
 618 1488 618 1488 620 1486 c 128,-1,53
 622 1484 622 1484 623.5 1482.5 c 128,-1,54
 625 1481 625 1481 626 1480 c 0,55,56
 635 1468 635 1468 642 1436 c 1,57,-1
 614 1330 l 2,58,59
 560 1127 560 1127 522.5 1031 c 128,-1,60
 485 935 485 935 483.5 930 c 128,-1,61
 482 925 482 925 480 920 c 128,-1,62
 478 915 478 915 476 910 c 128,-1,63
 474 905 474 905 472 899.5 c 128,-1,64
 470 894 470 894 468 889 c 128,-1,65
 466 884 466 884 464 878.5 c 128,-1,66
 462 873 462 873 459 868 c 1,67,-1
 457 861 l 1,68,69
 477 861 477 861 497 861 c 2,70,-1
 911 871 l 1,71,-1
 939 872 l 1,72,-1
 1085 872 l 1,73,-1
 1097 900 l 1,74,-1
 1097 902 l 1,75,-1
 1100 908 l 1,76,-1
 1101 912 l 1,77,-1
 1185 1152 l 1,78,-1
 1193 1172 l 1,79,-1
 1196 1185 l 1,80,-1
 1198 1187 l 1,81,-1
 1200 1197 l 1,82,-1
 1206 1213 l 1,83,-1
 1213 1237 l 1,84,-1
 1232 1300 l 2,85,86
 1252 1366 1252 1366 1256 1382 c 2,87,-1
 1262 1403 l 1,88,-1
 1266 1414 l 2,89,90
 1267 1418 1267 1418 1270 1423.5 c 128,-1,91
 1273 1429 1273 1429 1275 1434 c 0,92,93
 1278 1440 1278 1440 1281 1444 c 0,94,95
 1330 1507 1330 1507 1397 1507 c 0,96,97
 1470.05194805 1507 1470.05194805 1507 1470.05194805 1428.25569236 c 0,98,99
 1470.05194805 1426.15584416 1470.05194805 1426.15584416 1470 1424 c 1,100,-1
 1471 1424 l 1,101,-1
 1445 1325 l 1,102,-1
 1441 1313 l 2,103,104
 1440 1310 1440 1310 1439 1307 c 2,105,-1
 1430 1277 l 1,106,107
 1388 1142 1388 1142 1347.5 1027 c 128,-1,108
 1307 912 1307 912 1300.5 892.5 c 128,-1,109
 1294 873 1294 873 1291.5 865.5 c 128,-1,110
 1289 858 1289 858 1285 850 c 0,111,112
 1279 836 1279 836 1279 835 c 0,113,114
 1272 810 1272 810 1203 631 c 0,115,116
 958 3 958 3 827 3 c 0,117,118
 782 3 782 3 756 28 c 0,119,120
 736 46 736 46 736 70 c 0,121,122
 736 78 736 78 738 88 c 0,123,124
 748 124 748 124 767 171.5 c 128,-1,125
 786 219 786 219 812 277 c 128,-1,126
 838 335 838 335 867.5 400 c 128,-1,127
 897 465 897 465 925.5 524.5 c 128,-1,128
 954 584 954 584 966.5 609.5 c 128,-1,129
 979 635 979 635 980.5 641 c 128,-1,130
 982 647 982 647 1003 687 c 1,131,132
 992 687 992 687 982 687 c 2,133,-1
 948 686 l 2,134,135
 897 685 897 685 831 683 c 128,-1,136
 765 681 765 681 693.5 679.5 c 128,-1,137
 622 678 622 678 556.5 676 c 128,-1,138
 491 674 491 674 456 673.5 c 128,-1,139
 421 673 421 673 408 672 c 0,140,141
 394 672 394 672 383 672 c 1,142,-1
 381 666 l 1,0,-1
EndSplineSet
Validated: 1
EndChar

StartChar: I
Encoding: 73 73 44
Width: 897
GlyphClass: 2
Flags: W
LayerCount: 2
Fore
SplineSet
369.5 1432 m 128,-1,1
 374 1441 374 1441 377 1447.5 c 128,-1,2
 380 1454 380 1454 391 1469 c 0,3,4
 403 1483 403 1483 411 1488.5 c 128,-1,5
 419 1494 419 1494 428.5 1500 c 128,-1,6
 438 1506 438 1506 454 1506 c 2,7,-1
 504 1506 l 2,8,9
 629 1506 629 1506 788 1499 c 2,10,-1
 992 1490 l 1,11,-1
 994 1490 l 1,12,-1
 995 1489 l 1,13,14
 1034 1475 1034 1475 1034 1439 c 0,15,16
 1034 1428 1034 1428 1031 1416 c 1,17,-1
 1030 1405 l 1,18,-1
 1028 1400 l 1,19,-1
 1025 1392 l 2,20,21
 1024 1389 1024 1389 1023 1387 c 128,-1,22
 1022 1385 1022 1385 1021 1382.5 c 128,-1,23
 1020 1380 1020 1380 1012 1367 c 0,24,25
 1003 1353 1003 1353 992 1345.5 c 128,-1,26
 981 1338 981 1338 972 1332 c 0,27,28
 964 1325 964 1325 940 1325 c 2,29,-1
 757 1325 l 1,30,-1
 524 634 l 1,31,-1
 334 190 l 1,32,-1
 333 188 l 1,33,34
 332 188 332 188 334 186 c 1,35,-1
 334 185 l 1,36,37
 342 182 342 182 362 182 c 2,38,-1
 390 182 l 1,39,-1
 464 184 l 2,40,41
 490 185 490 185 502 186 c 128,-1,42
 514 187 514 187 515 187 c 0,43,44
 544 184 544 184 549.5 161 c 128,-1,45
 555 138 555 138 554.5 135 c 128,-1,46
 554 132 554 132 555 124.5 c 128,-1,47
 556 117 556 117 552 99 c 0,48,49
 532 24 532 24 461 5 c 1,50,-1
 458 5 l 1,51,-1
 332 -5 l 1,52,53
 271 -6 271 -6 225 -6 c 2,54,-1
 195 -6 l 2,55,56
 79 -6 79 -6 2 0 c 128,-1,57
 -75 6 -75 6 -82 10 c 0,58,59
 -104 22 -104 22 -112 55 c 128,-1,60
 -120 88 -120 88 -115 108 c 0,61,62
 -110 127 -110 127 -101 142 c 0,63,64
 -68 201 -68 201 -24 201 c 2,65,-1
 137 201 l 1,66,-1
 282 520 l 1,67,-1
 555 1321 l 1,68,-1
 411 1331 l 1,69,70
 370 1336 370 1336 362 1384 c 0,71,72
 359 1400 359 1400 362 1411 c 0,73,0
 365 1423 365 1423 369.5 1432 c 128,-1,1
EndSplineSet
Validated: 1
EndChar

StartChar: J
Encoding: 74 74 45
Width: 984
GlyphClass: 2
Flags: W
LayerCount: 2
Fore
SplineSet
-95.5 229 m 128,-1,1
 -98 239 -98 239 -100 249 c 0,2,3
 -103 266 -103 266 -103 284 c 0,4,5
 -103 308 -103 308 -97 331 c 0,6,7
 -86 373 -86 373 -55 394 c 0,8,9
 -25 415 -25 415 15 415 c 0,10,11
 33 415 33 415 47 410 c 0,12,13
 51 408 51 408 56.5 406 c 128,-1,14
 62 404 62 404 65.5 401 c 128,-1,15
 69 398 69 398 73 395 c 0,16,17
 94 376 94 376 109 348 c 0,18,19
 114 339 114 339 118.5 329.5 c 128,-1,20
 123 320 123 320 127.5 309.5 c 128,-1,21
 132 299 132 299 135 288 c 0,22,23
 147 257 147 257 163 230 c 0,24,25
 164 228 164 228 165.5 226 c 128,-1,26
 167 224 167 224 168 222 c 128,-1,27
 169 220 169 220 170.5 218 c 128,-1,28
 172 216 172 216 174 214 c 0,29,30
 180 206 180 206 186.5 199.5 c 128,-1,31
 193 193 193 193 201 187 c 0,32,33
 223 171 223 171 257 171 c 0,34,35
 284 171 284 171 307.5 178 c 128,-1,36
 331 185 331 185 352 199 c 0,37,38
 395 228 395 228 428 274 c 0,39,40
 445 297 445 297 460 323.5 c 128,-1,41
 475 350 475 350 488 379 c 0,42,43
 515 437 515 437 533 494 c 0,44,45
 537 506 537 506 541 518 c 0,46,47
 543 524 543 524 545 529.5 c 128,-1,48
 547 535 547 535 548 541 c 0,49,50
 551 552 551 552 554 563 c 0,51,52
 557 573 557 573 561 584 c 2,53,-1
 562 592 l 2,54,55
 563 594 563 594 563.5 596 c 128,-1,56
 564 598 564 598 564 600 c 2,57,-1
 585 677 l 1,58,-1
 756 1314 l 2,59,60
 754 1314 754 1314 752 1314.5 c 128,-1,61
 750 1315 750 1315 747 1315 c 128,-1,62
 744 1315 744 1315 741 1315 c 0,63,64
 737 1315 737 1315 733 1315 c 128,-1,65
 729 1315 729 1315 724 1315 c 128,-1,66
 719 1315 719 1315 714 1315 c 128,-1,67
 709 1315 709 1315 703.5 1314.5 c 128,-1,68
 698 1314 698 1314 692.5 1314 c 128,-1,69
 687 1314 687 1314 680 1314 c 2,70,-1
 641 1314 l 1,71,-1
 599 1314 l 2,72,73
 555 1315 555 1315 519 1324 c 0,74,75
 481 1334 481 1334 462 1355 c 0,76,77
 446 1371 446 1371 446 1396 c 0,78,79
 446 1408 446 1408 450 1421 c 0,80,-1
 450 1422 l 0,81,82
 461 1464 461 1464 497.5 1487 c 128,-1,83
 534 1510 534 1510 575 1510 c 0,84,85
 702 1510 702 1510 832 1504 c 0,86,87
 959 1498 959 1498 1079 1493 c 2,88,-1
 1081 1493 l 1,89,90
 1113 1483 1113 1483 1124.5 1460 c 128,-1,91
 1136 1437 1136 1437 1127 1401 c 0,92,93
 1124 1389 1124 1389 1117 1375 c 0,94,95
 1115 1371 1115 1371 1113 1367.5 c 128,-1,96
 1111 1364 1111 1364 1108.5 1361 c 128,-1,97
 1106 1358 1106 1358 1104 1354.5 c 128,-1,98
 1102 1351 1102 1351 1100 1348 c 0,99,100
 1090 1335 1090 1335 1075 1325 c 128,-1,101
 1060 1315 1060 1315 1044 1314 c 2,102,-1
 948 1304 l 1,103,-1
 722 502 l 2,104,105
 706 446 706 446 682 387 c 0,106,107
 674 367 674 367 666 348 c 128,-1,108
 658 329 658 329 647 309 c 0,109,110
 642 299 642 299 637.5 290 c 128,-1,111
 633 281 633 281 627 271 c 0,112,113
 611 242 611 242 593 215 c 128,-1,114
 575 188 575 188 554 163 c 0,115,116
 533 137 533 137 509 114 c 128,-1,117
 485 91 485 91 460 72 c 0,118,119
 408 33 408 33 345 10 c 0,120,121
 314 -1 314 -1 280.5 -7 c 128,-1,122
 247 -13 247 -13 211 -13 c 0,123,124
 171 -13 171 -13 128 1 c 0,125,126
 107 8 107 8 86.5 18 c 128,-1,127
 66 28 66 28 48 41 c 0,128,129
 12 66 12 66 -19 99 c 128,-1,130
 -50 132 -50 132 -71 170 c 0,131,132
 -82 189 -82 189 -89 209 c 0,133,0
 -93 219 -93 219 -95.5 229 c 128,-1,1
EndSplineSet
Validated: 1
EndChar

StartChar: K
Encoding: 75 75 46
Width: 1285
GlyphClass: 2
Flags: W
LayerCount: 2
Fore
SplineSet
-89 122 m 1,0,-1
 6 287 l 1,1,-1
 165 623 l 2,2,3
 166 625 166 625 167 628 c 128,-1,4
 168 631 168 631 169.5 635.5 c 128,-1,5
 171 640 171 640 174 646 c 128,-1,6
 177 652 177 652 180 659 c 0,7,8
 191 688 191 688 206 729.5 c 128,-1,9
 221 771 221 771 239 819.5 c 128,-1,10
 257 868 257 868 274 915.5 c 128,-1,11
 291 963 291 963 306 1003.5 c 128,-1,12
 321 1044 321 1044 330 1070 c 0,13,14
 331 1073 331 1073 332.5 1077.5 c 128,-1,15
 334 1082 334 1082 335 1087 c 0,16,17
 336 1090 336 1090 337.5 1094 c 128,-1,18
 339 1098 339 1098 340.5 1102.5 c 128,-1,19
 342 1107 342 1107 343 1111 c 0,20,21
 347 1125 347 1125 352 1141 c 128,-1,22
 357 1157 357 1157 362 1174 c 0,23,24
 372 1209 372 1209 384 1248.5 c 128,-1,25
 396 1288 396 1288 406.5 1323 c 128,-1,26
 417 1358 417 1358 425 1386 c 0,27,28
 429 1400 429 1400 432 1410.5 c 128,-1,29
 435 1421 435 1421 437 1428 c 2,30,-1
 437 1429 l 1,31,-1
 437 1430 l 2,32,33
 454 1462 454 1462 480 1483 c 0,34,35
 494 1494 494 1494 510 1500 c 128,-1,36
 526 1506 526 1506 544 1506 c 0,37,38
 549 1506 549 1506 553.5 1505.5 c 128,-1,39
 558 1505 558 1505 562 1505 c 0,40,41
 570 1504 570 1504 577 1502 c 2,42,-1
 590 1496 l 2,43,44
 607 1486 607 1486 615 1470 c 0,45,46
 617 1466 617 1466 618.5 1461.5 c 128,-1,47
 620 1457 620 1457 621 1452 c 128,-1,48
 622 1447 622 1447 622 1442 c 128,-1,49
 622 1437 622 1437 622 1432 c 0,50,51
 621 1430 621 1430 621 1427.5 c 128,-1,52
 621 1425 621 1425 621 1423 c 128,-1,53
 621 1421 621 1421 621 1419 c 128,-1,54
 621 1417 621 1417 620.5 1415 c 128,-1,55
 620 1413 620 1413 619 1410 c 0,56,57
 617 1399 617 1399 614 1388 c 0,58,59
 602 1345 602 1345 586 1290 c 128,-1,60
 570 1235 570 1235 554.5 1182.5 c 128,-1,61
 539 1130 539 1130 525 1086 c 0,62,63
 518 1063 518 1063 512 1046 c 1,64,65
 693 1166 693 1166 879 1269 c 0,66,67
 1075 1378 1075 1378 1275 1475 c 0,68,69
 1280 1478 1280 1478 1283.5 1480.5 c 128,-1,70
 1287 1483 1287 1483 1291 1485 c 128,-1,71
 1295 1487 1295 1487 1298.5 1488.5 c 128,-1,72
 1302 1490 1302 1490 1305 1490.5 c 128,-1,73
 1308 1491 1308 1491 1312 1492 c 0,74,75
 1326 1494 1326 1494 1346 1494 c 128,-1,76
 1366 1494 1366 1494 1381 1488 c 128,-1,77
 1396 1482 1396 1482 1406 1470 c 0,78,79
 1413 1462 1413 1462 1415.5 1452 c 128,-1,80
 1418 1442 1418 1442 1418 1430 c 128,-1,81
 1418 1418 1418 1418 1414 1405 c 0,82,83
 1414 1404 1414 1404 1413.5 1402.5 c 128,-1,84
 1413 1401 1413 1401 1413 1399 c 0,85,86
 1412 1396 1412 1396 1410.5 1393 c 128,-1,87
 1409 1390 1409 1390 1408 1387 c 128,-1,88
 1407 1384 1407 1384 1405 1380.5 c 128,-1,89
 1403 1377 1403 1377 1401 1374 c 0,90,91
 1400 1372 1400 1372 1399.5 1370.5 c 128,-1,92
 1399 1369 1399 1369 1397 1367 c 0,93,94
 1393 1360 1393 1360 1387.5 1353.5 c 128,-1,95
 1382 1347 1382 1347 1375.5 1342 c 128,-1,96
 1369 1337 1369 1337 1362 1333 c 2,97,-1
 885 1079 l 1,98,-1
 555 874 l 1,99,-1
 554 874 l 1,100,-1
 554 873 l 2,101,102
 547 870 547 870 547 868 c 0,103,104
 547 862 547 862 563 847 c 0,105,106
 582 829 582 829 610 807 c 128,-1,107
 638 785 638 785 643 780 c 0,108,109
 697 728 697 728 748.5 668 c 128,-1,110
 800 608 800 608 846 541 c 0,111,112
 861 518 861 518 874.5 495 c 128,-1,113
 888 472 888 472 899.5 448 c 128,-1,114
 911 424 911 424 920 400 c 0,115,116
 948 327 948 327 956 248 c 0,117,118
 959 225 959 225 959 202 c 0,119,120
 960 186 960 186 958 169 c 0,121,122
 954 129 954 129 943 89 c 0,123,124
 938 69 938 69 926 53 c 0,125,126
 923 48 923 48 918 42.5 c 128,-1,127
 913 37 913 37 908 33 c 128,-1,128
 903 29 903 29 897 25 c 0,129,130
 880 14 880 14 862 8 c 0,131,132
 853 5 853 5 844.5 3.5 c 128,-1,133
 836 2 836 2 827 2 c 128,-1,134
 818 2 818 2 810.5 9.5 c 128,-1,135
 803 17 803 17 795 32 c 0,136,137
 787 45 787 45 779 63 c 0,138,139
 774 72 774 72 770 82 c 128,-1,140
 766 92 766 92 761 103 c 0,141,142
 742 147 742 147 719 204.5 c 128,-1,143
 696 262 696 262 669 324.5 c 128,-1,144
 642 387 642 387 610.5 449.5 c 128,-1,145
 579 512 579 512 543 565 c 0,146,147
 534 578 534 578 525.5 591 c 128,-1,148
 517 604 517 604 507.5 615.5 c 128,-1,149
 498 627 498 627 488.5 638 c 128,-1,150
 479 649 479 649 469 659 c 0,151,152
 452 677 452 677 433.5 691 c 128,-1,153
 415 705 415 705 395 714 c 1,154,-1
 392 709 l 2,155,156
 387 696 387 696 376 673 c 0,157,158
 365 648 365 648 352 617 c 128,-1,159
 339 586 339 586 324 552 c 128,-1,160
 309 518 309 518 296 488 c 0,161,162
 293 480 293 480 289.5 473 c 128,-1,163
 286 466 286 466 283 459 c 0,164,165
 281 456 281 456 279.5 452.5 c 128,-1,166
 278 449 278 449 276.5 445.5 c 128,-1,167
 275 442 275 442 274 439 c 128,-1,168
 273 436 273 436 271 433 c 0,169,170
 260 409 260 409 254 397 c 0,171,-1
 254 397 l 2,172,173
 246 381 246 381 233 346 c 0,174,175
 219 311 219 311 200 268.5 c 128,-1,176
 181 226 181 226 156 181 c 0,177,178
 132 135 132 135 105 97 c 0,179,180
 77 59 77 59 43 34 c 0,181,182
 26 21 26 21 7 15 c 0,183,184
 -2 12 -2 12 -11.5 10 c 128,-1,185
 -21 8 -21 8 -30 8 c 0,186,187
 -35 8 -35 8 -40 8.5 c 128,-1,188
 -45 9 -45 9 -49 10 c 0,189,190
 -57 12 -57 12 -65 15 c 128,-1,191
 -73 18 -73 18 -79 24 c 0,192,193
 -82 27 -82 27 -84.5 29.5 c 128,-1,194
 -87 32 -87 32 -89 36 c 0,195,196
 -98 52 -98 52 -98 73 c 0,197,198
 -98 87 -98 87 -94 103 c 2,199,-1
 -90 120 l 1,200,-1
 -89 122 l 1,0,-1
EndSplineSet
Validated: 1
EndChar

StartChar: L
Encoding: 76 76 47
Width: 1134
GlyphClass: 2
Flags: W
LayerCount: 2
Fore
SplineSet
439 15 m 2,0,1
 368 15 368 15 325 16 c 2,2,-1
 282 16 l 2,3,4
 272 17 272 17 256 17 c 2,5,-1
 220 17 l 1,6,7
 197 16 197 16 150 16 c 0,8,9
 104 16 104 16 -82 3 c 1,10,-1
 -98 3 l 2,11,12
 -139 3 -139 3 -145 23 c 0,13,14
 -151 42 -151 42 -141.5 78 c 128,-1,15
 -132 114 -132 114 -113 152 c 0,16,17
 -81 216 -81 216 -41 279 c 0,18,19
 -12 325 -12 325 23 384 c 0,20,21
 45 423 45 423 89 507 c 0,22,23
 231 775 231 775 290 960 c 2,24,-1
 432 1407 l 2,25,26
 452 1468 452 1468 508 1492 c 0,27,28
 527 1500 527 1500 545.5 1500 c 128,-1,29
 564 1500 564 1500 574 1496 c 0,30,31
 627 1477 627 1477 627 1439 c 0,32,33
 627 1431 627 1431 625 1423 c 2,34,-1
 584 1270 l 1,35,-1
 432 835 l 2,36,37
 321 519 321 519 116 198 c 1,38,39
 215 212 215 212 307 212 c 2,40,-1
 340 212 l 1,41,-1
 505 210 l 2,42,43
 531 210 531 210 576 211 c 1,44,-1
 614 211 l 1,45,46
 643 210 643 210 686 209 c 0,47,48
 956 203 956 203 956 109 c 0,49,50
 956 99 956 99 953 89 c 0,51,52
 933 16 933 16 851 16 c 2,53,-1
 439 15 l 2,0,1
EndSplineSet
Validated: 1
EndChar

StartChar: M
Encoding: 77 77 48
Width: 1766
GlyphClass: 2
Flags: W
LayerCount: 2
Fore
SplineSet
1352 299 m 1,0,1
 1272 2 1272 2 1146 2 c 0,2,3
 1108 2 1108 2 1098 12 c 0,4,5
 1083 29 1083 29 1081.5 29.5 c 128,-1,6
 1080 30 1080 30 1079 32 c 128,-1,7
 1078 34 1078 34 1073 42 c 0,8,9
 1068 49 1068 49 1072 64 c 2,10,-1
 1089 128 l 1,11,-1
 1204 427 l 1,12,13
 1225 485 1225 485 1246.5 557.5 c 128,-1,14
 1268 630 1268 630 1282.5 676 c 128,-1,15
 1297 722 1297 722 1315.5 782.5 c 128,-1,16
 1334 843 1334 843 1350.5 897.5 c 128,-1,17
 1367 952 1367 952 1377 988 c 1,18,-1
 1433 1197 l 1,19,-1
 962 786 l 1,20,21
 943 771 943 771 940 768 c 0,22,23
 892 725 892 725 840 725 c 0,24,25
 816 725 816 725 805 731.5 c 128,-1,26
 794 738 794 738 793 738.5 c 128,-1,27
 792 739 792 739 791 739.5 c 128,-1,28
 790 740 790 740 787 742 c 0,29,30
 780 747 780 747 779 752.5 c 128,-1,31
 778 758 778 758 776.5 761 c 128,-1,32
 775 764 775 764 772.5 771.5 c 128,-1,33
 770 779 770 779 764.5 794.5 c 128,-1,34
 759 810 759 810 750 835.5 c 128,-1,35
 741 861 741 861 731 889.5 c 128,-1,36
 721 918 721 918 712 943 c 0,37,38
 701 975 701 975 696 988 c 2,39,-1
 686 1017 l 2,40,41
 675 1049 675 1049 658 1082 c 0,42,43
 633 1130 633 1130 628 1142 c 0,44,45
 619 1164 619 1164 618 1164 c 0,46,47
 617 1166 617 1166 615 1169 c 2,48,-1
 409 608 l 1,49,-1
 409 607 l 1,50,51
 407 605 407 605 406 601 c 0,52,53
 402 591 402 591 397 580 c 128,-1,54
 392 569 392 569 381 544 c 128,-1,55
 370 519 370 519 356.5 489.5 c 128,-1,56
 343 460 343 460 329.5 432 c 128,-1,57
 316 404 316 404 307 385 c 128,-1,58
 298 366 298 366 293 356 c 0,59,60
 283 333 283 333 279 327 c 128,-1,61
 275 321 275 321 273.5 317 c 128,-1,62
 272 313 272 313 269 307 c 128,-1,63
 266 301 266 301 261 288 c 0,64,65
 149 26 149 26 33 26 c 2,66,-1
 26 26 l 1,67,-1
 -3 31 l 2,68,69
 -4 31 -4 31 -6 33 c 0,70,71
 -7 34 -7 34 -9 34.5 c 128,-1,72
 -11 35 -11 35 -12.5 36 c 128,-1,73
 -14 37 -14 37 -15.5 38 c 128,-1,74
 -17 39 -17 39 -18.5 40 c 128,-1,75
 -20 41 -20 41 -21 42 c 128,-1,76
 -22 43 -22 43 -24 44 c 0,77,78
 -39 56 -39 56 -39 81 c 0,79,80
 -39 92 -39 92 -33 116 c 2,81,-1
 -27 140 l 1,82,83
 32 217 32 217 97 354.5 c 128,-1,84
 162 492 162 492 223 628.5 c 128,-1,85
 284 765 284 765 360 983 c 0,86,87
 440 1206 440 1206 494 1412 c 2,88,-1
 506 1458 l 1,89,90
 532 1510 532 1510 589 1531 c 0,91,92
 602 1536 602 1536 636 1536 c 0,93,94
 666 1536 666 1536 692 1491 c 1,95,-1
 693 1491 l 1,96,-1
 886 1086 l 1,97,-1
 887 1085 l 1,98,-1
 929 978 l 1,99,-1
 1536 1510 l 1,100,101
 1566 1534 1566 1534 1582 1540.5 c 128,-1,102
 1598 1547 1598 1547 1620 1547 c 0,103,104
 1643 1547 1643 1547 1654 1543 c 0,105,106
 1669 1538 1669 1538 1670.5 1537 c 128,-1,107
 1672 1536 1672 1536 1674.5 1535 c 128,-1,108
 1677 1534 1677 1534 1678.5 1532.5 c 128,-1,109
 1680 1531 1680 1531 1683 1529 c 0,110,111
 1694 1523 1694 1523 1696.5 1516 c 128,-1,112
 1699 1509 1699 1509 1700.5 1506 c 128,-1,113
 1702 1503 1702 1503 1702.5 1499 c 128,-1,114
 1703 1495 1703 1495 1704 1491 c 0,115,116
 1704 1484 1704 1484 1701 1473 c 2,117,-1
 1623 1183 l 1,118,-1
 1357 316 l 1,119,-1
 1352 299 l 1,0,1
EndSplineSet
Validated: 1
EndChar

StartChar: N
Encoding: 78 78 49
Width: 1340
GlyphClass: 2
Flags: W
LayerCount: 2
Fore
SplineSet
1445 1440 m 2,0,1
 1439 1420 l 1,2,-1
 929 144 l 2,3,4
 927 140 927 140 924 131 c 0,5,6
 907 86 907 86 891 66 c 128,-1,7
 875 46 875 46 874 44 c 0,8,9
 869 40 l 0,10,11
 863 34 863 34 861 31 c 0,12,13
 834 -3 834 -3 790 -3 c 0,14,15
 750 -3 750 -3 737.5 4.5 c 128,-1,16
 725 12 725 12 722.5 14 c 128,-1,17
 720 16 720 16 718 18 c 0,18,19
 705 29 705 29 702 49 c 1,20,-1
 591 688 l 1,21,-1
 473 1131 l 1,22,-1
 276 593 l 1,23,-1
 274 592 l 1,24,25
 270 581 270 581 263.5 566.5 c 128,-1,26
 257 552 257 552 248 533 c 128,-1,27
 239 514 239 514 233 501 c 128,-1,28
 227 488 227 488 223 478 c 128,-1,29
 219 468 219 468 217 463 c 0,30,31
 212 453 212 453 208.5 444.5 c 128,-1,32
 205 436 205 436 201.5 429 c 128,-1,33
 198 422 198 422 193 410.5 c 128,-1,34
 188 399 188 399 181.5 386 c 128,-1,35
 175 373 175 373 169.5 362.5 c 128,-1,36
 164 352 164 352 160.5 344.5 c 128,-1,37
 157 337 157 337 153 330 c 0,38,39
 140 303 140 303 124 265 c 128,-1,40
 108 227 108 227 102 216 c 128,-1,41
 96 205 96 205 94.5 202 c 128,-1,42
 93 199 93 199 91 196 c 128,-1,43
 89 193 89 193 88 190 c 128,-1,44
 87 187 87 187 84.5 182.5 c 128,-1,45
 82 178 82 178 79.5 173.5 c 128,-1,46
 77 169 77 169 75 165.5 c 128,-1,47
 73 162 73 162 71.5 159.5 c 128,-1,48
 70 157 70 157 68.5 154.5 c 128,-1,49
 67 152 67 152 66 150 c 128,-1,50
 65 148 65 148 64 146 c 0,51,52
 61 142 l 0,53,54
 47 114 47 114 18 78 c 0,55,56
 -44 3 -44 3 -95 3 c 0,57,58
 -175 3 -175 3 -175 61 c 0,59,60
 -175 75 -175 75 -170 93 c 2,61,-1
 -164 118 l 1,62,63
 -156 128 -156 128 -141.5 152.5 c 128,-1,64
 -127 177 -127 177 -124.5 180.5 c 128,-1,65
 -122 184 -122 184 -120 188 c 128,-1,66
 -118 192 -118 192 -116 195.5 c 128,-1,67
 -114 199 -114 199 -111.5 202.5 c 128,-1,68
 -109 206 -109 206 -107.5 209 c 128,-1,69
 -106 212 -106 212 -90 241 c 128,-1,70
 -74 270 -74 270 -52 312 c 0,71,72
 -15 383 -15 383 -3.5 408 c 128,-1,73
 8 433 8 433 14 445.5 c 128,-1,74
 20 458 20 458 26 470 c 2,75,-1
 37 493 l 2,76,77
 42 505 42 505 69 567 c 0,78,79
 244 966 244 966 360 1399 c 2,80,-1
 372 1445 l 1,81,82
 388 1477 388 1477 412.5 1494.5 c 128,-1,83
 437 1512 437 1512 448.5 1515.5 c 128,-1,84
 460 1519 460 1519 466 1520 c 0,85,86
 477 1523 477 1523 496 1523 c 128,-1,87
 515 1523 515 1523 523 1517.5 c 128,-1,88
 531 1512 531 1512 534 1509.5 c 128,-1,89
 537 1507 537 1507 539 1505 c 128,-1,90
 541 1503 541 1503 544 1500 c 0,91,92
 566 1477 566 1477 569 1467 c 128,-1,93
 572 1457 572 1457 573 1455 c 128,-1,94
 574 1453 574 1453 575 1450.5 c 128,-1,95
 576 1448 576 1448 578 1443 c 128,-1,96
 580 1438 580 1438 584 1430 c 0,97,98
 602 1379 602 1379 611 1359 c 128,-1,99
 620 1339 620 1339 624 1327.5 c 128,-1,100
 628 1316 628 1316 634 1302 c 128,-1,101
 640 1288 640 1288 646.5 1273 c 128,-1,102
 653 1258 653 1258 658 1243.5 c 128,-1,103
 663 1229 663 1229 664.5 1225 c 128,-1,104
 666 1221 666 1221 666.5 1219.5 c 128,-1,105
 667 1218 667 1218 668 1216 c 2,106,-1
 816 629 l 1,107,-1
 816 628 l 1,108,109
 816 626 816 626 817 618 c 0,110,111
 819 609 819 609 820 602 c 0,112,113
 822 592 822 592 825 572 c 0,114,115
 828 553 828 553 836 515 c 0,116,117
 853 437 853 437 854 417 c 1,118,-1
 1258 1444 l 2,119,120
 1293 1534 1293 1534 1379 1534 c 0,121,122
 1437 1534 1437 1534 1448 1488 c 0,123,124
 1453 1468 1453 1468 1445 1440 c 2,0,1
EndSplineSet
Validated: 1
EndChar

StartChar: O
Encoding: 79 79 50
Width: 1543
GlyphClass: 2
Flags: W
LayerCount: 2
Fore
SplineSet
124 212 m 0,0,1
 74 317 74 317 74 457 c 0,2,3
 74 460 74 460 74 462 c 0,4,5
 75 605 75 605 118 767 c 0,6,7
 130 813 130 813 149 859 c 0,8,9
 158 882 158 882 169 905 c 128,-1,10
 180 928 180 928 193 951 c 0,11,12
 218 997 218 997 248 1041.5 c 128,-1,13
 278 1086 278 1086 312 1128 c 0,14,15
 381 1212 381 1212 464 1286 c 0,16,17
 549 1360 549 1360 645 1413 c 0,18,19
 677 1431 677 1431 710 1446.5 c 128,-1,20
 743 1462 743 1462 776.5 1474.5 c 128,-1,21
 810 1487 810 1487 844 1498 c 0,22,23
 870 1506 870 1506 895.5 1511.5 c 128,-1,24
 921 1517 921 1517 946 1521 c 0,25,26
 997 1529 997 1529 1049 1529 c 0,27,28
 1066 1529 1066 1529 1082 1528 c 128,-1,29
 1098 1527 1098 1527 1113.5 1525 c 128,-1,30
 1129 1523 1129 1523 1144 1519 c 0,31,32
 1151 1517 1151 1517 1158 1515.5 c 128,-1,33
 1165 1514 1165 1514 1172 1512 c 0,34,35
 1186 1508 1186 1508 1199 1502 c 0,36,37
 1202 1501 1202 1501 1204.5 1500 c 128,-1,38
 1207 1499 1207 1499 1209.5 1498 c 128,-1,39
 1212 1497 1212 1497 1214.5 1496 c 128,-1,40
 1217 1495 1217 1495 1219.5 1493.5 c 128,-1,41
 1222 1492 1222 1492 1225 1491 c 0,42,43
 1299 1453 1299 1453 1350 1390 c 0,44,45
 1399 1327 1399 1327 1426 1244 c 0,46,47
 1430 1230 1430 1230 1435 1216 c 0,48,49
 1437 1209 1437 1209 1438.5 1202 c 128,-1,50
 1440 1195 1440 1195 1442 1188 c 0,51,52
 1445 1174 1445 1174 1448 1159 c 0,53,54
 1449 1154 1449 1154 1450.5 1149.5 c 128,-1,55
 1452 1145 1452 1145 1452.5 1140 c 128,-1,56
 1453 1135 1453 1135 1453 1130 c 0,57,58
 1455 1115 1455 1115 1457.5 1100.5 c 128,-1,59
 1460 1086 1460 1086 1462 1071 c 0,60,61
 1466 1026 1466 1026 1466 980 c 128,-1,62
 1466 934 1466 934 1462 888 c 0,63,64
 1458 842 1458 842 1450.5 798.5 c 128,-1,65
 1443 755 1443 755 1432 713 c 0,66,67
 1412 637 1412 637 1372 557 c 0,68,69
 1362 537 1362 537 1351 517.5 c 128,-1,70
 1340 498 1340 498 1329 478 c 0,71,72
 1306 439 1306 439 1278 401 c 0,73,74
 1224 325 1224 325 1156 255 c 128,-1,75
 1088 185 1088 185 1009 129 c 128,-1,76
 930 73 930 73 842.5 34 c 128,-1,77
 755 -5 755 -5 664 -19 c 2,78,-1
 663 -19 l 1,79,-1
 572 -19 l 2,80,81
 395 -19 395 -19 285 43 c 0,82,83
 230 74 230 74 189 116 c 0,84,85
 150 159 150 159 124 212 c 0,0,1
401.5 962 m 128,-1,87
 380 929 380 929 361 894 c 0,88,89
 325 826 325 826 308 761 c 0,90,91
 275 639 275 639 271 531 c 0,92,93
 271 520 271 520 271 509 c 0,94,95
 271 415 271 415 302 344 c 0,96,97
 319 304 319 304 347 272.5 c 128,-1,98
 375 241 375 241 414 218 c 128,-1,99
 453 195 453 195 505 183.5 c 128,-1,100
 557 172 557 172 623 172 c 0,101,102
 640 172 640 172 657.5 173.5 c 128,-1,103
 675 175 675 175 692 178 c 0,104,105
 727 184 727 184 761 195 c 0,106,107
 830 219 830 219 893.5 259.5 c 128,-1,108
 957 300 957 300 1013 353 c 0,109,110
 1041 380 1041 380 1067 408.5 c 128,-1,111
 1093 437 1093 437 1115 467 c 0,112,113
 1160 527 1160 527 1193 590 c 0,114,115
 1209 621 1209 621 1220.5 651 c 128,-1,116
 1232 681 1232 681 1240 711 c 0,117,118
 1244 725 1244 725 1247.5 739.5 c 128,-1,119
 1251 754 1251 754 1253.5 769.5 c 128,-1,120
 1256 785 1256 785 1258.5 801.5 c 128,-1,121
 1261 818 1261 818 1262 835 c 0,122,123
 1267 885 1267 885 1267 936 c 0,124,125
 1266 954 1266 954 1266 972 c 0,126,127
 1264 1041 1264 1041 1246 1107 c 0,128,129
 1229 1172 1229 1172 1197 1222 c 0,130,131
 1181 1247 1181 1247 1160 1267 c 0,132,133
 1153 1274 1153 1274 1145.5 1280 c 128,-1,134
 1138 1286 1138 1286 1130 1291.5 c 128,-1,135
 1122 1297 1122 1297 1114 1302 c 0,136,137
 1064 1332 1064 1332 993 1332 c 0,138,139
 956 1332 956 1332 918.5 1326 c 128,-1,140
 881 1320 881 1320 844 1308 c 0,141,142
 825 1302 825 1302 806.5 1295.5 c 128,-1,143
 788 1289 788 1289 770 1280.5 c 128,-1,144
 752 1272 752 1272 734.5 1263 c 128,-1,145
 717 1254 717 1254 699 1243 c 0,146,147
 675 1229 675 1229 652.5 1214 c 128,-1,148
 630 1199 630 1199 608 1182 c 128,-1,149
 586 1165 586 1165 565 1146 c 0,150,151
 549 1132 549 1132 533.5 1117.5 c 128,-1,152
 518 1103 518 1103 503.5 1088.5 c 128,-1,153
 489 1074 489 1074 475.5 1058.5 c 128,-1,154
 462 1043 462 1043 450 1027 c 0,155,86
 423 995 423 995 401.5 962 c 128,-1,87
EndSplineSet
Validated: 1
EndChar

StartChar: P
Encoding: 80 80 51
Width: 1319
GlyphClass: 2
Flags: W
LayerCount: 2
Fore
SplineSet
26 116 m 1,0,-1
 26 117 l 1,1,-1
 26 118 l 1,2,-1
 26 119 l 1,3,-1
 164 375 l 2,4,5
 225 486 225 486 272 602 c 0,6,7
 320 719 320 719 360 838 c 128,-1,8
 400 957 400 957 434 1076 c 0,9,10
 465 1189 465 1189 495 1300 c 1,11,-1
 491 1300 l 2,12,13
 483 1300 483 1300 474 1299.5 c 128,-1,14
 465 1299 465 1299 457 1298 c 128,-1,15
 449 1297 449 1297 440.5 1295.5 c 128,-1,16
 432 1294 432 1294 425 1292 c 0,17,18
 391 1284 391 1284 357 1275 c 0,19,20
 323 1265 323 1265 292 1257 c 0,21,22
 259 1249 259 1249 225 1249 c 0,23,24
 183 1249 183 1249 165 1271 c 0,25,26
 154 1285 154 1285 154 1306 c 0,27,28
 154 1319 154 1319 158 1336 c 0,29,30
 170 1381 170 1381 218 1410 c 0,31,32
 263 1438 263 1438 326 1457 c 0,33,34
 334 1459 334 1459 341.5 1461 c 128,-1,35
 349 1463 349 1463 357.5 1465 c 128,-1,36
 366 1467 366 1467 374.5 1469 c 128,-1,37
 383 1471 383 1471 391 1473 c 0,38,39
 425 1480 425 1480 461 1485 c 0,40,41
 535 1496 535 1496 605 1501 c 128,-1,42
 675 1506 675 1506 733 1507 c 0,43,44
 762 1508 762 1508 783 1508 c 0,45,46
 794 1508 794 1508 803.5 1508 c 128,-1,47
 813 1508 813 1508 821 1508 c 0,48,49
 887 1508 887 1508 964 1502 c 0,50,51
 1040 1496 1040 1496 1114 1482 c 0,52,53
 1151 1474 1151 1474 1186 1464 c 0,54,55
 1204 1459 1204 1459 1220 1453 c 128,-1,56
 1236 1447 1236 1447 1252 1440 c 0,57,58
 1256 1439 1256 1439 1259 1437.5 c 128,-1,59
 1262 1436 1262 1436 1265 1434.5 c 128,-1,60
 1268 1433 1268 1433 1271 1431.5 c 128,-1,61
 1274 1430 1274 1430 1277 1428.5 c 128,-1,62
 1280 1427 1280 1427 1283 1425 c 128,-1,63
 1286 1423 1286 1423 1290 1421 c 128,-1,64
 1294 1419 1294 1419 1297.5 1417 c 128,-1,65
 1301 1415 1301 1415 1304.5 1413 c 128,-1,66
 1308 1411 1308 1411 1311 1409 c 0,67,68
 1325 1400 1325 1400 1337 1390 c 0,69,70
 1343 1385 1343 1385 1348.5 1379.5 c 128,-1,71
 1354 1374 1354 1374 1359 1369 c 0,72,73
 1403 1325 1403 1325 1419 1261 c 0,74,75
 1426 1235 1426 1235 1426 1205 c 0,76,77
 1426 1162 1426 1162 1412 1111 c 0,78,79
 1406 1088 1406 1088 1397 1066.5 c 128,-1,80
 1388 1045 1388 1045 1377.5 1025 c 128,-1,81
 1367 1005 1367 1005 1353.5 987 c 128,-1,82
 1340 969 1340 969 1325 953 c 0,83,84
 1315 942 1315 942 1304 932.5 c 128,-1,85
 1293 923 1293 923 1281 913 c 0,86,87
 1258 894 1258 894 1234 878.5 c 128,-1,88
 1210 863 1210 863 1183 849 c 0,89,90
 1144 829 1144 829 1101 815 c 0,91,92
 1080 808 1080 808 1058 801.5 c 128,-1,93
 1036 795 1036 795 1014 790 c 0,94,95
 1006 788 1006 788 999 786.5 c 128,-1,96
 992 785 992 785 984.5 783.5 c 128,-1,97
 977 782 977 782 969.5 781 c 128,-1,98
 962 780 962 780 955.5 778.5 c 128,-1,99
 949 777 949 777 941.5 776 c 128,-1,100
 934 775 934 775 927 774 c 0,101,102
 906 771 906 771 885.5 769 c 128,-1,103
 865 767 865 767 845 766 c 2,104,-1
 516 749 l 1,105,-1
 330 313 l 2,106,107
 328 308 328 308 324.5 301.5 c 128,-1,108
 321 295 321 295 318 287 c 128,-1,109
 315 279 315 279 311 269 c 0,110,111
 299 240 299 240 283 206 c 128,-1,112
 267 172 267 172 246 138 c 0,113,114
 225 102 225 102 201 73 c 0,115,116
 176 43 176 43 148 24 c 0,117,118
 118 4 118 4 86 4 c 0,119,120
 65 4 65 4 49 10 c 0,121,122
 42 13 42 13 36 18 c 128,-1,123
 30 23 30 23 25.5 29 c 128,-1,124
 21 35 21 35 19 42.5 c 128,-1,125
 17 50 17 50 16 59 c 0,126,127
 15 76 15 76 20 96 c 2,128,-1
 26 116 l 1,0,-1
971 1312 m 0,129,130
 915 1318 915 1318 863 1319 c 0,131,132
 810 1320 810 1320 773 1320 c 0,133,134
 772 1320 772 1320 771 1320 c 128,-1,135
 770 1320 770 1320 769 1320 c 2,136,-1
 765 1320 l 2,137,138
 763 1320 763 1320 759 1320 c 0,139,140
 758 1320 758 1320 756.5 1320 c 128,-1,141
 755 1320 755 1320 753 1320 c 2,142,-1
 728 1319 l 2,143,144
 715 1319 715 1319 706 1318 c 2,145,-1
 700 1317 l 1,146,-1
 697 1313 l 1,147,148
 690 1290 690 1290 684 1270 c 0,149,150
 681 1259 681 1259 677.5 1248.5 c 128,-1,151
 674 1238 674 1238 671 1228 c 0,152,153
 664 1207 664 1207 658 1187 c 0,154,155
 650 1161 650 1161 642 1133 c 0,156,157
 640 1124 640 1124 637 1114.5 c 128,-1,158
 634 1105 634 1105 631 1096 c 128,-1,159
 628 1087 628 1087 625 1078 c 0,160,161
 617 1052 617 1052 610 1028 c 0,162,163
 608 1020 608 1020 606 1012.5 c 128,-1,164
 604 1005 604 1005 602 998.5 c 128,-1,165
 600 992 600 992 599 986 c 2,166,-1
 585 936 l 1,167,168
 600 936 600 936 618.5 935.5 c 128,-1,169
 637 935 637 935 661 935 c 2,170,-1
 695 935 l 1,171,-1
 724 935 l 2,172,173
 754 935 754 935 787 936 c 0,174,175
 856 938 856 938 929 947 c 0,176,177
 965 952 965 952 1000 959.5 c 128,-1,178
 1035 967 1035 967 1066 977 c 0,179,180
 1128 997 1128 997 1172 1029 c 0,181,182
 1182 1037 1182 1037 1191 1045.5 c 128,-1,183
 1200 1054 1200 1054 1207 1064 c 128,-1,184
 1214 1074 1214 1074 1219 1085 c 128,-1,185
 1224 1096 1224 1096 1227 1108 c 0,186,187
 1234 1134 1234 1134 1233.5 1156 c 128,-1,188
 1233 1178 1233 1178 1225 1196 c 0,189,190
 1223 1202 1223 1202 1219 1207.5 c 128,-1,191
 1215 1213 1215 1213 1211 1218.5 c 128,-1,192
 1207 1224 1207 1224 1203 1229 c 0,193,194
 1202 1231 1202 1231 1200 1232.5 c 128,-1,195
 1198 1234 1198 1234 1196.5 1235.5 c 128,-1,196
 1195 1237 1195 1237 1193 1239 c 0,197,198
 1188 1244 1188 1244 1183 1248 c 0,199,200
 1181 1250 1181 1250 1177.5 1252 c 128,-1,201
 1174 1254 1174 1254 1171 1256 c 0,202,203
 1152 1268 1152 1268 1129 1277 c 128,-1,204
 1106 1286 1106 1286 1080 1293 c 0,205,206
 1062 1297 1062 1297 1044 1301 c 0,207,208
 1035 1303 1035 1303 1025.5 1304.5 c 128,-1,209
 1016 1306 1016 1306 1007 1307.5 c 128,-1,210
 998 1309 998 1309 989.5 1310 c 128,-1,211
 981 1311 981 1311 971 1312 c 0,129,130
EndSplineSet
Validated: 1
EndChar

StartChar: Q
Encoding: 81 81 52
Width: 1539
GlyphClass: 2
Flags: W
LayerCount: 2
Fore
SplineSet
996 9.5 m 128,-1,1
 984 23 984 23 973 36 c 0,2,3
 968 42 968 42 963 48 c 128,-1,4
 958 54 958 54 953 60 c 1,5,6
 934 52 934 52 918 46 c 128,-1,7
 902 40 902 40 885 34 c 128,-1,8
 868 28 868 28 851 23.5 c 128,-1,9
 834 19 834 19 818 15 c 0,10,11
 796 10 796 10 773 6.5 c 128,-1,12
 750 3 750 3 726 1 c 128,-1,13
 702 -1 702 -1 678 -1 c 0,14,15
 566 -1 566 -1 476 27 c 0,16,17
 431 41 431 41 391.5 60.5 c 128,-1,18
 352 80 352 80 318 105 c 0,19,20
 250 155 250 155 206 225 c 0,21,22
 184 260 184 260 169 299 c 128,-1,23
 154 338 154 338 144 381 c 0,24,25
 128 450 128 450 128 526 c 0,26,27
 128 545 128 545 129 565 c 0,28,29
 129 589 129 589 131.5 614 c 128,-1,30
 134 639 134 639 138.5 664.5 c 128,-1,31
 143 690 143 690 148.5 716 c 128,-1,32
 154 742 154 742 161 768 c 0,33,34
 169 799 169 799 179.5 829 c 128,-1,35
 190 859 190 859 204 890 c 0,36,37
 211 905 211 905 218 920 c 128,-1,38
 225 935 225 935 233 950.5 c 128,-1,39
 241 966 241 966 249 981 c 128,-1,40
 257 996 257 996 266 1010.5 c 128,-1,41
 275 1025 275 1025 284.5 1039.5 c 128,-1,42
 294 1054 294 1054 303.5 1068.5 c 128,-1,43
 313 1083 313 1083 323.5 1097 c 128,-1,44
 334 1111 334 1111 345 1125 c 0,45,46
 359 1142 359 1142 371.5 1157.5 c 128,-1,47
 384 1173 384 1173 398.5 1189 c 128,-1,48
 413 1205 413 1205 427.5 1220 c 128,-1,49
 442 1235 442 1235 457.5 1249.5 c 128,-1,50
 473 1264 473 1264 489 1279 c 0,51,52
 569 1350 569 1350 660 1402 c 0,53,54
 682 1415 682 1415 705 1426.5 c 128,-1,55
 728 1438 728 1438 752 1448.5 c 128,-1,56
 776 1459 776 1459 800 1468 c 128,-1,57
 824 1477 824 1477 848 1484 c 0,58,59
 946 1514 946 1514 1046 1514 c 0,60,61
 1145 1514 1145 1514 1219 1477 c 0,62,63
 1256 1459 1256 1459 1287 1434.5 c 128,-1,64
 1318 1410 1318 1410 1343 1379 c 0,65,66
 1394 1318 1394 1318 1424 1237 c 0,67,68
 1453 1156 1453 1156 1464 1068 c 0,69,70
 1467 1039 1467 1039 1469 1009 c 128,-1,71
 1471 979 1471 979 1470.5 949 c 128,-1,72
 1470 919 1470 919 1468 889 c 0,73,74
 1462 798 1462 798 1440 716 c 0,75,76
 1402 574 1402 574 1325 441 c 0,77,78
 1287 375 1287 375 1239 312 c 0,79,80
 1191 250 1191 250 1135 194 c 1,81,-1
 1133 186 l 2,82,83
 1131 178 1131 178 1141 162 c 0,84,85
 1152 144 1152 144 1171 124 c 0,86,87
 1191 103 1191 103 1217 83 c 0,88,89
 1229 73 1229 73 1242 63.5 c 128,-1,90
 1255 54 1255 54 1267 46 c 0,91,92
 1276 41 1276 41 1284 36 c 0,93,94
 1286 34 1286 34 1288.5 32.5 c 128,-1,95
 1291 31 1291 31 1294 29.5 c 128,-1,96
 1297 28 1297 28 1299 27 c 0,97,98
 1302 25 1302 25 1306 23 c 128,-1,99
 1310 21 1310 21 1314 20 c 0,100,101
 1317 19 1317 19 1319 17.5 c 128,-1,102
 1321 16 1321 16 1323.5 15 c 128,-1,103
 1326 14 1326 14 1328 13.5 c 128,-1,104
 1330 13 1330 13 1331 12 c 0,105,106
 1338 10 1338 10 1344 10 c 2,107,-1
 1459 10 l 1,108,-1
 1461 10 l 1,109,-1
 1463 10 l 1,110,-1
 1464 9 l 1,111,-1
 1464 8 l 2,112,113
 1469 3 1469 3 1473.5 -1.5 c 128,-1,114
 1478 -6 1478 -6 1481 -9 c 0,115,116
 1483 -11 1483 -11 1485 -13 c 128,-1,117
 1487 -15 1487 -15 1489 -17 c 0,118,119
 1492 -21 1492 -21 1494 -26 c 0,120,121
 1500 -35 1500 -35 1501 -47 c 0,122,123
 1503 -59 1503 -59 1498 -77 c 0,124,125
 1494 -93 1494 -93 1486 -107 c 0,126,127
 1479 -121 1479 -121 1470 -131 c 128,-1,128
 1461 -141 1461 -141 1450 -149 c 0,129,130
 1445 -153 1445 -153 1439 -156.5 c 128,-1,131
 1433 -160 1433 -160 1428 -162 c 0,132,133
 1417 -167 1417 -167 1404.5 -170.5 c 128,-1,134
 1392 -174 1392 -174 1378 -176 c 0,135,136
 1352 -179 1352 -179 1327 -179 c 0,137,138
 1316 -179 1316 -179 1305.5 -178.5 c 128,-1,139
 1295 -178 1295 -178 1285 -176.5 c 128,-1,140
 1275 -175 1275 -175 1265 -173 c 0,141,142
 1235 -167 1235 -167 1207 -156 c 0,143,144
 1151 -133 1151 -133 1105 -97 c 128,-1,145
 1059 -61 1059 -61 1020 -18 c 0,146,0
 1008 -4 1008 -4 996 9.5 c 128,-1,1
437.5 963.5 m 128,-1,148
 417 931 417 931 399 897 c 0,149,150
 387 875 387 875 378 853 c 128,-1,151
 369 831 369 831 361 809 c 128,-1,152
 353 787 353 787 347 765 c 0,153,154
 336 725 336 725 330 686 c 128,-1,155
 324 647 324 647 322 610 c 0,156,157
 321 592 321 592 321 574 c 128,-1,158
 321 556 321 556 322 538 c 0,159,160
 326 485 326 485 341 439 c 0,161,162
 346 424 346 424 352 409 c 128,-1,163
 358 394 358 394 365 380.5 c 128,-1,164
 372 367 372 367 381 354 c 0,165,166
 430 276 430 276 519.5 230.5 c 128,-1,167
 609 185 609 185 737 185 c 0,168,169
 753 185 753 185 769.5 186.5 c 128,-1,170
 786 188 786 188 803 191 c 0,171,172
 832 196 832 196 861 210 c 1,173,174
 865 230 865 230 859 249 c 2,175,-1
 855 255 l 2,176,177
 854 258 854 258 852.5 261.5 c 128,-1,178
 851 265 851 265 849.5 268.5 c 128,-1,179
 848 272 848 272 846 275 c 0,180,181
 845 276 845 276 845 277 c 128,-1,182
 845 278 845 278 844 279.5 c 128,-1,183
 843 281 843 281 843 282 c 0,184,185
 841 285 841 285 838 288 c 0,186,187
 838 290 838 290 836.5 292 c 128,-1,188
 835 294 835 294 834 295 c 0,189,190
 826 307 826 307 817.5 320 c 128,-1,191
 809 333 809 333 799 346 c 0,192,193
 794 353 794 353 789.5 360 c 128,-1,194
 785 367 785 367 780 374 c 0,195,196
 772 388 772 388 765 403 c 0,197,198
 761 411 761 411 757.5 418.5 c 128,-1,199
 754 426 754 426 751 433 c 0,200,201
 745 449 745 449 743 466 c 0,202,203
 741 475 741 475 740.5 483.5 c 128,-1,204
 740 492 740 492 740 501 c 0,205,206
 741 520 741 520 747 540 c 0,207,208
 752 560 752 560 763 576.5 c 128,-1,209
 774 593 774 593 790 605 c 128,-1,210
 806 617 806 617 824 623 c 128,-1,211
 842 629 842 629 862 629 c 0,212,213
 880 629 880 629 894 624 c 0,214,215
 898 622 898 622 903.5 620.5 c 128,-1,216
 909 619 909 619 913.5 616.5 c 128,-1,217
 918 614 918 614 921 611 c 0,218,219
 928 605 928 605 935 597.5 c 128,-1,220
 942 590 942 590 947.5 582 c 128,-1,221
 953 574 953 574 959 565 c 0,222,223
 966 551 966 551 971 535.5 c 128,-1,224
 976 520 976 520 981 503 c 0,225,226
 990 469 990 469 999 436 c 0,227,228
 1007 404 1007 404 1018 376 c 0,229,230
 1027 353 1027 353 1041 336 c 0,231,232
 1045 338 1045 338 1048 341 c 128,-1,233
 1051 344 1051 344 1055 346.5 c 128,-1,234
 1059 349 1059 349 1061 351 c 0,235,236
 1066 356 1066 356 1072.5 361.5 c 128,-1,237
 1079 367 1079 367 1085 373 c 0,238,239
 1092 380 1092 380 1098 387.5 c 128,-1,240
 1104 395 1104 395 1110 402 c 0,241,242
 1122 418 1122 418 1132 436 c 0,243,244
 1134 440 1134 440 1136.5 443 c 128,-1,245
 1139 446 1139 446 1141 450 c 128,-1,246
 1143 454 1143 454 1145.5 457.5 c 128,-1,247
 1148 461 1148 461 1150 464.5 c 128,-1,248
 1152 468 1152 468 1154 472 c 128,-1,249
 1156 476 1156 476 1158 479.5 c 128,-1,250
 1160 483 1160 483 1162 487 c 128,-1,251
 1164 491 1164 491 1165.5 495 c 128,-1,252
 1167 499 1167 499 1169 503 c 128,-1,253
 1171 507 1171 507 1173 511 c 0,254,255
 1192 551 1192 551 1207 589 c 0,256,257
 1215 608 1215 608 1221.5 626 c 128,-1,258
 1228 644 1228 644 1233 661 c 128,-1,259
 1238 678 1238 678 1242.5 692.5 c 128,-1,260
 1247 707 1247 707 1250 719 c 2,261,-1
 1255 738 l 2,262,263
 1257 747 1257 747 1259 756 c 0,264,265
 1260 759 1260 759 1260 762.5 c 128,-1,266
 1260 766 1260 766 1260.5 769.5 c 128,-1,267
 1261 773 1261 773 1262 776 c 0,268,269
 1264 786 1264 786 1265 796.5 c 128,-1,270
 1266 807 1266 807 1267.5 817.5 c 128,-1,271
 1269 828 1269 828 1270 840 c 0,272,273
 1273 873 1273 873 1273 906.5 c 128,-1,274
 1273 940 1273 940 1270 974 c 0,275,276
 1264 1042 1264 1042 1245 1106 c 0,277,278
 1243 1114 1243 1114 1240.5 1121.5 c 128,-1,279
 1238 1129 1238 1129 1235 1137 c 0,280,281
 1229 1152 1229 1152 1222.5 1166 c 128,-1,282
 1216 1180 1216 1180 1209 1193 c 128,-1,283
 1202 1206 1202 1206 1194 1219 c 0,284,285
 1177 1243 1177 1243 1157 1262.5 c 128,-1,286
 1137 1282 1137 1282 1112 1297 c 0,287,288
 1064 1327 1064 1327 998 1327 c 0,289,290
 980 1327 980 1327 962 1325.5 c 128,-1,291
 944 1324 944 1324 925.5 1321 c 128,-1,292
 907 1318 907 1318 889 1314 c 0,293,294
 880 1312 880 1312 871 1309.5 c 128,-1,295
 862 1307 862 1307 854 1304 c 0,296,297
 818 1292 818 1292 783 1276 c 128,-1,298
 748 1260 748 1260 715 1240 c 0,299,300
 648 1200 648 1200 588.5 1145.5 c 128,-1,301
 529 1091 529 1091 482 1028 c 0,302,147
 458 996 458 996 437.5 963.5 c 128,-1,148
EndSplineSet
Validated: 1025
EndChar

StartChar: R
Encoding: 82 82 53
Width: 1360
GlyphClass: 2
Flags: W
LayerCount: 2
Fore
SplineSet
-5 -8 m 0,0,1
 -75 -8 -75 -8 -75 51 c 0,2,3
 -75 67 -75 67 -70 88 c 0,4,5
 -54 147 -54 147 64 296 c 0,6,7
 114 359 114 359 200 533 c 128,-1,8
 286 707 286 707 360 885.5 c 128,-1,9
 434 1064 434 1064 497 1300 c 1,10,11
 477 1300 477 1300 454 1297 c 0,12,13
 439 1295 439 1295 432 1293 c 0,14,15
 424 1290 424 1290 418 1290 c 0,16,17
 387 1286 387 1286 381 1285 c 0,18,19
 365 1279 365 1279 352 1275 c 0,20,21
 304 1262 304 1262 291 1260 c 1,22,-1
 273 1260 l 2,23,24
 231 1260 231 1260 219 1277 c 0,25,26
 202 1301 202 1301 202 1328 c 0,27,28
 202 1340 202 1340 205 1352 c 0,29,30
 247 1510 247 1510 804 1511 c 0,31,32
 1274 1511 1274 1511 1407 1374 c 0,33,34
 1427 1353 1427 1353 1431 1342 c 128,-1,35
 1435 1331 1435 1331 1436 1329 c 128,-1,36
 1437 1327 1437 1327 1438 1325 c 128,-1,37
 1439 1323 1439 1323 1440 1320.5 c 128,-1,38
 1441 1318 1441 1318 1442 1316 c 128,-1,39
 1443 1314 1443 1314 1443 1312 c 0,40,41
 1443 1308 1443 1308 1447 1298 c 0,42,43
 1453 1281 1453 1281 1453 1263 c 0,44,45
 1453 1246 1453 1246 1448 1228 c 0,46,47
 1438 1190 1438 1190 1428 1168 c 0,48,49
 1330 957 1330 957 767 820 c 1,50,-1
 732 812 l 2,51,52
 716 808 716 808 704 805 c 1,53,54
 720 790 720 790 741.5 767 c 128,-1,55
 763 744 763 744 785 722 c 0,56,57
 1038 462 1038 462 1063 212 c 0,58,59
 1065 189 1065 189 1065 168 c 0,60,61
 1064 121 1064 121 1054 81 c 0,62,63
 1038 24 1038 24 1012 5.5 c 128,-1,64
 986 -13 986 -13 968 -19 c 128,-1,65
 950 -25 950 -25 933 -25 c 0,66,67
 915 -26 915 -26 895 12 c 0,68,69
 872 56 872 56 791 258 c 0,70,71
 691 502 691 502 652 550 c 1,72,-1
 651 550 l 1,73,74
 645 558 645 558 629.5 573.5 c 128,-1,75
 614 589 614 589 592 611 c 2,76,-1
 546 654 l 2,77,78
 535 665 535 665 526 673 c 128,-1,79
 517 681 517 681 513.5 684.5 c 128,-1,80
 510 688 510 688 508.5 689.5 c 128,-1,81
 507 691 507 691 505.5 693 c 128,-1,82
 504 695 504 695 502.5 696.5 c 128,-1,83
 501 698 501 698 497 702.5 c 128,-1,84
 493 707 493 707 485 708 c 1,85,86
 292 275 292 275 84 32 c 1,87,-1
 84 31 l 1,88,89
 39 -8 39 -8 -5 -8 c 0,0,1
602.5 1005 m 128,-1,91
 599 995 599 995 596 986 c 2,92,-1
 589 958 l 1,93,94
 596 960 596 960 605 962 c 0,95,96
 634 969 634 969 680 981.5 c 128,-1,97
 726 994 726 994 785.5 1011 c 128,-1,98
 845 1028 845 1028 908 1048 c 128,-1,99
 971 1068 971 1068 1032 1090 c 0,100,101
 1052 1097 1052 1097 1071 1104 c 128,-1,102
 1090 1111 1090 1111 1107.5 1118.5 c 128,-1,103
 1125 1126 1125 1126 1141 1133 c 0,104,105
 1189 1154 1189 1154 1219 1175 c 0,106,107
 1232 1184 1232 1184 1240 1192.5 c 128,-1,108
 1248 1201 1248 1201 1249.5 1208 c 128,-1,109
 1251 1215 1251 1215 1247 1222 c 0,110,111
 1246 1224 1246 1224 1244 1226 c 128,-1,112
 1242 1228 1242 1228 1240 1230 c 128,-1,113
 1238 1232 1238 1232 1235 1234 c 128,-1,114
 1232 1236 1232 1236 1229 1238 c 0,115,116
 1214 1246 1214 1246 1195 1254 c 0,117,118
 1192 1255 1192 1255 1189 1256 c 128,-1,119
 1186 1257 1186 1257 1183 1258 c 128,-1,120
 1180 1259 1180 1259 1177 1260 c 128,-1,121
 1174 1261 1174 1261 1170.5 1262 c 128,-1,122
 1167 1263 1167 1263 1164 1264 c 128,-1,123
 1161 1265 1161 1265 1157 1265.5 c 128,-1,124
 1153 1266 1153 1266 1150 1267 c 0,125,126
 1138 1270 1138 1270 1124.5 1273 c 128,-1,127
 1111 1276 1111 1276 1098 1279 c 0,128,129
 1070 1284 1070 1284 1039 1289 c 0,130,131
 978 1298 978 1298 923 1304 c 0,132,133
 895 1307 895 1307 870.5 1308.5 c 128,-1,134
 846 1310 846 1310 825.5 1311.5 c 128,-1,135
 805 1313 805 1313 792 1313 c 0,136,137
 788 1313 788 1313 784.5 1313.5 c 128,-1,138
 781 1314 781 1314 778.5 1314 c 128,-1,139
 776 1314 776 1314 774 1314 c 0,140,141
 770 1314 770 1314 765 1314 c 128,-1,142
 760 1314 760 1314 754 1314 c 2,143,-1
 729 1313 l 2,144,145
 726 1313 726 1313 723 1312 c 0,146,147
 722 1312 722 1312 720 1312 c 128,-1,148
 718 1312 718 1312 717 1312 c 0,149,150
 714 1312 714 1312 711.5 1312 c 128,-1,151
 709 1312 709 1312 707 1312 c 2,152,-1
 703 1311 l 1,153,-1
 700 1307 l 1,154,155
 693 1285 693 1285 686.5 1264 c 128,-1,156
 680 1243 680 1243 673 1222.5 c 128,-1,157
 666 1202 666 1202 660 1182 c 0,158,159
 659 1178 659 1178 657 1173.5 c 128,-1,160
 655 1169 655 1169 654 1164.5 c 128,-1,161
 653 1160 653 1160 651.5 1156 c 128,-1,162
 650 1152 650 1152 648.5 1147.5 c 128,-1,163
 647 1143 647 1143 645 1138 c 0,164,165
 644 1136 644 1136 643.5 1133.5 c 128,-1,166
 643 1131 643 1131 642 1129 c 0,167,168
 633 1101 633 1101 625 1075 c 128,-1,169
 617 1049 617 1049 609 1026 c 0,170,90
 606 1015 606 1015 602.5 1005 c 128,-1,91
EndSplineSet
Validated: 1
EndChar

StartChar: S
Encoding: 83 83 54
Width: 1310
GlyphClass: 2
Flags: W
LayerCount: 2
Fore
SplineSet
-58 168 m 0,0,1
 -66 181 -66 181 -71 194 c 0,2,3
 -80 217 -80 217 -80 243 c 0,4,5
 -80 266 -80 266 -73 291 c 0,6,7
 -63 330 -63 330 -31 358 c 0,8,9
 2 386 2 386 45 386 c 0,10,11
 69 386 69 386 90 371 c 0,12,13
 109 357 109 357 131 335 c 0,14,15
 152 314 152 314 178 290 c 128,-1,16
 204 266 204 266 237 246 c 0,17,18
 265 229 265 229 313 213 c 0,19,20
 355 199 355 199 412 199 c 0,21,22
 426 199 426 199 441.5 200 c 128,-1,23
 457 201 457 201 474 202.5 c 128,-1,24
 491 204 491 204 510 206 c 0,25,26
 566 213 566 213 627 227.5 c 128,-1,27
 688 242 688 242 748 264 c 0,28,29
 778 275 778 275 805.5 288.5 c 128,-1,30
 833 302 833 302 859 319 c 0,31,32
 910 351 910 351 945 392 c 0,33,34
 962 412 962 412 975 435 c 128,-1,35
 988 458 988 458 995 484 c 0,36,37
 1004 519 1004 519 995 547 c 0,38,39
 985 577 985 577 963 600 c 0,40,41
 952 612 952 612 938.5 621.5 c 128,-1,42
 925 631 925 631 910 639 c 128,-1,43
 895 647 895 647 880 654 c 0,44,45
 862 660 862 660 848 664 c 2,46,-1
 426 779 l 2,47,48
 426 779 426 779 411 784 c 0,49,50
 403 786 403 786 395.5 789 c 128,-1,51
 388 792 388 792 380 794.5 c 128,-1,52
 372 797 372 797 364.5 800 c 128,-1,53
 357 803 357 803 349.5 806.5 c 128,-1,54
 342 810 342 810 334 813 c 0,55,56
 328 816 328 816 322 819.5 c 128,-1,57
 316 823 316 823 310 826.5 c 128,-1,58
 304 830 304 830 298.5 833.5 c 128,-1,59
 293 837 293 837 287.5 841 c 128,-1,60
 282 845 282 845 276.5 849 c 128,-1,61
 271 853 271 853 266 857 c 128,-1,62
 261 861 261 861 256 866 c 0,63,64
 222 897 222 897 202 939 c 0,65,66
 185.944444444 973 185.944444444 973 185.944444444 1011.45987654 c 0,67,68
 185.944444444 1013.72222222 185.944444444 1013.72222222 186 1016 c 0,69,70
 186 1018 186 1018 186 1020.5 c 128,-1,71
 186 1023 186 1023 185 1027 c 0,72,-1
 185 1033 l 1,73,-1
 186 1037 l 1,74,-1
 186 1038 l 1,75,-1
 202 1098 l 2,76,77
 225 1184 225 1184 273 1256 c 0,78,79
 297 1292 297 1292 324 1323.5 c 128,-1,80
 351 1355 351 1355 384 1382 c 128,-1,81
 417 1409 417 1409 453.5 1431 c 128,-1,82
 490 1453 490 1453 530 1470 c 0,83,84
 559 1482 559 1482 615 1498 c 0,85,86
 629 1502 629 1502 643.5 1505 c 128,-1,87
 658 1508 658 1508 673 1510 c 128,-1,88
 688 1512 688 1512 703 1514 c 0,89,-1
 704 1514 l 2,90,91
 708 1514 708 1514 712 1514 c 0,92,93
 717 1514 717 1514 724.5 1514.5 c 128,-1,94
 732 1515 732 1515 740 1515 c 128,-1,95
 748 1515 748 1515 756 1515 c 0,96,97
 773 1515 773 1515 789 1516 c 0,98,99
 797 1516 797 1516 802 1517 c 0,100,101
 805 1517 805 1517 807 1517 c 128,-1,102
 809 1517 809 1517 811 1517 c 0,103,104
 837 1517 837 1517 886 1517 c 0,105,106
 936 1516 936 1516 995.5 1511.5 c 128,-1,107
 1055 1507 1055 1507 1115 1498 c 0,108,109
 1163 1491 1163 1491 1223 1471 c 0,110,111
 1226 1470 1226 1470 1229 1469 c 128,-1,112
 1232 1468 1232 1468 1234.5 1467 c 128,-1,113
 1237 1466 1237 1466 1239.5 1464.5 c 128,-1,114
 1242 1463 1242 1463 1245 1462 c 0,115,116
 1256 1457 1256 1457 1265 1451.5 c 128,-1,117
 1274 1446 1274 1446 1282 1440 c 128,-1,118
 1290 1434 1290 1434 1296 1427 c 0,119,120
 1306 1417 1306 1417 1314 1394 c 0,121,122
 1317 1385 1317 1385 1316 1375.5 c 128,-1,123
 1315 1366 1315 1366 1312 1355 c 0,124,125
 1309 1345 1309 1345 1305.5 1336 c 128,-1,126
 1302 1327 1302 1327 1297 1319 c 0,127,128
 1294 1315 1294 1315 1291.5 1311 c 128,-1,129
 1289 1307 1289 1307 1284 1303 c 0,130,131
 1277 1295 1277 1295 1270 1288 c 0,132,133
 1251 1272 1251 1272 1235 1267 c 0,134,135
 1228 1265 1228 1265 1222 1263.5 c 128,-1,136
 1216 1262 1216 1262 1209 1261 c 128,-1,137
 1202 1260 1202 1260 1195 1260 c 2,138,-1
 1183 1260 l 1,139,-1
 1182 1260 l 1,140,-1
 1181 1260 l 2,141,142
 1043 1292 1043 1292 974 1304 c 0,143,144
 957 1307 957 1307 939.5 1310 c 128,-1,145
 922 1313 922 1313 904 1315 c 128,-1,146
 886 1317 886 1317 869 1319 c 0,147,148
 842 1321 842 1321 814.5 1322.5 c 128,-1,149
 787 1324 787 1324 759 1324 c 0,150,151
 748 1324 748 1324 737.5 1323.5 c 128,-1,152
 727 1323 727 1323 717 1322.5 c 128,-1,153
 707 1322 707 1322 696.5 1321 c 128,-1,154
 686 1320 686 1320 676 1319 c 0,155,156
 655 1317 655 1317 636 1313 c 0,157,158
 621 1310 621 1310 607 1306 c 0,159,160
 604 1305 604 1305 600 1304 c 128,-1,161
 596 1303 596 1303 593 1302 c 128,-1,162
 590 1301 590 1301 586.5 1300 c 128,-1,163
 583 1299 583 1299 580 1298 c 128,-1,164
 577 1297 577 1297 573.5 1295.5 c 128,-1,165
 570 1294 570 1294 567 1293 c 128,-1,166
 564 1292 564 1292 560.5 1290.5 c 128,-1,167
 557 1289 557 1289 554 1287 c 0,168,169
 541 1281 541 1281 529 1275 c 0,170,171
 481 1248 481 1248 445 1204 c 0,172,173
 427 1182 427 1182 413.5 1154 c 128,-1,174
 400 1126 400 1126 391 1092 c 0,175,176
 382 1057 382 1057 392 1047 c 0,177,178
 393 1046 393 1046 393 1044.5 c 128,-1,179
 393 1043 393 1043 393.5 1042 c 128,-1,180
 394 1041 394 1041 394 1040 c 0,181,182
 395 1037 395 1037 397.5 1034 c 128,-1,183
 400 1031 400 1031 402 1028 c 128,-1,184
 404 1025 404 1025 406 1022 c 128,-1,185
 408 1019 408 1019 410.5 1016.5 c 128,-1,186
 413 1014 413 1014 415 1011 c 0,187,188
 421 1006 421 1006 427.5 1001.5 c 128,-1,189
 434 997 434 997 440 993 c 0,190,191
 443 991 443 991 447 989 c 128,-1,192
 451 987 451 987 454 985 c 0,193,194
 474 976 474 976 500 969 c 2,195,-1
 906 859 l 2,196,197
 938 850 938 850 939 850 c 0,198,199
 955 844 955 844 971 837 c 0,200,201
 1024 814 1024 814 1033 809 c 0,202,203
 1088 779 1088 779 1132 732 c 0,204,205
 1146 717 1146 717 1157 699 c 0,206,207
 1163 690 1163 690 1167 681 c 0,208,209
 1172 672 1172 672 1176 663 c 0,210,211
 1184 644 1184 644 1189 623 c 0,212,213
 1196 596 1196 596 1196 566 c 0,214,215
 1196 526 1196 526 1184 481 c 0,216,217
 1176 453 1176 453 1166 427 c 128,-1,218
 1156 401 1156 401 1142 377 c 128,-1,219
 1128 353 1128 353 1112 330 c 0,220,221
 1087 296 1087 296 1057 266 c 128,-1,222
 1027 236 1027 236 993 209 c 0,223,224
 977 196 977 196 958.5 183.5 c 128,-1,225
 940 171 940 171 922 159 c 0,226,227
 885 136 885 136 845 117 c 0,228,229
 763 79 763 79 678 53 c 0,230,231
 636 40 636 40 593 31 c 128,-1,232
 550 22 550 22 509 15.5 c 128,-1,233
 468 9 468 9 429.5 6 c 128,-1,234
 391 3 391 3 356 3 c 0,235,236
 318 3 318 3 268 10 c 0,237,238
 190 19 190 19 165 30 c 0,239,240
 159 33 159 33 151 35 c 0,241,242
 147 36 147 36 143 37 c 128,-1,243
 139 38 139 38 135 39 c 0,244,245
 128 41 128 41 120.5 43.5 c 128,-1,246
 113 46 113 46 105 49 c 0,247,248
 102 50 102 50 100 51 c 128,-1,249
 98 52 98 52 96 53 c 128,-1,250
 94 54 94 54 92 55 c 0,251,252
 85 58 85 58 78 61 c 128,-1,253
 71 64 71 64 64 67 c 0,254,255
 11 91 11 91 -19 121 c 0,256,257
 -38 140 -38 140 -40 143 c 0,258,259
 -44 149 -44 149 -49.5 155.5 c 128,-1,260
 -55 162 -55 162 -58 168 c 0,0,1
EndSplineSet
Validated: 1
EndChar

StartChar: T
Encoding: 84 84 55
Width: 1274
GlyphClass: 2
Flags: W
LayerCount: 2
Fore
SplineSet
1473 1373 m 1,0,-1
 1470 1365 l 1,1,2
 1467 1354 1467 1354 1462 1349 c 128,-1,3
 1457 1344 1457 1344 1456 1342 c 128,-1,4
 1455 1340 1455 1340 1453.5 1337.5 c 128,-1,5
 1452 1335 1452 1335 1449.5 1333 c 128,-1,6
 1447 1331 1447 1331 1444 1327 c 0,7,8
 1416 1290 1416 1290 1359 1290 c 0,9,10
 1347 1290 1347 1290 1335.5 1290.5 c 128,-1,11
 1324 1291 1324 1291 1312.5 1291.5 c 128,-1,12
 1301 1292 1301 1292 1290 1292.5 c 128,-1,13
 1279 1293 1279 1293 1267.5 1294 c 128,-1,14
 1256 1295 1256 1295 1246 1296 c 0,15,16
 1160 1308 1160 1308 1083 1308 c 2,17,-1
 971 1308 l 1,18,-1
 807 828 l 2,19,20
 803 822 803 822 797 806 c 0,21,22
 779 760 779 760 771 741 c 0,23,24
 753 700 753 700 744 677 c 0,25,26
 718 618 718 618 713 607 c 0,27,28
 701 579 701 579 685 544 c 0,29,30
 671 514 671 514 665 501 c 128,-1,31
 659 488 659 488 642 456.5 c 128,-1,32
 625 425 625 425 605.5 388 c 128,-1,33
 586 351 586 351 567.5 316.5 c 128,-1,34
 549 282 549 282 540 265 c 128,-1,35
 531 248 531 248 518 223 c 128,-1,36
 505 198 505 198 495 180 c 128,-1,37
 485 162 485 162 480.5 154.5 c 128,-1,38
 476 147 476 147 471 139.5 c 128,-1,39
 466 132 466 132 457 119 c 128,-1,40
 448 106 448 106 445.5 102.5 c 128,-1,41
 443 99 443 99 443 98 c 0,42,43
 438 92 l 0,44,45
 434 89 434 89 431 84 c 1,46,-1
 415 65 l 2,47,48
 411 61 411 61 397 46 c 0,49,50
 352 1 352 1 299 1 c 0,51,52
 294 1 294 1 287 2 c 128,-1,53
 280 3 280 3 276 3.5 c 128,-1,54
 272 4 272 4 269 5.5 c 128,-1,55
 266 7 266 7 257 11 c 128,-1,56
 248 15 248 15 240 24.5 c 128,-1,57
 232 34 232 34 228.5 41 c 128,-1,58
 225 48 225 48 223 56 c 0,59,60
 219 72 219 72 224 90 c 0,61,62
 238 142 238 142 282.5 205 c 128,-1,63
 327 268 327 268 351 301.5 c 128,-1,64
 375 335 375 335 388 362 c 0,65,66
 641 832 641 832 769 1308 c 2,67,-1
 769 1310 l 1,68,-1
 357 1321 l 1,69,70
 306 1321 306 1321 303 1385 c 0,71,72
 302 1398 302 1398 307 1414 c 0,73,74
 311 1428 311 1428 319 1444 c 1,75,-1
 337 1468 l 1,76,77
 365 1504 365 1504 400 1504 c 2,78,-1
 1178 1504 l 1,79,-1
 1225 1505 l 2,80,81
 1258 1505 1258 1505 1292 1505 c 0,82,83
 1482 1505 1482 1505 1482 1415 c 0,84,85
 1482 1402 1482 1402 1478 1386 c 2,86,-1
 1476 1380 l 1,87,-1
 1473 1373 l 1,0,-1
EndSplineSet
Validated: 1
EndChar

StartChar: U
Encoding: 85 85 56
Width: 1340
GlyphClass: 2
Flags: W
LayerCount: 2
Fore
SplineSet
1130 1071 m 1,0,-1
 1219 1423 l 2,1,2
 1235 1484 1235 1484 1300 1509 c 0,3,4
 1329 1520 1329 1520 1344 1520 c 0,5,6
 1433 1520 1433 1520 1433 1452 c 0,7,8
 1433 1444 1433 1444 1432 1435 c 1,9,10
 1381 1205 1381 1205 1349 1082 c 0,11,12
 1319 970 1319 970 1288 881 c 0,13,14
 1265 814 1265 814 1245 766 c 0,15,16
 1088 380 1088 380 876 179 c 1,17,18
 661 -18 661 -18 403 -26 c 1,19,-1
 379 -26 l 2,20,21
 11 -26 11 -26 10 328 c 0,22,23
 10 491 10 491 66 703 c 2,24,-1
 75 737 l 1,25,26
 122 902 122 902 179 1066 c 0,27,28
 248 1265 248 1265 268 1337 c 2,29,-1
 298 1448 l 1,30,-1
 298 1449 l 1,31,-1
 298 1450 l 1,32,-1
 299 1451 l 1,33,-1
 299 1452 l 1,34,-1
 300 1454 l 1,35,36
 325 1501 325 1501 394 1516 c 0,37,38
 412 1520 412 1520 420 1520 c 0,39,40
 505 1520 505 1520 505 1466 c 0,41,42
 505 1458 505 1458 503 1449 c 2,43,-1
 364 1024 l 1,44,45
 360 1005 360 1005 355 986 c 2,46,-1
 252 642 l 2,47,-1
 249 631 l 0,48,49
 238 597 238 597 229 565 c 0,50,51
 204 470 204 470 204 398 c 0,52,53
 204 228 204 228 344 183 c 0,54,55
 387 169 387 169 459 169 c 0,56,57
 726 169 726 169 953 574 c 0,58,59
 1032 715 1032 715 1076 869 c 1,60,-1
 1130 1071 l 1,0,-1
EndSplineSet
Validated: 1
EndChar

StartChar: V
Encoding: 86 86 57
Width: 1383
GlyphClass: 2
Flags: W
LayerCount: 2
Fore
SplineSet
291 1433 m 1,0,-1
 292 1434 l 1,1,-1
 292 1435 l 1,2,-1
 292 1436 l 2,3,4
 310 1467 310 1467 339 1486 c 0,5,6
 354 1496 354 1496 369 1500.5 c 128,-1,7
 384 1505 384 1505 401 1505 c 0,8,9
 416 1505 416 1505 428 1500.5 c 128,-1,10
 440 1496 440 1496 451 1488 c 0,11,12
 454 1485 454 1485 457 1481.5 c 128,-1,13
 460 1478 460 1478 462.5 1474.5 c 128,-1,14
 465 1471 465 1471 466.5 1467 c 128,-1,15
 468 1463 468 1463 469.5 1459 c 128,-1,16
 471 1455 471 1455 472 1450.5 c 128,-1,17
 473 1446 473 1446 473 1441 c 2,18,-1
 473 1440 l 1,19,20
 464 1358 464 1358 458 1286.5 c 128,-1,21
 452 1215 452 1215 448 1152 c 0,22,23
 444 1063 444 1063 444 989 c 0,24,25
 444 958 444 958 444 929 c 0,26,27
 446 832 446 832 457 758 c 0,28,29
 459 746 459 746 460.5 734 c 128,-1,30
 462 722 462 722 464 710.5 c 128,-1,31
 466 699 466 699 467.5 688 c 128,-1,32
 469 677 469 677 471 666 c 128,-1,33
 473 655 473 655 475 645 c 128,-1,34
 477 635 477 635 479 625 c 0,35,36
 483 605 483 605 487.5 586.5 c 128,-1,37
 492 568 492 568 496 550.5 c 128,-1,38
 500 533 500 533 505 517 c 0,39,40
 519 468 519 468 531 421 c 128,-1,41
 543 374 543 374 551 322 c 0,42,43
 553 308 553 308 555 292.5 c 128,-1,44
 557 277 557 277 558 261.5 c 128,-1,45
 559 246 559 246 559 229 c 1,46,-1
 932 663 l 2,47,48
 968 705 968 705 1001 749.5 c 128,-1,49
 1034 794 1034 794 1063.5 841 c 128,-1,50
 1093 888 1093 888 1119.5 936 c 128,-1,51
 1146 984 1146 984 1169 1032.5 c 128,-1,52
 1192 1081 1192 1081 1213 1130.5 c 128,-1,53
 1234 1180 1234 1180 1252 1230 c 0,54,55
 1288 1330 1288 1330 1316 1427 c 2,56,-1
 1316 1428 l 1,57,-1
 1316 1429 l 2,58,59
 1326 1447 1326 1447 1339 1461 c 128,-1,60
 1352 1475 1352 1475 1366 1485 c 0,61,62
 1396 1505 1396 1505 1433 1505 c 0,63,64
 1440 1505 1440 1505 1446 1504 c 128,-1,65
 1452 1503 1452 1503 1457.5 1501.5 c 128,-1,66
 1463 1500 1463 1500 1468.5 1497.5 c 128,-1,67
 1474 1495 1474 1495 1478 1491.5 c 128,-1,68
 1482 1488 1482 1488 1485.5 1483.5 c 128,-1,69
 1489 1479 1489 1479 1491 1474 c 0,70,71
 1495 1467 1495 1467 1497 1458.5 c 128,-1,72
 1499 1450 1499 1450 1499.5 1441.5 c 128,-1,73
 1500 1433 1500 1433 1499.5 1424 c 128,-1,74
 1499 1415 1499 1415 1496 1405 c 0,75,76
 1474 1323 1474 1323 1442 1230 c 0,77,78
 1426 1183 1426 1183 1408 1136 c 128,-1,79
 1390 1089 1390 1089 1369 1042 c 0,80,81
 1327 947 1327 947 1275 857 c 128,-1,82
 1223 767 1223 767 1161 692 c 2,83,-1
 616 50 l 2,84,85
 606 38 606 38 594 29 c 128,-1,86
 582 20 582 20 568 13.5 c 128,-1,87
 554 7 554 7 540.5 3.5 c 128,-1,88
 527 0 527 0 514 0 c 0,89,90
 483 0 483 0 455 15 c 0,91,92
 428 29 428 29 407 51 c 128,-1,93
 386 73 386 73 372 99 c 128,-1,94
 358 125 358 125 354 147 c 0,95,96
 341 244 341 244 320 340 c 0,97,98
 310 388 310 388 300.5 437 c 128,-1,99
 291 486 291 486 281 535 c 0,100,101
 262 633 262 633 247 731 c 0,102,103
 232 830 232 830 227 932 c 0,104,105
 225 966 225 966 225 1000 c 0,106,107
 225 1069 225 1069 232 1139 c 0,108,109
 236 1192 236 1192 246 1246 c 128,-1,110
 256 1300 256 1300 270 1355 c 2,111,-1
 291 1433 l 1,0,-1
EndSplineSet
Validated: 1
EndChar

StartChar: W
Encoding: 87 87 58
Width: 1856
GlyphClass: 2
Flags: W
LayerCount: 2
Fore
SplineSet
432 1499 m 0,0,1
 442 1491 442 1491 441 1479 c 2,2,-1
 445 956 l 1,3,-1
 563 427 l 1,4,-1
 594 286 l 1,5,-1
 595 288 l 2,6,7
 612 313 612 313 626 335.5 c 128,-1,8
 640 358 640 358 652.5 378 c 128,-1,9
 665 398 665 398 676.5 418 c 128,-1,10
 688 438 688 438 699 458 c 0,11,12
 722 499 722 499 746 546 c 2,13,-1
 806 661 l 1,14,-1
 808 662 l 2,15,16
 821 683 821 683 834 703 c 0,17,18
 849 725 849 725 866 742 c 0,19,20
 869 745 869 745 872 748 c 128,-1,21
 875 751 875 751 878 754 c 0,22,23
 879 755 879 755 881 756.5 c 128,-1,24
 883 758 883 758 885 759 c 0,25,26
 889 761 889 761 892 763.5 c 128,-1,27
 895 766 895 766 898.5 768 c 128,-1,28
 902 770 902 770 906 772 c 0,29,30
 912 775 912 775 918 777 c 128,-1,31
 924 779 924 779 931 780.5 c 128,-1,32
 938 782 938 782 944.5 783 c 128,-1,33
 951 784 951 784 958 784 c 0,34,35
 962 784 962 784 966.5 783.5 c 128,-1,36
 971 783 971 783 975 782 c 128,-1,37
 979 781 979 781 983 780 c 128,-1,38
 987 779 987 779 990 777 c 0,39,40
 1004 770 1004 770 1016 758 c 0,41,42
 1038 734 1038 734 1050 693 c 0,43,44
 1052 688 1052 688 1053 683 c 128,-1,45
 1054 678 1054 678 1055.5 673 c 128,-1,46
 1057 668 1057 668 1058 662.5 c 128,-1,47
 1059 657 1059 657 1061 651 c 0,48,49
 1063 640 1063 640 1064.5 628.5 c 128,-1,50
 1066 617 1066 617 1068 604 c 0,51,52
 1074 555 1074 555 1079.5 504 c 128,-1,53
 1085 453 1085 453 1090 404 c 0,54,55
 1092 388 1092 388 1094 372 c 0,56,57
 1095 367 1095 367 1095.5 362.5 c 128,-1,58
 1096 358 1096 358 1097 353 c 128,-1,59
 1098 348 1098 348 1099 344 c 0,60,61
 1102 330 1102 330 1105 317 c 0,62,63
 1110 298 1110 298 1117 283 c 0,64,65
 1120 276 1120 276 1124 269.5 c 128,-1,66
 1128 263 1128 263 1132 257 c 0,67,68
 1140 247 1140 247 1150 242 c 128,-1,69
 1160 237 1160 237 1172 237 c 0,70,71
 1177 239 1177 239 1187 251 c 0,72,73
 1190 254 1190 254 1192.5 256.5 c 128,-1,74
 1195 259 1195 259 1197 262.5 c 128,-1,75
 1199 266 1199 266 1202 269 c 128,-1,76
 1205 272 1205 272 1208 276 c 128,-1,77
 1211 280 1211 280 1214 284 c 128,-1,78
 1217 288 1217 288 1220 292 c 0,79,80
 1239 317 1239 317 1255.5 340.5 c 128,-1,81
 1272 364 1272 364 1287.5 386.5 c 128,-1,82
 1303 409 1303 409 1304 411 c 0,83,84
 1368 500 1368 500 1421 592 c 0,85,86
 1438 622 1438 622 1453.5 653 c 128,-1,87
 1469 684 1469 684 1484 715 c 128,-1,88
 1499 746 1499 746 1513 778 c 0,89,90
 1553 873 1553 873 1580 975 c 0,91,92
 1604 1064 1604 1064 1625 1152 c 128,-1,93
 1646 1240 1646 1240 1669 1328 c 2,94,-1
 1671 1337 l 2,95,96
 1673 1344 1673 1344 1679 1360 c 0,97,98
 1684 1375 1684 1375 1689 1393 c 0,99,100
 1692 1402 1692 1402 1695 1410 c 128,-1,101
 1698 1418 1698 1418 1700 1426 c 0,102,103
 1702 1433 1702 1433 1704 1438.5 c 128,-1,104
 1706 1444 1706 1444 1707 1446 c 2,105,-1
 1707 1448 l 2,106,107
 1712 1457 1712 1457 1717 1464 c 0,108,109
 1720 1468 1720 1468 1722.5 1471 c 128,-1,110
 1725 1474 1725 1474 1728 1477 c 0,111,112
 1734 1483 1734 1483 1741 1489 c 0,113,114
 1745 1492 1745 1492 1748 1494 c 128,-1,115
 1751 1496 1751 1496 1756 1498 c 0,116,117
 1770 1506 1770 1506 1785 1510 c 0,118,119
 1790 1511 1790 1511 1795.5 1512 c 128,-1,120
 1801 1513 1801 1513 1806 1513.5 c 128,-1,121
 1811 1514 1811 1514 1816 1514 c 0,122,123
 1834 1514 1834 1514 1847 1509 c 128,-1,124
 1860 1504 1860 1504 1868 1494 c 0,125,126
 1876 1485 1876 1485 1880.5 1472.5 c 128,-1,127
 1885 1460 1885 1460 1888 1446 c 2,128,-1
 1888 1444 l 1,129,-1
 1888 1442 l 2,130,131
 1871 1370 1871 1370 1857.5 1315 c 128,-1,132
 1844 1260 1844 1260 1831 1210.5 c 128,-1,133
 1818 1161 1818 1161 1805 1110 c 2,134,-1
 1774 995 l 1,135,-1
 1733 841 l 1,136,-1
 1732 840 l 2,137,138
 1719 803 1719 803 1704 766.5 c 128,-1,139
 1689 730 1689 730 1672.5 695 c 128,-1,140
 1656 660 1656 660 1639 625 c 0,141,142
 1585 522 1585 522 1519.5 424 c 128,-1,143
 1454 326 1454 326 1378.5 230.5 c 128,-1,144
 1303 135 1303 135 1220 39 c 2,145,-1
 1219 39 l 1,146,-1
 1218 38 l 2,147,148
 1214 34 1214 34 1210 31 c 128,-1,149
 1206 28 1206 28 1201.5 25 c 128,-1,150
 1197 22 1197 22 1193 19.5 c 128,-1,151
 1189 17 1189 17 1184 14.5 c 128,-1,152
 1179 12 1179 12 1176 10 c 0,153,154
 1165 5 1165 5 1153 2.5 c 128,-1,155
 1141 0 1141 0 1129 0 c 0,156,157
 1115 0 1115 0 1101 3 c 0,158,159
 1094 4 1094 4 1088 6.5 c 128,-1,160
 1082 9 1082 9 1076 11 c 0,161,162
 1064 17 1064 17 1052 26 c 0,163,164
 1035 38 1035 38 1021 54 c 128,-1,165
 1007 70 1007 70 993 89 c 0,166,167
 987 99 987 99 980.5 109 c 128,-1,168
 974 119 974 119 968.5 130 c 128,-1,169
 963 141 963 141 957.5 152.5 c 128,-1,170
 952 164 952 164 947 176 c 0,171,172
 928 224 928 224 913 272 c 128,-1,173
 898 320 898 320 888 364 c 0,174,175
 887 370 887 370 885.5 376 c 128,-1,176
 884 382 884 382 882.5 388 c 128,-1,177
 881 394 881 394 879.5 399.5 c 128,-1,178
 878 405 878 405 877 410.5 c 128,-1,179
 876 416 876 416 875 420 c 1,180,181
 866 403 866 403 854 381 c 0,182,183
 833 340 833 340 807 292 c 0,184,185
 780 244 780 244 747 192 c 0,186,187
 739 179 739 179 730.5 167 c 128,-1,188
 722 155 722 155 713 143 c 0,189,190
 696 120 696 120 678 99 c 0,191,192
 669 88 669 88 659.5 78.5 c 128,-1,193
 650 69 650 69 640.5 60.5 c 128,-1,194
 631 52 631 52 621 44 c 0,195,196
 617 41 617 41 614.5 38.5 c 128,-1,197
 612 36 612 36 608.5 33.5 c 128,-1,198
 605 31 605 31 602 29 c 0,199,200
 581 15 581 15 561 7.5 c 128,-1,201
 541 0 541 0 521 0 c 0,202,203
 509 0 509 0 499 2.5 c 128,-1,204
 489 5 489 5 480.5 9.5 c 128,-1,205
 472 14 472 14 467 22 c 0,206,207
 451 42 451 42 442 68 c 0,208,209
 440 75 440 75 437.5 84 c 128,-1,210
 435 93 435 93 432 103 c 128,-1,211
 429 113 429 113 426 125 c 0,212,213
 416 160 416 160 406 193.5 c 128,-1,214
 396 227 396 227 389 253 c 0,215,216
 386 262 386 262 385 268 c 0,217,218
 384 271 384 271 383.5 273 c 128,-1,219
 383 275 383 275 382 276 c 0,220,221
 381 279 381 279 380 281 c 2,222,-1
 249 915 l 1,223,-1
 250 916 l 2,224,225
 250 919 250 919 247 956 c 0,226,227
 246 975 246 975 246.5 998 c 128,-1,228
 247 1021 247 1021 246 1048 c 0,229,230
 246 1103 246 1103 245 1166 c 0,231,232
 244 1208 244 1208 244 1246 c 0,233,234
 244 1265 244 1265 244 1284 c 0,235,236
 244 1339 244 1339 245 1376 c 0,237,238
 245 1378 245 1378 245 1382 c 0,239,240
 245 1389 245 1389 245 1392 c 128,-1,241
 245 1395 245 1395 245 1399.5 c 128,-1,242
 245 1404 245 1404 245.5 1406.5 c 128,-1,243
 246 1409 246 1409 245.5 1411.5 c 128,-1,244
 245 1414 245 1414 245.5 1415.5 c 128,-1,245
 246 1417 246 1417 246 1418 c 0,246,247
 249 1428 249 1428 253 1437.5 c 128,-1,248
 257 1447 257 1447 263 1456 c 0,249,250
 275 1473 275 1473 293 1487 c 0,251,252
 328 1514 328 1514 369 1514 c 0,253,254
 372 1514 372 1514 375.5 1514 c 128,-1,255
 379 1514 379 1514 382.5 1513.5 c 128,-1,256
 386 1513 386 1513 390 1513 c 0,257,258
 402 1512 402 1512 412 1509 c 0,259,260
 413 1509 413 1509 415 1508 c 128,-1,261
 417 1507 417 1507 418 1506.5 c 128,-1,262
 419 1506 419 1506 420 1505.5 c 128,-1,263
 421 1505 421 1505 423 1505 c 0,264,265
 426 1504 426 1504 428.5 1502.5 c 128,-1,266
 431 1501 431 1501 432 1499 c 0,0,1
EndSplineSet
Validated: 1
EndChar

StartChar: X
Encoding: 88 88 59
Width: 1526
GlyphClass: 2
Flags: W
LayerCount: 2
Fore
SplineSet
-84 27 m 0,0,1
 -94 39 -94 39 -96 55.5 c 128,-1,2
 -98 72 -98 72 -92 91 c 0,3,4
 -84 120 -84 120 -70.5 150 c 128,-1,5
 -57 180 -57 180 -35 211 c 0,6,7
 -15 242 -15 242 9.5 273 c 128,-1,8
 34 304 34 304 62 336 c 0,9,10
 81 357 81 357 100.5 377.5 c 128,-1,11
 120 398 120 398 141.5 419 c 128,-1,12
 163 440 163 440 184 460 c 0,13,14
 250 521 250 521 317 577 c 128,-1,15
 384 633 384 633 444 680 c 0,16,17
 471 701 471 701 495.5 720 c 128,-1,18
 520 739 520 739 540 755 c 1,19,20
 520 796 520 796 490 841 c 0,21,22
 456 890 456 890 419 944 c 128,-1,23
 382 998 382 998 347 1055 c 0,24,25
 330 1084 330 1084 314.5 1113 c 128,-1,26
 299 1142 299 1142 287 1172 c 128,-1,27
 275 1202 275 1202 267.5 1232.5 c 128,-1,28
 260 1263 260 1263 255 1293 c 0,29,30
 252 1314 252 1314 252 1334 c 0,31,32
 252 1375 252 1375 263 1417 c 0,33,34
 265 1426 265 1426 269 1435 c 0,35,36
 270 1438 270 1438 271.5 1441 c 128,-1,37
 273 1444 273 1444 275 1447 c 128,-1,38
 277 1450 277 1450 278 1453 c 0,39,40
 283 1461 283 1461 290 1468.5 c 128,-1,41
 297 1476 297 1476 304 1483 c 0,42,43
 314 1492 314 1492 326 1498.5 c 128,-1,44
 338 1505 338 1505 351.5 1508 c 128,-1,45
 365 1511 365 1511 380 1511 c 0,46,47
 383 1511 383 1511 386.5 1511 c 128,-1,48
 390 1511 390 1511 393 1510.5 c 128,-1,49
 396 1510 396 1510 398.5 1509.5 c 128,-1,50
 401 1509 401 1509 403 1509 c 0,51,52
 413 1507 413 1507 423 1502 c 0,53,54
 426 1500 426 1500 429.5 1497 c 128,-1,55
 433 1494 433 1494 436.5 1490.5 c 128,-1,56
 440 1487 440 1487 443 1482.5 c 128,-1,57
 446 1478 446 1478 449 1472 c 0,58,-1
 450 1472 l 1,59,-1
 449 1471 l 1,60,-1
 450 1470 l 1,61,62
 468 1387 468 1387 492 1307 c 0,63,64
 518 1227 518 1227 551.5 1151 c 128,-1,65
 585 1075 585 1075 627 1005 c 0,66,67
 667 939 667 939 719 880 c 1,68,69
 728 886 728 886 737.5 893 c 128,-1,70
 747 900 747 900 761 909 c 0,71,72
 795 932 795 932 837.5 961.5 c 128,-1,73
 880 991 880 991 926.5 1023.5 c 128,-1,74
 973 1056 973 1056 1015 1085 c 128,-1,75
 1057 1114 1057 1114 1089.5 1137.5 c 128,-1,76
 1122 1161 1122 1161 1138 1173 c 0,77,78
 1145 1178 1145 1178 1154.5 1185.5 c 128,-1,79
 1164 1193 1164 1193 1174 1202 c 0,80,81
 1179 1206 1179 1206 1184 1210.5 c 128,-1,82
 1189 1215 1189 1215 1194 1221 c 0,83,84
 1226 1252 1226 1252 1265 1289 c 0,85,86
 1302 1326 1302 1326 1342 1365 c 0,87,88
 1362 1385 1362 1385 1382 1403 c 128,-1,89
 1402 1421 1402 1421 1421 1436.5 c 128,-1,90
 1440 1452 1440 1452 1459 1465.5 c 128,-1,91
 1478 1479 1478 1479 1496 1489 c 0,92,93
 1502 1493 1502 1493 1508.5 1496 c 128,-1,94
 1515 1499 1515 1499 1520 1501 c 0,95,96
 1532 1506 1532 1506 1543 1509 c 0,97,98
 1548 1510 1548 1510 1554 1510.5 c 128,-1,99
 1560 1511 1560 1511 1565 1511 c 0,100,101
 1568 1511 1568 1511 1570.5 1511 c 128,-1,102
 1573 1511 1573 1511 1575.5 1510.5 c 128,-1,103
 1578 1510 1578 1510 1580 1510 c 128,-1,104
 1582 1510 1582 1510 1584 1509.5 c 128,-1,105
 1586 1509 1586 1509 1589 1508 c 0,106,107
 1600 1505 1600 1505 1609.5 1500 c 128,-1,108
 1619 1495 1619 1495 1626 1487 c 0,109,110
 1637 1475 1637 1475 1640 1458 c 0,111,112
 1642 1450 1642 1450 1640.5 1440 c 128,-1,113
 1639 1430 1639 1430 1637 1420 c 0,114,115
 1632 1401 1632 1401 1621 1381 c 128,-1,116
 1610 1361 1610 1361 1593 1339 c 0,117,118
 1561 1297 1561 1297 1515 1255 c 0,119,120
 1493 1234 1493 1234 1469.5 1213.5 c 128,-1,121
 1446 1193 1446 1193 1420.5 1172.5 c 128,-1,122
 1395 1152 1395 1152 1370.5 1133 c 128,-1,123
 1346 1114 1346 1114 1321 1096 c 0,124,125
 1305 1084 1305 1084 1290 1073 c 128,-1,126
 1275 1062 1275 1062 1260 1052 c 128,-1,127
 1245 1042 1245 1042 1232 1033 c 0,128,129
 1193 1006 1193 1006 1169 990 c 0,130,131
 1166 988 1166 988 1162 984.5 c 128,-1,132
 1158 981 1158 981 1152 977 c 128,-1,133
 1146 973 1146 973 1137 967 c 0,134,135
 1114 951 1114 951 1082 928.5 c 128,-1,136
 1050 906 1050 906 1014 881.5 c 128,-1,137
 978 857 978 857 946 835 c 128,-1,138
 914 813 914 813 890.5 796.5 c 128,-1,139
 867 780 867 780 860 775 c 0,140,-1
 859 775 l 1,141,-1
 858 774 l 1,142,-1
 857 774 l 1,143,-1
 856 773 l 1,144,-1
 853 771 l 2,145,146
 852 770 852 770 850.5 769 c 128,-1,147
 849 768 849 768 847 767 c 128,-1,148
 845 766 845 766 844 765 c 2,149,-1
 835 757 l 2,150,151
 837 754 837 754 838 752.5 c 128,-1,152
 839 751 839 751 842 748 c 0,153,154
 846 742 846 742 851 735.5 c 128,-1,155
 856 729 856 729 862.5 722 c 128,-1,156
 869 715 869 715 876 708 c 0,157,158
 905 676 905 676 942 637 c 128,-1,159
 979 598 979 598 1022 553 c 0,160,161
 1043 530 1043 530 1064.5 507 c 128,-1,162
 1086 484 1086 484 1106 460 c 0,163,164
 1147 412 1147 412 1183 364 c 128,-1,165
 1219 316 1219 316 1244 269 c 0,166,167
 1251 257 1251 257 1256.5 245.5 c 128,-1,168
 1262 234 1262 234 1266.5 223 c 128,-1,169
 1271 212 1271 212 1274.5 201 c 128,-1,170
 1278 190 1278 190 1281 179 c 0,171,172
 1287 157 1287 157 1287 136.5 c 128,-1,173
 1287 116 1287 116 1282 97 c 0,174,175
 1269 53 1269 53 1237 28 c 0,176,177
 1221 16 1221 16 1201.5 9.5 c 128,-1,178
 1182 3 1182 3 1161 3 c 0,179,180
 1158 3 1158 3 1154.5 3 c 128,-1,181
 1151 3 1151 3 1148 3.5 c 128,-1,182
 1145 4 1145 4 1142 4 c 0,183,184
 1133 5 1133 5 1126 9 c 0,185,186
 1122 10 1122 10 1118.5 12 c 128,-1,187
 1115 14 1115 14 1111 16 c 0,188,189
 1108 17 1108 17 1106.5 19 c 128,-1,190
 1105 21 1105 21 1103 23 c 128,-1,191
 1101 25 1101 25 1099 27 c 0,192,193
 1088 38 1088 38 1080 51.5 c 128,-1,194
 1072 65 1072 65 1065 81 c 0,195,196
 1052 112 1052 112 1041 146 c 0,197,198
 1038 157 1038 157 1034 166.5 c 128,-1,199
 1030 176 1030 176 1025.5 184.5 c 128,-1,200
 1021 193 1021 193 1016 200 c 0,201,202
 970 264 970 264 927.5 318 c 128,-1,203
 885 372 885 372 841.5 424 c 128,-1,204
 798 476 798 476 750 527 c 0,205,206
 727 552 727 552 703 580 c 0,207,208
 679 606 679 606 654 633 c 1,209,210
 646 627 646 627 639 621.5 c 128,-1,211
 632 616 632 616 625 610 c 0,212,213
 609 597 609 597 593 583.5 c 128,-1,214
 577 570 577 570 561 557 c 128,-1,215
 545 544 545 544 530 530 c 0,216,217
 522 523 522 523 514.5 516.5 c 128,-1,218
 507 510 507 510 499 503 c 0,219,220
 421 434 421 434 347 361.5 c 128,-1,221
 273 289 273 289 205 212 c 128,-1,222
 137 135 137 135 76 50 c 2,223,-1
 74 49 l 2,224,225
 51 22 51 22 26 12 c 0,226,227
 2 3 2 3 -27 3 c 0,228,229
 -36 3 -36 3 -44 4.5 c 128,-1,230
 -52 6 -52 6 -59 9 c 0,231,232
 -61 10 -61 10 -62.5 10.5 c 128,-1,233
 -64 11 -64 11 -65 12 c 128,-1,234
 -66 13 -66 13 -67.5 13.5 c 128,-1,235
 -69 14 -69 14 -70.5 15 c 128,-1,236
 -72 16 -72 16 -72 17 c 0,237,238
 -75 19 -75 19 -78.5 21.5 c 128,-1,239
 -82 24 -82 24 -84 27 c 0,0,1
EndSplineSet
Validated: 1
EndChar

StartChar: Y
Encoding: 89 89 60
Width: 1317
GlyphClass: 2
Flags: W
LayerCount: 2
Fore
SplineSet
1004 1103 m 0,0,1
 1046 1147 1046 1147 1083 1193 c 0,2,-1
 1090 1204 l 2,3,4
 1092 1207 1092 1207 1094 1210 c 128,-1,5
 1096 1213 1096 1213 1098 1216 c 0,6,7
 1102 1222 1102 1222 1107 1229.5 c 128,-1,8
 1112 1237 1112 1237 1116 1245 c 0,9,10
 1125 1261 1125 1261 1135 1277.5 c 128,-1,11
 1145 1294 1145 1294 1155 1312 c 0,12,13
 1176 1348 1176 1348 1198 1383 c 0,14,15
 1200 1387 1200 1387 1202 1390 c 128,-1,16
 1204 1393 1204 1393 1207 1397 c 0,17,18
 1212 1404 1212 1404 1217 1410.5 c 128,-1,19
 1222 1417 1222 1417 1226.5 1423.5 c 128,-1,20
 1231 1430 1231 1430 1236 1436 c 128,-1,21
 1241 1442 1241 1442 1246 1448 c 0,22,23
 1259 1463 1259 1463 1273 1475.5 c 128,-1,24
 1287 1488 1287 1488 1302 1498 c 0,25,26
 1306 1500 1306 1500 1309.5 1502 c 128,-1,27
 1313 1504 1313 1504 1316.5 1506 c 128,-1,28
 1320 1508 1320 1508 1325 1510 c 0,29,30
 1336 1515 1336 1515 1348 1517 c 0,31,32
 1353 1518 1353 1518 1359 1518.5 c 128,-1,33
 1365 1519 1365 1519 1371 1519 c 0,34,35
 1381 1519 1381 1519 1389.5 1518 c 128,-1,36
 1398 1517 1398 1517 1405.5 1514.5 c 128,-1,37
 1413 1512 1413 1512 1420 1508.5 c 128,-1,38
 1427 1505 1427 1505 1433 1501 c 0,39,40
 1446 1491 1446 1491 1450 1474 c 0,41,42
 1454 1458 1454 1458 1448 1436 c 0,43,44
 1443 1419 1443 1419 1436 1400.5 c 128,-1,45
 1429 1382 1429 1382 1420.5 1363.5 c 128,-1,46
 1412 1345 1412 1345 1401 1325 c 0,47,48
 1368 1267 1368 1267 1326 1210 c 0,49,50
 1285 1153 1285 1153 1240 1102 c 0,51,52
 1229 1089 1229 1089 1217.5 1077 c 128,-1,53
 1206 1065 1206 1065 1197 1054 c 0,54,55
 1190 1046 1190 1046 1183 1039 c 128,-1,56
 1176 1032 1176 1032 1169 1025 c 128,-1,57
 1162 1018 1162 1018 1156 1012 c 2,58,-1
 848 714 l 1,59,-1
 844 709 l 1,60,-1
 833 666 l 2,61,62
 806 566 806 566 786 460 c 0,63,64
 766 353 766 353 740 252 c 0,65,66
 736 237 736 237 731 214 c 0,67,68
 727 190 727 190 720 163 c 0,69,70
 717 150 717 150 712 137 c 0,71,72
 711 133 711 133 709 128.5 c 128,-1,73
 707 124 707 124 706 119.5 c 128,-1,74
 705 115 705 115 703 110 c 0,75,76
 700 103 700 103 697 96.5 c 128,-1,77
 694 90 694 90 690 83 c 0,78,79
 688 81 688 81 688 79.5 c 128,-1,80
 688 78 688 78 686.5 76 c 128,-1,81
 685 74 685 74 684 72.5 c 128,-1,82
 683 71 683 71 682 69 c 128,-1,83
 681 67 681 67 679.5 65.5 c 128,-1,84
 678 64 678 64 677 62.5 c 128,-1,85
 676 61 676 61 675 59 c 0,86,87
 657 35 657 35 630 19 c 0,88,89
 603 3 603 3 568 3 c 0,90,91
 557 3 557 3 547 4.5 c 128,-1,92
 537 6 537 6 527.5 9 c 128,-1,93
 518 12 518 12 510 17 c 0,94,95
 482 32 482 32 482 71 c 2,96,-1
 482 72 l 1,97,-1
 483 73 l 1,98,-1
 483 74 l 2,99,100
 502 135 502 135 519 197 c 2,101,-1
 525 219 l 2,102,103
 545 293 545 293 560.5 366.5 c 128,-1,104
 576 440 576 440 590 514 c 0,105,106
 604 587 604 587 615 656 c 1,107,-1
 616 675 l 2,108,109
 615 677 l 0,110,111
 615 678 615 678 615 679 c 2,112,-1
 613 680 l 2,113,114
 613 681 l 2,115,-1
 612 682 l 1,116,-1
 610 683 l 1,117,-1
 387 938 l 2,118,119
 383 942 383 942 380 946 c 128,-1,120
 377 950 377 950 373 954.5 c 128,-1,121
 369 959 369 959 366 964 c 128,-1,122
 363 969 363 969 359.5 973.5 c 128,-1,123
 356 978 356 978 353 983 c 128,-1,124
 350 988 350 988 346.5 993 c 128,-1,125
 343 998 343 998 339.5 1003.5 c 128,-1,126
 336 1009 336 1009 333 1014.5 c 128,-1,127
 330 1020 330 1020 327 1025.5 c 128,-1,128
 324 1031 324 1031 321 1036 c 0,129,130
 313 1050 313 1050 306 1065.5 c 128,-1,131
 299 1081 299 1081 292.5 1096.5 c 128,-1,132
 286 1112 286 1112 279.5 1127.5 c 128,-1,133
 273 1143 273 1143 268 1159.5 c 128,-1,134
 263 1176 263 1176 259 1193 c 128,-1,135
 255 1210 255 1210 252 1226 c 0,136,137
 245 1260 245 1260 242 1294 c 0,138,139
 241 1306 241 1306 240 1317 c 128,-1,140
 239 1328 239 1328 239.5 1339.5 c 128,-1,141
 240 1351 240 1351 240 1362 c 0,142,143
 243 1396 243 1396 252 1428 c 0,144,145
 255 1438 255 1438 258.5 1447 c 128,-1,146
 262 1456 262 1456 268 1464.5 c 128,-1,147
 274 1473 274 1473 282 1480 c 0,148,149
 286 1483 286 1483 289 1486 c 128,-1,150
 292 1489 292 1489 297 1492 c 0,151,152
 330 1513 330 1513 371 1513 c 0,153,154
 405 1513 405 1513 426 1489 c 0,155,156
 428 1486 428 1486 430.5 1483 c 128,-1,157
 433 1480 433 1480 435 1477 c 128,-1,158
 437 1474 437 1474 438.5 1470.5 c 128,-1,159
 440 1467 440 1467 442 1464 c 0,160,161
 449 1450 449 1450 456 1433 c 0,162,163
 467 1400 467 1400 474 1361 c 0,164,165
 481 1322 481 1322 485 1285 c 0,166,167
 491 1248 491 1248 497 1215 c 0,168,169
 502 1184 502 1184 510 1168 c 0,170,171
 558 1080 558 1080 621 997 c 0,172,173
 650 959 650 959 682 924.5 c 128,-1,174
 714 890 714 890 749 859 c 1,175,176
 753 863 753 863 756.5 865.5 c 128,-1,177
 760 868 760 868 762 870.5 c 128,-1,178
 764 873 764 873 768 876 c 0,179,180
 782 889 782 889 796 902 c 128,-1,181
 810 915 810 915 826 929 c 0,182,183
 872 971 872 971 917 1014.5 c 128,-1,184
 962 1058 962 1058 1004 1103 c 0,0,1
EndSplineSet
Validated: 1
EndChar

StartChar: Z
Encoding: 90 90 61
Width: 1512
GlyphClass: 2
Flags: W
LayerCount: 2
Fore
SplineSet
1232 221 m 1,0,1
 1283 205 1283 205 1283 156 c 0,2,3
 1283 142 1283 142 1279 126 c 0,4,5
 1269 88 1269 88 1229 57 c 0,6,7
 1226 55 1226 55 1224 54 c 128,-1,8
 1222 53 1222 53 1220 52 c 0,9,10
 1204 42 1204 42 1190 38 c 1,11,-1
 1159 38 l 2,12,13
 1038 38 1038 38 945 30 c 0,14,15
 822 21 822 21 790 18 c 0,16,17
 609 1 609 1 413 1 c 0,18,19
 247 1 247 1 104 18 c 0,20,21
 45 25 45 25 -10 34 c 0,22,23
 -67 44 -67 44 -87 66.5 c 128,-1,24
 -107 89 -107 89 -100 114.5 c 128,-1,25
 -93 140 -93 140 -89.5 151 c 128,-1,26
 -86 162 -86 162 -80 173.5 c 128,-1,27
 -74 185 -74 185 -68 196 c 0,28,29
 44 391 44 391 421 698 c 0,30,31
 453 724 453 724 473 740 c 0,32,33
 493 755 493 755 501 761 c 128,-1,34
 509 767 509 767 516 772 c 128,-1,35
 523 777 523 777 530 782.5 c 128,-1,36
 537 788 537 788 546.5 794.5 c 128,-1,37
 556 801 556 801 567.5 809.5 c 128,-1,38
 579 818 579 818 589 825 c 2,39,-1
 1135 1192 l 1,40,-1
 1270 1296 l 1,41,-1
 993 1291 l 1,42,43
 903 1291 903 1291 814 1296 c 1,44,-1
 465 1320 l 2,45,46
 392 1325 392 1325 320 1325 c 2,47,-1
 291 1325 l 1,48,49
 244 1340 244 1340 244 1385 c 0,50,51
 244 1399 244 1399 248 1416 c 0,52,53
 267 1487 267 1487 339 1508 c 1,54,-1
 470 1508 l 2,55,56
 544 1508 544 1508 618 1503 c 0,57,58
 972 1479 972 1479 1122 1479 c 4,59,60
 1274 1479 1274 1479 1535 1514 c 1,61,-1
 1557 1514 l 2,62,63
 1621 1514 1621 1514 1630 1462 c 0,64,65
 1633 1446 1633 1446 1627 1426 c 0,66,67
 1601 1330 1601 1330 1377 1158 c 0,68,69
 1259 1067 1259 1067 1142 989 c 0,70,71
 548 593 548 593 411 485 c 0,72,73
 193 313 193 313 162 212 c 1,74,75
 232 191 232 191 375 191 c 2,76,-1
 411 191 l 1,77,78
 456 192 456 192 515.5 192 c 128,-1,79
 575 192 575 192 651 196 c 128,-1,80
 727 200 727 200 802 206 c 0,81,82
 993 221 993 221 1105 221 c 2,83,-1
 1232 221 l 1,0,1
EndSplineSet
Validated: 1
EndChar

StartChar: bracketleft
Encoding: 91 91 62
Width: 868
GlyphClass: 2
Flags: W
LayerCount: 2
Fore
SplineSet
-100 -192 m 1,0,-1
 139 449 l 1,1,-1
 474 1483 l 2,2,3
 478 1494 478 1494 487.5 1504 c 128,-1,4
 497 1514 497 1514 508.5 1521 c 128,-1,5
 520 1528 520 1528 532 1532 c 128,-1,6
 544 1536 544 1536 554 1536 c 2,7,-1
 979 1536 l 2,8,9
 994 1536 994 1536 1003 1529.5 c 128,-1,10
 1012 1523 1012 1523 1016.5 1512.5 c 128,-1,11
 1021 1502 1021 1502 1021 1489 c 128,-1,12
 1021 1476 1021 1476 1018 1464 c 0,13,14
 1016 1455 1016 1455 1010.5 1443.5 c 128,-1,15
 1005 1432 1005 1432 997 1421 c 128,-1,16
 989 1410 989 1410 978 1402.5 c 128,-1,17
 967 1395 967 1395 954 1395 c 2,18,-1
 588 1395 l 1,19,-1
 308 521 l 1,20,-1
 73 -134 l 1,21,-1
 465 -134 l 2,22,23
 494 -134 494 -134 502.5 -158 c 128,-1,24
 511 -182 511 -182 503 -209 c 0,25,26
 496 -234 496 -234 482.5 -247.5 c 128,-1,27
 469 -261 469 -261 441 -271 c 1,28,29
 380 -274 380 -274 334 -275 c 128,-1,30
 288 -276 288 -276 245.5 -277 c 128,-1,31
 203 -278 203 -278 160 -278 c 128,-1,32
 117 -278 117 -278 63 -278 c 2,33,-1
 -71 -278 l 2,34,35
 -85 -278 -85 -278 -93 -271.5 c 128,-1,36
 -101 -265 -101 -265 -104.5 -254.5 c 128,-1,37
 -108 -244 -108 -244 -107.5 -232 c 128,-1,38
 -107 -220 -107 -220 -105 -209 c 2,39,-1
 -100 -192 l 1,0,-1
EndSplineSet
Validated: 1
EndChar

StartChar: backslash
Encoding: 92 92 63
Width: 963
GlyphClass: 2
Flags: W
LayerCount: 2
Fore
SplineSet
697 1 m 0,0,1
 686 -39 686 -39 652.5 -65.5 c 128,-1,2
 619 -92 619 -92 579 -92 c 0,3,4
 542 -92 542 -92 525.5 -73 c 128,-1,5
 509 -54 509 -54 503.5 -25.5 c 128,-1,6
 498 3 498 3 497 35.5 c 128,-1,7
 496 68 496 68 490 94 c 1,8,-1
 382 729 l 1,9,10
 371 770 371 770 359.5 823.5 c 128,-1,11
 348 877 348 877 337.5 937.5 c 128,-1,12
 327 998 327 998 319.5 1062 c 128,-1,13
 312 1126 312 1126 310 1190 c 0,14,15
 309 1213 309 1213 309 1234 c 0,16,17
 310 1274 310 1274 312 1312 c 0,18,19
 316 1372 316 1372 329 1422 c 0,20,21
 335 1444 335 1444 348 1460.5 c 128,-1,22
 361 1477 361 1477 378.5 1488.5 c 128,-1,23
 396 1500 396 1500 416 1505.5 c 128,-1,24
 436 1511 436 1511 456 1511 c 0,25,26
 518 1511 518 1511 523 1451 c 1,27,28
 523 1434 523 1434 523 1415 c 0,29,30
 523 1376 523 1376 524 1328 c 0,31,32
 526 1256 526 1256 531 1177.5 c 128,-1,33
 536 1099 536 1099 544.5 1024.5 c 128,-1,34
 553 950 553 950 566 895 c 1,35,-1
 687 186 l 1,36,37
 692 166 692 166 696 143 c 128,-1,38
 700 120 700 120 702.5 96 c 128,-1,39
 705 72 705 72 704 47.5 c 128,-1,40
 703 23 703 23 697 1 c 0,0,1
EndSplineSet
Validated: 1
EndChar

StartChar: bracketright
Encoding: 93 93 64
Width: 854
GlyphClass: 2
Flags: W
LayerCount: 2
Fore
SplineSet
482 -209 m 2,0,1
 479 -220 479 -220 473 -232 c 128,-1,2
 467 -244 467 -244 457.5 -254.5 c 128,-1,3
 448 -265 448 -265 436.5 -271.5 c 128,-1,4
 425 -278 425 -278 412 -278 c 2,5,-1
 278 -278 l 2,6,7
 224 -278 224 -278 181 -278 c 128,-1,8
 138 -278 138 -278 96.5 -277 c 128,-1,9
 55 -276 55 -276 9 -275 c 128,-1,10
 -37 -274 -37 -274 -96 -271 c 1,11,12
 -118 -261 -118 -261 -125 -247.5 c 128,-1,13
 -132 -234 -132 -234 -126 -209 c 0,14,15
 -119 -182 -119 -182 -97 -158 c 128,-1,16
 -75 -134 -75 -134 -46 -134 c 2,17,-1
 346 -134 l 1,18,-1
 483 521 l 1,19,-1
 710 1395 l 1,20,-1
 351 1395 l 2,21,22
 337 1395 337 1395 330.5 1402.5 c 128,-1,23
 324 1410 324 1410 322 1421 c 128,-1,24
 320 1432 320 1432 321 1443.5 c 128,-1,25
 322 1455 322 1455 325 1464 c 0,26,27
 328 1476 328 1476 335 1489 c 128,-1,28
 342 1502 342 1502 352.5 1512.5 c 128,-1,29
 363 1523 363 1523 375 1529.5 c 128,-1,30
 387 1536 387 1536 402 1536 c 2,31,-1
 820 1536 l 2,32,33
 830 1536 830 1536 840 1532 c 128,-1,34
 850 1528 850 1528 857.5 1521 c 128,-1,35
 865 1514 865 1514 869 1504 c 128,-1,36
 873 1494 873 1494 872 1483 c 1,37,-1
 614 449 l 1,38,-1
 487 -192 l 1,39,-1
 482 -209 l 2,0,1
EndSplineSet
Validated: 1
EndChar

StartChar: asciicircum
Encoding: 94 94 65
Width: 1030
GlyphClass: 2
Flags: W
LayerCount: 2
Fore
SplineSet
908 1010 m 0,0,1
 908 1009 l 0,2,3
 906 1000 906 1000 872 946 c 0,4,5
 844 900 844 900 801 900 c 0,6,7
 798 900 798 900 795 900 c 0,8,9
 742 903 742 903 718 919 c 0,10,-1
 672 965 l 0,11,-1
 629 1012 l 0,12,13
 573.98245614 1077.8245614 573.98245614 1077.8245614 573.98245614 1079.94459834 c 0,14,15
 573.98245614 1079.98245614 573.98245614 1079.98245614 574 1080 c 0,16,17
 573 1095 573 1095 539 1130 c 0,18,-1
 504 1184 l 1,19,-1
 397 1107 l 0,20,-1
 279 1025 l 0,21,22
 185 959 185 959 139 919 c 0,23,24
 92 878 92 878 61 878 c 0,25,-1
 34 878 l 0,26,27
 17 877 17 877 2 889 c 0,28,29
 -30 915 -30 915 -30 956 c 0,30,31
 -30 972 -30 972 -25 989 c 0,32,33
 -17 1018 -17 1018 30 1052 c 0,34,35
 76 1085 76 1085 121 1118 c 0,36,-1
 234 1201 l 0,37,-1
 365 1307 l 0,38,39
 395 1341 395 1341 468 1413 c 0,40,41
 527 1471 527 1471 533 1476 c 0,42,-1
 577 1486 l 0,43,44
 592 1489 592 1489 607 1474 c 0,45,46
 621 1461 621 1461 633 1437 c 0,47,48
 656 1393 656 1393 658 1389 c 0,49,50
 682 1335 682 1335 689 1319 c 0,51,52
 725 1237 725 1237 749 1214 c 2,53,-1
 861 1098 l 1,54,55
 900 1050 900 1050 908 1010 c 0,0,1
EndSplineSet
Validated: 1
EndChar

StartChar: grave
Encoding: 96 96 67
Width: 730
GlyphClass: 2
Flags: W
LayerCount: 2
Fore
SplineSet
89 1411 m 1,0,1
 90 1419 90 1419 92 1426 c 0,2,3
 105 1475 105 1475 167 1506 c 0,4,5
 191 1518 191 1518 211 1518 c 0,6,7
 248 1518 248 1518 271 1477 c 0,8,9
 305 1414 305 1414 314 1400 c 0,10,11
 423 1235 423 1235 605 1191 c 0,12,13
 613 1189 613 1189 616 1180 c 0,14,15
 620 1165 620 1165 604 1136 c 0,16,17
 588 1108 588 1108 540 1084 c 0,18,19
 516 1072 516 1072 485 1072 c 0,20,21
 477 1072 477 1072 468 1073 c 0,22,23
 323 1087 323 1087 240 1160 c 0,24,25
 137 1251 137 1251 104 1360 c 2,26,-1
 89 1411 l 1,0,1
EndSplineSet
Validated: 1
EndChar

StartChar: a
Encoding: 97 97 68
Width: 1149
GlyphClass: 2
Flags: W
LayerCount: 2
Fore
SplineSet
908 819 m 17,0,1
 889 826 889 826 801 826 c 0,2,3
 349 826 349 826 256 480 c 0,4,5
 232 390 232 390 232 335 c 0,6,7
 232 314 232 314 236 298 c 0,8,9
 248 240 248 240 290 199.5 c 128,-1,10
 332 159 332 159 391 159 c 0,11,12
 505 159 505 159 631 247 c 128,-1,13
 757 335 757 335 803 442 c 1,14,-1
 908 819 l 17,0,1
827 517 m 1050,15,-1
32 292 m 0,16,17
 36 383 36 383 68.5 505.5 c 128,-1,18
 101 628 101 628 177 732 c 0,19,20
 324 935 324 935 588 1000 c 0,21,22
 716 1032 716 1032 833 1032 c 0,23,24
 835 1032 835 1032 836 1032 c 0,25,26
 853 1032 853 1032 868 1031 c 0,27,28
 958 1031 958 1031 974 1034 c 0,29,30
 978 1035 978 1035 983 1035 c 0,31,32
 1000 1035 1000 1035 1026 1026 c 2,33,-1
 1057 1016 l 2,34,35
 1083 1008 1083 1008 1105.5 985.5 c 128,-1,36
 1128 963 1128 963 1122 941 c 2,37,-1
 997 434 l 2,38,39
 985 387 985 387 985 322 c 0,40,41
 985 308 985 308 986 294 c 0,42,43
 987 259 987 259 987 229 c 0,44,45
 986 130 986 130 976 92 c 0,46,47
 962 42 962 42 928.5 12 c 128,-1,48
 895 -18 895 -18 852 -18 c 0,49,50
 775 -18 775 -18 767 50 c 0,51,52
 761 96 761 96 761 136 c 0,53,54
 761 142 761 142 761 148 c 1,55,56
 649 71 649 71 580 39 c 0,57,58
 444 -23 444 -23 331.5 -23 c 128,-1,59
 219 -23 219 -23 152.5 19 c 128,-1,60
 86 61 86 61 58 131 c 0,61,62
 33 193 33 193 32 272 c 0,63,64
 32 282 32 282 32 292 c 0,16,17
EndSplineSet
Validated: 1
EndChar

StartChar: b
Encoding: 98 98 69
Width: 1246
GlyphClass: 2
Flags: W
LayerCount: 2
Fore
SplineSet
-52.298828125 86 m 1,0,-1
 105.701171875 438 l 2,1,2
 109.701171875 449 109.701171875 449 125.701171875 491 c 128,-1,3
 141.701171875 533 141.701171875 533 163.201171875 594 c 128,-1,4
 184.701171875 655 184.701171875 655 210.701171875 727.5 c 128,-1,5
 236.701171875 800 236.701171875 800 261.701171875 870.5 c 128,-1,6
 286.701171875 941 286.701171875 941 307.701171875 1003 c 128,-1,7
 328.701171875 1065 328.701171875 1065 342.701171875 1105 c 0,8,9
 348.701171875 1123 348.701171875 1123 359.701171875 1160 c 128,-1,10
 370.701171875 1197 370.701171875 1197 384.701171875 1244 c 128,-1,11
 398.701171875 1291 398.701171875 1291 413.701171875 1342.5 c 128,-1,12
 428.701171875 1394 428.701171875 1394 442.701171875 1441 c 128,-1,13
 456.701171875 1488 456.701171875 1488 467.201171875 1524.5 c 128,-1,14
 477.701171875 1561 477.701171875 1561 482.701171875 1579 c 1,15,16
 500.701171875 1613 500.701171875 1613 530.701171875 1634.5 c 128,-1,17
 560.701171875 1656 560.701171875 1656 596.701171875 1656 c 0,18,19
 625.701171875 1656 625.701171875 1656 644.201171875 1638.5 c 128,-1,20
 662.701171875 1621 662.701171875 1621 665.701171875 1592 c 1,21,-1
 612.701171875 1397 l 2,22,23
 592.701171875 1322 592.701171875 1322 573.701171875 1261.5 c 128,-1,24
 554.701171875 1201 554.701171875 1201 535.701171875 1143.5 c 128,-1,25
 516.701171875 1086 516.701171875 1086 497.701171875 1025.5 c 128,-1,26
 478.701171875 965 478.701171875 965 457.701171875 890 c 1,27,-1
 759.701171875 913 l 1,28,29
 826.701171875 913 826.701171875 913 885.201171875 890 c 128,-1,30
 943.701171875 867 943.701171875 867 990.701171875 826 c 128,-1,31
 1037.70117188 785 1037.70117188 785 1071.70117188 730 c 128,-1,32
 1105.70117188 675 1105.70117188 675 1123.70117188 611 c 0,33,34
 1141.70117188 546 1141.70117188 546 1142.70117188 476 c 0,35,36
 1142.70117188 472 1142.70117188 472 1142.70117188 469 c 0,37,38
 1142.70117188 402 1142.70117188 402 1124.70117188 336 c 0,39,40
 1102.70117188 255 1102.70117188 255 1060.20117188 191 c 128,-1,41
 1017.70117188 127 1017.70117188 127 959.201171875 82.5 c 128,-1,42
 900.701171875 38 900.701171875 38 828.701171875 14 c 128,-1,43
 756.701171875 -10 756.701171875 -10 675.701171875 -10 c 0,44,45
 529.701171875 -10 529.701171875 -10 401.201171875 16.5 c 128,-1,46
 272.701171875 43 272.701171875 43 165.701171875 108 c 1,47,48
 147.701171875 83 147.701171875 83 135.701171875 60.5 c 128,-1,49
 123.701171875 38 123.701171875 38 108.701171875 20.5 c 128,-1,50
 93.701171875 3 93.701171875 3 71.701171875 -7 c 128,-1,51
 49.701171875 -17 49.701171875 -17 12.701171875 -17 c 0,52,53
 -25.298828125 -17 -25.298828125 -17 -46.298828125 7 c 0,54,55
 -60.298828125 23 -60.298828125 23 -60.298828125 46 c 0,56,57
 -60.298828125 58 -60.298828125 58 -56.298828125 73 c 2,58,-1
 -52.298828125 86 l 1,0,-1
264.701171875 336 m 2,59,60
 257.701171875 311 257.701171875 311 282.201171875 289.5 c 128,-1,61
 306.701171875 268 306.701171875 268 349.201171875 250 c 128,-1,62
 391.701171875 232 391.701171875 232 445.701171875 218 c 128,-1,63
 499.701171875 204 499.701171875 204 552.701171875 194.5 c 128,-1,64
 605.701171875 185 605.701171875 185 650.201171875 180 c 128,-1,65
 694.701171875 175 694.701171875 175 718.701171875 175 c 0,66,67
 805.701171875 175 805.701171875 175 857.201171875 212.5 c 128,-1,68
 908.701171875 250 908.701171875 250 932.701171875 339 c 0,69,70
 944.701171875 385 944.701171875 385 944.701171875 426 c 0,71,72
 944.701171875 466 944.701171875 466 933.701171875 501 c 0,73,74
 910.701171875 573 910.701171875 573 859.201171875 623 c 128,-1,75
 807.701171875 673 807.701171875 673 737.201171875 700 c 128,-1,76
 666.701171875 727 666.701171875 727 594.701171875 727 c 0,77,78
 565.701171875 727 565.701171875 727 542.201171875 723 c 128,-1,79
 518.701171875 719 518.701171875 719 495.201171875 714 c 128,-1,80
 471.701171875 709 471.701171875 709 445.201171875 702.5 c 128,-1,81
 418.701171875 696 418.701171875 696 385.701171875 692 c 1,82,83
 382.701171875 685 382.701171875 685 374.201171875 659.5 c 128,-1,84
 365.701171875 634 365.701171875 634 353.701171875 599 c 128,-1,85
 341.701171875 564 341.701171875 564 328.201171875 525 c 128,-1,86
 314.701171875 486 314.701171875 486 302.701171875 451 c 128,-1,87
 290.701171875 416 290.701171875 416 282.201171875 390.5 c 128,-1,88
 273.701171875 365 273.701171875 365 270.701171875 358 c 1,89,-1
 264.701171875 336 l 2,59,60
EndSplineSet
Validated: 1
EndChar

StartChar: c
Encoding: 99 99 70
Width: 1065
GlyphClass: 2
Flags: W
LayerCount: 2
Fore
SplineSet
109 156 m 0,0,1
 66 245 66 245 66 357 c 0,2,3
 66 445 66 445 93 547 c 0,4,5
 93 548 93 548 94 549 c 0,6,7
 152 767 152 767 307 893 c 0,8,9
 457 1017 457 1017 678 1017 c 0,10,11
 879 1017 879 1017 1084 932 c 1,12,13
 1126 907 1126 907 1126 861 c 0,14,15
 1126 847 1126 847 1122 831 c 0,16,17
 1122 830 1122 830 1121 829 c 0,18,19
 1110 790 1110 790 1073 762 c 0,20,21
 1033 734 1033 734 986 734 c 0,22,23
 940 734 940 734 885 753 c 0,24,25
 732 806 732 806 616 806 c 0,26,27
 372 806 372 806 306 557 c 0,28,29
 305 555 305 555 305 553 c 0,30,31
 284 474 284 474 284 411 c 0,32,33
 284 285 284 285 368 227 c 0,34,35
 414 195 414 195 475 195 c 0,36,37
 537 195 537 195 605.5 217 c 128,-1,38
 674 239 674 239 690 248 c 0,39,40
 697 252 697 252 776 286 c 0,41,42
 848 317 848 317 888 317 c 0,43,44
 930 317 930 317 955 294 c 0,45,46
 972 278 972 278 972 252 c 0,47,48
 972 242 972 242 970 232 c 0,49,50
 970 230 970 230 969 229 c 0,51,52
 960 195 960 195 929 163 c 0,53,54
 830 60 830 60 615 12 c 0,55,56
 508 -12 508 -12 412 -12 c 0,57,58
 318 -12 318 -12 231 36 c 128,-1,59
 144 84 144 84 109 156 c 0,0,1
EndSplineSet
Validated: 1
EndChar

StartChar: d
Encoding: 100 100 71
Width: 1104
GlyphClass: 2
Flags: W
LayerCount: 2
Fore
SplineSet
603.9453125 54 m 4,0,1
 575.9453125 54 575.9453125 54 545.9453125 48 c 132,-1,2
 515.9453125 42 515.9453125 42 485.4453125 35.5 c 132,-1,3
 454.9453125 29 454.9453125 29 424.4453125 23 c 132,-1,4
 393.9453125 17 393.9453125 17 364.9453125 17 c 4,5,6
 255.9453125 17 255.9453125 17 177.9453125 54 c 132,-1,7
 99.9453125 91 99.9453125 91 55.9453125 157 c 4,8,9
 10.9453125 223 10.9453125 223 2.9453125 313 c 4,10,11
 0.9453125 334 0.9453125 334 1.9453125 356 c 0,12,13
 1.9453125 428 1.9453125 428 22.9453125 509 c 4,14,15
 50.9453125 612 50.9453125 612 108.4453125 693 c 132,-1,16
 165.9453125 774 165.9453125 774 244.4453125 830 c 132,-1,17
 322.9453125 886 322.9453125 886 417.9453125 915.5 c 132,-1,18
 512.9453125 945 512.9453125 945 613.9453125 945 c 4,19,20
 656.9453125 945 656.9453125 945 696.9453125 935.5 c 132,-1,21
 736.9453125 926 736.9453125 926 775.9453125 914 c 132,-1,22
 814.9453125 902 814.9453125 902 853.9453125 892.5 c 132,-1,23
 892.9453125 883 892.9453125 883 933.9453125 883 c 6,24,-1
 939.9453125 883 l 5,25,-1
 1137.9453125 1527 l 6,26,27
 1141.9453125 1542 1141.9453125 1542 1153.9453125 1553.5 c 132,-1,28
 1165.9453125 1565 1165.9453125 1565 1180.9453125 1573 c 132,-1,29
 1195.9453125 1581 1195.9453125 1581 1211.9453125 1585 c 132,-1,30
 1227.9453125 1589 1227.9453125 1589 1240.9453125 1589 c 4,31,32
 1252.9453125 1589 1252.9453125 1589 1266.9453125 1584 c 132,-1,33
 1280.9453125 1579 1280.9453125 1579 1291.9453125 1570 c 132,-1,34
 1302.9453125 1561 1302.9453125 1561 1308.4453125 1548.5 c 132,-1,35
 1313.9453125 1536 1313.9453125 1536 1309.9453125 1521 c 6,36,-1
 1243.9453125 1273 l 5,37,-1
 1029.9453125 617 l 6,38,39
 1026.9453125 610 1026.9453125 610 1016.9453125 583.5 c 132,-1,40
 1006.9453125 557 1006.9453125 557 991.9453125 520 c 132,-1,41
 976.9453125 483 976.9453125 483 958.9453125 438.5 c 132,-1,42
 940.9453125 394 940.9453125 394 923.4453125 351 c 132,-1,43
 905.9453125 308 905.9453125 308 890.9453125 270.5 c 132,-1,44
 875.9453125 233 875.9453125 233 865.9453125 209 c 4,45,46
 862.9453125 200 862.9453125 200 850.9453125 175 c 132,-1,47
 838.9453125 150 838.9453125 150 825.4453125 122 c 132,-1,48
 811.9453125 94 811.9453125 94 799.4453125 69.5 c 132,-1,49
 786.9453125 45 786.9453125 45 781.9453125 36 c 4,50,51
 762.9453125 3 762.9453125 3 734.4453125 -11.5 c 132,-1,52
 705.9453125 -26 705.9453125 -26 675.9453125 -26 c 4,53,54
 656.9453125 -26 656.9453125 -26 645.4453125 -13.5 c 132,-1,55
 633.9453125 -1 633.9453125 -1 626.4453125 14 c 132,-1,56
 618.9453125 29 618.9453125 29 614.4453125 41.5 c 132,-1,57
 609.9453125 54 609.9453125 54 603.9453125 54 c 4,0,1
200.9453125 506 m 260,58,59
 186.9453125 453 186.9453125 453 186.9453125 408 c 0,60,61
 186.9453125 394 186.9453125 394 188.9453125 382 c 4,62,63
 194.9453125 326 194.9453125 326 221.9453125 286 c 132,-1,64
 248.9453125 246 248.9453125 246 297.4453125 224.5 c 132,-1,65
 345.9453125 203 345.9453125 203 414.9453125 203 c 4,66,67
 432.9453125 203 432.9453125 203 460.4453125 205 c 132,-1,68
 487.9453125 207 487.9453125 207 518.9453125 211.5 c 132,-1,69
 549.9453125 216 549.9453125 216 582.9453125 224 c 132,-1,70
 615.9453125 232 615.9453125 232 644.4453125 244 c 132,-1,71
 672.9453125 256 672.9453125 256 694.9453125 273.5 c 132,-1,72
 716.9453125 291 716.9453125 291 725.9453125 314 c 6,73,-1
 860.9453125 654 l 5,74,-1
 861.9453125 660 l 6,75,76
 867.9453125 682 867.9453125 682 852.9453125 697.5 c 132,-1,77
 837.9453125 713 837.9453125 713 810.4453125 724 c 132,-1,78
 782.9453125 735 782.9453125 735 746.9453125 742 c 132,-1,79
 710.9453125 749 710.9453125 749 676.4453125 752.5 c 132,-1,80
 641.9453125 756 641.9453125 756 613.4453125 757.5 c 132,-1,81
 584.9453125 759 584.9453125 759 569.9453125 759 c 4,82,83
 506.9453125 759 506.9453125 759 448.9453125 745.5 c 132,-1,84
 390.9453125 732 390.9453125 732 341.9453125 702 c 132,-1,85
 292.9453125 672 292.9453125 672 255.9453125 623.5 c 132,-1,86
 218.9453125 575 218.9453125 575 200.9453125 506 c 260,58,59
EndSplineSet
Validated: 1
EndChar

StartChar: e
Encoding: 101 101 72
Width: 1031
GlyphClass: 2
Flags: W
LayerCount: 2
Fore
SplineSet
44.8447265625 520 m 0,0,1
 72.8447265625 623 72.8447265625 623 140.344726562 711.5 c 128,-1,2
 207.844726562 800 207.844726562 800 300.344726562 865 c 128,-1,3
 392.844726562 930 392.844726562 930 501.844726562 968 c 0,4,5
 607.844726562 1005 607.844726562 1005 717.844726562 1005 c 0,6,7
 792.844726562 1005 792.844726562 1005 862.844726562 988 c 0,8,9
 930.844726562 972 930.844726562 972 979.844726562 930 c 0,10,11
 1027.84472656 890 1027.84472656 890 1047.84472656 825 c 0,12,13
 1055.84472656 798 1055.84472656 798 1055.84472656 766 c 0,14,15
 1055.84472656 722 1055.84472656 722 1040.84472656 666 c 0,16,17
 1027.84472656 619 1027.84472656 619 1000.34472656 582 c 128,-1,18
 972.844726562 545 972.844726562 545 935.344726562 517 c 128,-1,19
 897.844726562 489 897.844726562 489 853.844726562 470 c 0,20,21
 803.844726562 448 803.844726562 448 762.844726562 437 c 0,22,23
 716.844726562 424 716.844726562 424 670.844726562 417 c 128,-1,24
 624.844726562 410 624.844726562 410 584.844726562 408 c 2,25,-1
 219.844726562 388 l 1,26,-1
 218.844726562 384 l 2,27,28
 212.844726562 360 212.844726562 360 212.844726562 339 c 0,29,30
 212.844726562 317 212.844726562 317 219.844726562 298 c 0,31,32
 233.844726562 262 233.844726562 262 264.344726562 238 c 128,-1,33
 294.844726562 214 294.844726562 214 335.844726562 202 c 0,34,35
 372.844726562 191 372.844726562 191 417.844726562 191 c 0,36,37
 467.844726562 191 467.844726562 191 516.844726562 209 c 0,38,39
 559.844726562 225 559.844726562 225 610.844726562 248 c 0,40,41
 673.844726562 276 673.844726562 276 703.844726562 288 c 0,42,43
 749.844726562 306 749.844726562 306 791.844726562 306 c 0,44,45
 832.844726562 306 832.844726562 306 854.844726562 282 c 0,46,47
 869.844726562 266 869.844726562 266 870.844726562 241 c 0,48,49
 870.844726562 229 870.844726562 229 866.844726562 215 c 0,50,51
 855.844726562 174 855.844726562 174 822.844726562 142 c 0,52,53
 788.844726562 109 788.844726562 109 742.844726562 84 c 0,54,55
 692.844726562 57 692.844726562 57 643.844726562 40 c 0,56,57
 591.844726562 23 591.844726562 23 536.844726562 10 c 0,58,59
 491.844726562 0 491.844726562 0 437.844726562 -6 c 0,60,61
 381.844726562 -12 381.844726562 -12 360.844726562 -12 c 0,62,63
 245.844726562 -12 245.844726562 -12 171.844726562 32 c 0,64,65
 96.8447265625 77 96.8447265625 77 59.8447265625 148 c 0,66,67
 21.8447265625 220 21.8447265625 220 19.8447265625 318 c 0,68,69
 19.8447265625 325 19.8447265625 325 19.8447265625 331 c 0,70,71
 19.8076171875 334.444335938 19.8076171875 334.444335938 19.8076171875 337.892578125 c 0,72,73
 19.8076171875 427.555664062 19.8076171875 427.555664062 44.8447265625 520 c 0,0,1
667.844726562 809 m 0,74,75
 634.844726562 809 634.844726562 809 594.344726562 802.5 c 128,-1,76
 553.844726562 796 553.844726562 796 512.844726562 784 c 0,77,78
 471.844726562 771 471.844726562 771 429.844726562 752 c 0,79,80
 385.844726562 732 385.844726562 732 355.844726562 710 c 0,81,82
 323.844726562 687 323.844726562 687 298.344726562 656 c 128,-1,83
 272.844726562 625 272.844726562 625 263.844726562 591 c 1,84,85
 278.844726562 591 278.844726562 591 327.844726562 592 c 0,86,87
 350.844726562 592 350.844726562 592 438.844726562 598 c 0,88,89
 501.844726562 601 501.844726562 601 570.844726562 606 c 0,90,91
 623.844726562 610 623.844726562 610 700.844726562 620 c 0,92,93
 752.844726562 627 752.844726562 627 799.844726562 640 c 0,94,95
 839.844726562 651 839.844726562 651 843.844726562 666 c 0,96,97
 848.844726562 684 848.844726562 684 848.844726562 700 c 0,98,99
 848.844726562 721 848.844726562 721 839.844726562 737 c 0,100,101
 824.844726562 764 824.844726562 764 794.844726562 781 c 0,102,103
 766.844726562 797 766.844726562 797 729.844726562 803 c 0,104,105
 694.844726562 809 694.844726562 809 667.844726562 809 c 0,74,75
EndSplineSet
Validated: 1
EndChar

StartChar: f
Encoding: 102 102 73
Width: 663
GlyphClass: 2
Flags: W
LayerCount: 2
Fore
SplineSet
-44.939453125 96 m 1,0,1
 31.060546875 234 31.060546875 234 92.060546875 377.5 c 128,-1,2
 153.060546875 521 153.060546875 521 206.060546875 665 c 0,3,4
 207.060546875 667 207.060546875 667 209.560546875 672.5 c 128,-1,5
 212.060546875 678 212.060546875 678 213.060546875 680 c 0,6,7
 216.060546875 692 216.060546875 692 206.060546875 701.5 c 128,-1,8
 196.060546875 711 196.060546875 711 184.560546875 722 c 128,-1,9
 173.060546875 733 173.060546875 733 164.560546875 747.5 c 128,-1,10
 156.060546875 762 156.060546875 762 162.060546875 784 c 0,11,12
 173.060546875 824 173.060546875 824 203.560546875 845.5 c 128,-1,13
 234.060546875 867 234.060546875 867 273.060546875 869 c 1,14,-1
 410.060546875 1339 l 2,15,16
 424.060546875 1389 424.060546875 1389 458.060546875 1431 c 128,-1,17
 492.060546875 1473 492.060546875 1473 537.060546875 1503 c 128,-1,18
 582.060546875 1533 582.060546875 1533 632.060546875 1549.5 c 128,-1,19
 682.060546875 1566 682.060546875 1566 729.060546875 1566 c 0,20,21
 779.060546875 1566 779.060546875 1566 829.060546875 1547.5 c 128,-1,22
 879.060546875 1529 879.060546875 1529 916.060546875 1496 c 0,23,24
 952.060546875 1462 952.060546875 1462 970.060546875 1416 c 0,25,26
 979.060546875 1391 979.060546875 1391 980.060546875 1363 c 0,27,28
 980.060546875 1339 980.060546875 1339 973.060546875 1313 c 0,29,30
 963.060546875 1276 963.060546875 1276 936.560546875 1255.5 c 128,-1,31
 910.060546875 1235 910.060546875 1235 873.060546875 1235 c 0,32,33
 847.060546875 1235 847.060546875 1235 831.560546875 1246.5 c 128,-1,34
 816.060546875 1258 816.060546875 1258 805.560546875 1275.5 c 128,-1,35
 795.060546875 1293 795.060546875 1293 787.060546875 1313.5 c 128,-1,36
 779.060546875 1334 779.060546875 1334 767.560546875 1351.5 c 128,-1,37
 756.060546875 1369 756.060546875 1369 737.560546875 1380.5 c 128,-1,38
 719.060546875 1392 719.060546875 1392 689.060546875 1392 c 0,39,40
 647.060546875 1392 647.060546875 1392 616.060546875 1373.5 c 128,-1,41
 585.060546875 1355 585.060546875 1355 571.060546875 1310 c 0,42,43
 567.060546875 1294 567.060546875 1294 557.560546875 1261.5 c 128,-1,44
 548.060546875 1229 548.060546875 1229 536.560546875 1188 c 128,-1,45
 525.060546875 1147 525.060546875 1147 512.060546875 1101.5 c 128,-1,46
 499.060546875 1056 499.060546875 1056 487.560546875 1015 c 128,-1,47
 476.060546875 974 476.060546875 974 466.560546875 941 c 128,-1,48
 457.060546875 908 457.060546875 908 453.060546875 892 c 2,49,-1
 446.060546875 866 l 1,50,-1
 595.060546875 866 l 2,51,52
 606.060546875 866 606.060546875 866 613.060546875 857 c 128,-1,53
 620.060546875 848 620.060546875 848 623.560546875 835 c 128,-1,54
 627.060546875 822 627.060546875 822 627.560546875 808 c 128,-1,55
 628.060546875 794 628.060546875 794 625.060546875 784 c 0,56,57
 622.060546875 772 622.060546875 772 614.060546875 757 c 128,-1,58
 606.060546875 742 606.060546875 742 594.060546875 728.5 c 128,-1,59
 582.060546875 715 582.060546875 715 567.560546875 706 c 128,-1,60
 553.060546875 697 553.060546875 697 537.060546875 697 c 2,61,-1
 389.060546875 697 l 1,62,63
 384.060546875 683 384.060546875 683 372.560546875 654 c 128,-1,64
 361.060546875 625 361.060546875 625 346.560546875 588 c 128,-1,65
 332.060546875 551 332.060546875 551 316.060546875 510 c 128,-1,66
 300.060546875 469 300.060546875 469 286.060546875 432 c 128,-1,67
 272.060546875 395 272.060546875 395 260.060546875 365.5 c 128,-1,68
 248.060546875 336 248.060546875 336 242.060546875 322 c 0,69,70
 237.060546875 310 237.060546875 310 226.560546875 281.5 c 128,-1,71
 216.060546875 253 216.060546875 253 201.060546875 217.5 c 128,-1,72
 186.060546875 182 186.060546875 182 166.560546875 144 c 128,-1,73
 147.060546875 106 147.060546875 106 123.060546875 74.5 c 128,-1,74
 99.060546875 43 99.060546875 43 72.060546875 23 c 128,-1,75
 45.060546875 3 45.060546875 3 14.060546875 3 c 0,76,77
 -20.939453125 3 -20.939453125 3 -39.939453125 25 c 128,-1,78
 -58.939453125 47 -58.939453125 47 -48.939453125 84 c 2,79,-1
 -44.939453125 96 l 1,0,1
EndSplineSet
Validated: 1
EndChar

StartChar: g
Encoding: 103 103 74
Width: 1090
GlyphClass: 2
Flags: W
LayerCount: 2
Fore
SplineSet
-96 -129 m 4,0,1
 -95 -125 -95 -125 -93 -117.5 c 132,-1,2
 -91 -110 -91 -110 -89 -101.5 c 132,-1,3
 -87 -93 -87 -93 -85 -85.5 c 132,-1,4
 -83 -78 -83 -78 -82 -75 c 4,5,6
 -67 -49 -67 -49 -35 -32 c 132,-1,7
 -3 -15 -3 -15 23 -15 c 4,8,9
 64 -15 64 -15 83 -28.5 c 132,-1,10
 102 -42 102 -42 112.5 -62 c 132,-1,11
 123 -82 123 -82 133 -105.5 c 132,-1,12
 143 -129 143 -129 165 -149 c 4,13,14
 188 -170 188 -170 231 -182 c 4,15,16
 268 -193 268 -193 330 -193 c 4,17,18
 335 -193 335 -193 340 -193 c 4,19,20
 346 -193 346 -193 351 -193 c 4,21,22
 376 -193 376 -193 407.5 -192.5 c 132,-1,23
 439 -192 439 -192 472.5 -186.5 c 132,-1,24
 506 -181 506 -181 539 -169.5 c 132,-1,25
 572 -158 572 -158 599 -136 c 132,-1,26
 626 -114 626 -114 645 -78 c 4,27,28
 657 -57 657 -57 664 -30 c 4,29,30
 669 -11 669 -11 672 10 c 5,31,32
 608 14 608 14 531 22.5 c 132,-1,33
 454 31 454 31 379 49.5 c 132,-1,34
 304 68 304 68 237 99 c 132,-1,35
 170 130 170 130 123.5 178.5 c 4,36,37
 77 226 77 226 58 294 c 4,38,39
 49 325 49 325 49 361 c 0,40,41
 49 404 49 404 62 455 c 4,42,43
 65 468 65 468 69 481 c 4,44,45
 103 608 103 608 162 696 c 4,46,47
 227 793 227 793 309.5 854 c 132,-1,48
 392 915 392 915 486 946.5 c 132,-1,49
 580 978 580 978 673 991 c 132,-1,50
 766 1004 766 1004 852 1005 c 132,-1,51
 938 1006 938 1006 1003 1006 c 6,52,-1
 1087 1006 l 5,53,54
 1093 1002 1093 1002 1103.5 996.5 c 132,-1,55
 1114 991 1114 991 1123 983.5 c 132,-1,56
 1132 976 1132 976 1137.5 967 c 132,-1,57
 1143 958 1143 958 1140 947 c 6,58,-1
 833 -74 l 5,59,60
 816 -137 816 -137 782.5 -185.5 c 132,-1,61
 749 -234 749 -234 705 -270.5 c 132,-1,62
 661 -307 661 -307 608.5 -331.5 c 132,-1,63
 556 -356 556 -356 500.5 -371.5 c 132,-1,64
 445 -387 445 -387 390 -393.5 c 132,-1,65
 335 -400 335 -400 286 -400 c 4,66,67
 200 -400 200 -400 127 -378 c 132,-1,68
 54 -356 54 -356 1.5 -319 c 132,-1,69
 -51 -282 -51 -282 -77 -232 c 4,70,71
 -97 -193 -97 -193 -97 -152 c 0,72,73
 -97 -140 -97 -140 -96 -129 c 4,0,1
269 455 m 4,74,75
 266 439 266 439 266 424 c 0,76,77
 266 392 266 392 280 366 c 4,78,79
 301 328 301 328 341 303 c 132,-1,80
 381 278 381 278 433.5 262 c 132,-1,81
 486 246 486 246 540.5 237.5 c 132,-1,82
 595 229 595 229 644 226 c 132,-1,83
 693 223 693 223 727 223 c 5,84,-1
 734 248 l 5,85,86
 737 263 737 263 748.5 305.5 c 132,-1,87
 760 348 760 348 777 404 c 132,-1,88
 794 460 794 460 813 523 c 132,-1,89
 832 586 832 586 849 642.5 c 132,-1,90
 866 699 866 699 878 741.5 c 132,-1,91
 890 784 890 784 893 799 c 5,92,-1
 878 799 l 6,93,94
 850 800 850 800 799 802 c 4,95,96
 782 803 782 803 764 802 c 4,97,98
 728 802 728 802 687 799 c 4,99,100
 626 794 626 794 560 777.5 c 132,-1,101
 494 761 494 761 436 723 c 132,-1,102
 378 685 378 685 332 620 c 4,103,104
 298 570 298 570 279 498 c 4,105,106
 273 478 273 478 269 455 c 4,74,75
EndSplineSet
Validated: 1
EndChar

